<mxfile host="app.diagrams.net" modified="2023-04-10T03:25:14.065Z" agent="Mozilla/5.0 (Macintosh; Intel Mac OS X 10_15_7) AppleWebKit/537.36 (KHTML, like Gecko) Chrome/111.0.0.0 Safari/537.36" etag="xFcSs6fVc6eHn99T8ZpX" version="21.1.5" type="github">
  <diagram name="第 1 页" id="pB9ZR8L_eJIo9iwoNn-T">
    <mxGraphModel dx="5180" dy="2443" grid="1" gridSize="10" guides="1" tooltips="1" connect="1" arrows="1" fold="1" page="1" pageScale="1" pageWidth="827" pageHeight="1169" math="0" shadow="0">
      <root>
        <mxCell id="0" />
        <mxCell id="1" parent="0" />
        <mxCell id="BgDW5pC34_x2A9uitIVd-1" value="" style="rounded=0;whiteSpace=wrap;html=1;fillColor=#E6E6E6;" vertex="1" parent="1">
          <mxGeometry x="200" y="388" width="660" height="510" as="geometry" />
        </mxCell>
        <mxCell id="BgDW5pC34_x2A9uitIVd-2" value="" style="rounded=1;whiteSpace=wrap;html=1;fontSize=10;fillColor=none;dashed=1;" vertex="1" parent="1">
          <mxGeometry x="220" y="418" width="378" height="450" as="geometry" />
        </mxCell>
        <mxCell id="BgDW5pC34_x2A9uitIVd-3" value="" style="rounded=1;whiteSpace=wrap;html=1;fontSize=10;fillColor=none;dashed=1;" vertex="1" parent="1">
          <mxGeometry x="640" y="417.48" width="200" height="450.52" as="geometry" />
        </mxCell>
        <mxCell id="BgDW5pC34_x2A9uitIVd-4" value="" style="rounded=0;whiteSpace=wrap;html=1;fillColor=#E6E6E6;" vertex="1" parent="1">
          <mxGeometry x="202.75" y="960" width="660.25" height="285" as="geometry" />
        </mxCell>
        <mxCell id="BgDW5pC34_x2A9uitIVd-5" value="" style="rounded=0;whiteSpace=wrap;html=1;strokeWidth=2;fillColor=#FFFFFF;fontSize=16;fontColor=#FFFFFF;dashed=1;" vertex="1" parent="1">
          <mxGeometry x="223" y="987.5" width="370" height="227.5" as="geometry" />
        </mxCell>
        <mxCell id="BgDW5pC34_x2A9uitIVd-6" value="" style="rounded=0;whiteSpace=wrap;html=1;fillColor=#E6E6E6;" vertex="1" parent="1">
          <mxGeometry x="201.5" y="1310" width="660.25" height="80" as="geometry" />
        </mxCell>
        <mxCell id="BgDW5pC34_x2A9uitIVd-7" value="1.3w核" style="text;html=1;align=center;verticalAlign=middle;resizable=0;points=[];autosize=1;fontStyle=2" vertex="1" parent="1">
          <mxGeometry x="533" y="1192.5" width="60" height="30" as="geometry" />
        </mxCell>
        <mxCell id="BgDW5pC34_x2A9uitIVd-8" value="&lt;span style=&quot;font-size: 16px ; font-weight: 700&quot;&gt;Nginx&lt;/span&gt;" style="rounded=0;whiteSpace=wrap;html=1;fillColor=#E6E6E6;" vertex="1" parent="1">
          <mxGeometry x="200" y="260" width="450" height="60" as="geometry" />
        </mxCell>
        <mxCell id="BgDW5pC34_x2A9uitIVd-9" value="" style="outlineConnect=0;fontColor=#232F3E;gradientColor=none;fillColor=#3334B9;strokeColor=none;dashed=0;verticalLabelPosition=bottom;verticalAlign=top;align=center;html=1;fontSize=12;fontStyle=0;aspect=fixed;pointerEvents=1;shape=mxgraph.aws4.elasticache_for_redis;" vertex="1" parent="1">
          <mxGeometry x="450.89" y="1330" width="45.22" height="40" as="geometry" />
        </mxCell>
        <mxCell id="BgDW5pC34_x2A9uitIVd-10" value="" style="outlineConnect=0;fontColor=#232F3E;gradientColor=none;fillColor=#3334B9;strokeColor=none;dashed=0;verticalLabelPosition=bottom;verticalAlign=top;align=center;html=1;fontSize=12;fontStyle=0;aspect=fixed;pointerEvents=1;shape=mxgraph.aws4.rds_mysql_instance;" vertex="1" parent="1">
          <mxGeometry x="631.5" y="1330" width="40" height="40" as="geometry" />
        </mxCell>
        <mxCell id="BgDW5pC34_x2A9uitIVd-11" value="&lt;font color=&quot;#000000&quot; style=&quot;font-size: 16px&quot;&gt;API接入层&lt;/font&gt;" style="text;html=1;align=center;verticalAlign=middle;resizable=0;points=[];autosize=1;fontColor=#FFFFFF;fontSize=16;" vertex="1" parent="1">
          <mxGeometry x="92" y="580.49" width="100" height="30" as="geometry" />
        </mxCell>
        <mxCell id="BgDW5pC34_x2A9uitIVd-12" value="&lt;font color=&quot;#000000&quot; style=&quot;font-size: 16px&quot;&gt;业务服务层&lt;/font&gt;" style="text;html=1;align=center;verticalAlign=middle;resizable=0;points=[];autosize=1;fontColor=#FFFFFF;fontSize=16;" vertex="1" parent="1">
          <mxGeometry x="92" y="1104" width="100" height="30" as="geometry" />
        </mxCell>
        <mxCell id="BgDW5pC34_x2A9uitIVd-13" value="&lt;font color=&quot;#000000&quot; style=&quot;font-size: 16px&quot;&gt;资源层&lt;/font&gt;" style="text;html=1;align=center;verticalAlign=middle;resizable=0;points=[];autosize=1;fontColor=#FFFFFF;fontSize=16;" vertex="1" parent="1">
          <mxGeometry x="112" y="1343.5" width="60" height="20" as="geometry" />
        </mxCell>
        <mxCell id="BgDW5pC34_x2A9uitIVd-14" value="&lt;font color=&quot;#000000&quot; style=&quot;font-size: 16px&quot;&gt;7层负载均衡&lt;/font&gt;" style="text;html=1;align=center;verticalAlign=middle;resizable=0;points=[];autosize=1;fontColor=#FFFFFF;fontSize=16;" vertex="1" parent="1">
          <mxGeometry x="100" y="280" width="100" height="20" as="geometry" />
        </mxCell>
        <mxCell id="BgDW5pC34_x2A9uitIVd-15" value="&lt;font color=&quot;#000000&quot; style=&quot;font-size: 16px&quot;&gt;4层&lt;/font&gt;" style="text;html=1;align=center;verticalAlign=middle;resizable=0;points=[];autosize=1;fontColor=#FFFFFF;fontSize=16;" vertex="1" parent="1">
          <mxGeometry x="140" y="195" width="40" height="20" as="geometry" />
        </mxCell>
        <mxCell id="BgDW5pC34_x2A9uitIVd-16" value="" style="edgeStyle=orthogonalEdgeStyle;rounded=0;orthogonalLoop=1;jettySize=auto;html=1;fontSize=16;fontColor=#FFFFFF;strokeWidth=3;" edge="1" parent="1" source="BgDW5pC34_x2A9uitIVd-17" target="BgDW5pC34_x2A9uitIVd-8">
          <mxGeometry relative="1" as="geometry" />
        </mxCell>
        <mxCell id="BgDW5pC34_x2A9uitIVd-17" value="&lt;span style=&quot;font-size: 16px ; font-weight: 700&quot;&gt;LVS/DPVS&lt;/span&gt;" style="rounded=0;whiteSpace=wrap;html=1;fillColor=#E6E6E6;" vertex="1" parent="1">
          <mxGeometry x="200" y="180" width="450" height="50" as="geometry" />
        </mxCell>
        <mxCell id="BgDW5pC34_x2A9uitIVd-18" value="" style="edgeStyle=orthogonalEdgeStyle;rounded=0;orthogonalLoop=1;jettySize=auto;html=1;fontSize=16;fontColor=#FFFFFF;strokeWidth=3;" edge="1" parent="1" source="BgDW5pC34_x2A9uitIVd-19" target="BgDW5pC34_x2A9uitIVd-17">
          <mxGeometry relative="1" as="geometry" />
        </mxCell>
        <mxCell id="BgDW5pC34_x2A9uitIVd-19" value="" style="verticalLabelPosition=bottom;html=1;verticalAlign=top;align=center;strokeColor=none;fillColor=#00BEF2;shape=mxgraph.azure.mobile;pointerEvents=1;fontSize=16;fontColor=#FFFFFF;" vertex="1" parent="1">
          <mxGeometry x="512.5" y="62" width="35" height="50" as="geometry" />
        </mxCell>
        <mxCell id="BgDW5pC34_x2A9uitIVd-20" value="" style="curved=1;endArrow=classic;html=1;fontSize=16;fontColor=#FFFFFF;exitX=1;exitY=0.25;exitDx=0;exitDy=0;entryX=1;entryY=0.5;entryDx=0;entryDy=0;strokeWidth=3;" edge="1" parent="1" source="BgDW5pC34_x2A9uitIVd-1" target="BgDW5pC34_x2A9uitIVd-6">
          <mxGeometry width="50" height="50" relative="1" as="geometry">
            <mxPoint x="1010" y="650" as="sourcePoint" />
            <mxPoint x="1060" y="600" as="targetPoint" />
            <Array as="points">
              <mxPoint x="940" y="570" />
              <mxPoint x="980" y="730" />
              <mxPoint x="970" y="910" />
              <mxPoint x="950" y="1100" />
              <mxPoint x="920" y="1270" />
            </Array>
          </mxGeometry>
        </mxCell>
        <mxCell id="BgDW5pC34_x2A9uitIVd-21" value="" style="whiteSpace=wrap;html=1;strokeWidth=1;fillColor=#FFFFFF;fontSize=16;fontColor=#FFFFFF;" vertex="1" parent="1">
          <mxGeometry x="237" y="1012.5" width="146" height="182.5" as="geometry" />
        </mxCell>
        <mxCell id="BgDW5pC34_x2A9uitIVd-22" value="" style="whiteSpace=wrap;html=1;strokeWidth=1;fillColor=#FFFFFF;fontSize=16;fontColor=#FFFFFF;" vertex="1" parent="1">
          <mxGeometry x="397" y="1012.5" width="156" height="182.5" as="geometry" />
        </mxCell>
        <mxCell id="BgDW5pC34_x2A9uitIVd-23" value="&lt;font color=&quot;#000000&quot;&gt;内部服务&lt;/font&gt;" style="text;html=1;align=center;verticalAlign=middle;resizable=0;points=[];autosize=1;fontSize=16;fontColor=#FFFFFF;" vertex="1" parent="1">
          <mxGeometry x="223" y="987.5" width="80" height="20" as="geometry" />
        </mxCell>
        <mxCell id="BgDW5pC34_x2A9uitIVd-24" value="&lt;span style=&quot;font-size: 12px&quot;&gt;&lt;font color=&quot;#000000&quot;&gt;用户身份标签&lt;/font&gt;&lt;/span&gt;" style="rounded=0;whiteSpace=wrap;html=1;strokeWidth=1;fillColor=#FFFFFF;fontSize=16;fontColor=#FFFFFF;" vertex="1" parent="1">
          <mxGeometry x="260.5" y="1045" width="99.5" height="40" as="geometry" />
        </mxCell>
        <mxCell id="BgDW5pC34_x2A9uitIVd-25" value="&lt;span style=&quot;font-size: 12px&quot;&gt;&lt;font color=&quot;#000000&quot;&gt;领域A&lt;br&gt;&lt;/font&gt;&lt;/span&gt;&lt;span style=&quot;color: rgb(0, 0, 0); font-size: 12px;&quot;&gt;消费&lt;/span&gt;&lt;span style=&quot;font-size: 12px&quot;&gt;&lt;font color=&quot;#000000&quot;&gt;进房消息&lt;/font&gt;&lt;/span&gt;" style="rounded=0;whiteSpace=wrap;html=1;strokeWidth=1;fillColor=#FFFFFF;fontSize=16;fontColor=#FFFFFF;" vertex="1" parent="1">
          <mxGeometry x="416.5" y="1045" width="90.5" height="40" as="geometry" />
        </mxCell>
        <mxCell id="BgDW5pC34_x2A9uitIVd-26" value="间内信令服务" style="rounded=0;whiteSpace=wrap;html=1;" vertex="1" parent="1">
          <mxGeometry x="260.5" y="1095" width="100.5" height="40" as="geometry" />
        </mxCell>
        <mxCell id="BgDW5pC34_x2A9uitIVd-27" value="各领域服务模块" style="rounded=0;whiteSpace=wrap;html=1;" vertex="1" parent="1">
          <mxGeometry x="260" y="1145" width="100.5" height="40" as="geometry" />
        </mxCell>
        <mxCell id="BgDW5pC34_x2A9uitIVd-28" value="&lt;span style=&quot;font-weight: 700&quot;&gt;&lt;font color=&quot;#ffffff&quot;&gt;Consumer&lt;/font&gt;&lt;/span&gt;" style="text;html=1;align=center;verticalAlign=middle;resizable=0;points=[];autosize=1;strokeWidth=1;fillColor=#000000;fontColor=#FFFFFF;" vertex="1" parent="1">
          <mxGeometry x="397" y="1012.5" width="70" height="20" as="geometry" />
        </mxCell>
        <mxCell id="BgDW5pC34_x2A9uitIVd-29" value="RPC服务" style="text;html=1;align=center;verticalAlign=middle;resizable=0;points=[];autosize=1;strokeWidth=1;fillColor=#000000;fontColor=#FFFFFF;" vertex="1" parent="1">
          <mxGeometry x="237" y="1012.5" width="60" height="20" as="geometry" />
        </mxCell>
        <mxCell id="BgDW5pC34_x2A9uitIVd-30" value="" style="rounded=0;whiteSpace=wrap;html=1;strokeWidth=3;fillColor=#FFFFFF;fontSize=16;fontColor=#FFFFFF;dashed=1;strokeColor=#FF6666;" vertex="1" parent="1">
          <mxGeometry x="633" y="988.75" width="220" height="226.25" as="geometry" />
        </mxCell>
        <mxCell id="BgDW5pC34_x2A9uitIVd-31" value="" style="whiteSpace=wrap;html=1;strokeWidth=1;fillColor=#FFFFFF;fontSize=16;fontColor=#FFFFFF;" vertex="1" parent="1">
          <mxGeometry x="643" y="1012.5" width="190" height="180" as="geometry" />
        </mxCell>
        <mxCell id="BgDW5pC34_x2A9uitIVd-32" value="RPC服务" style="text;html=1;align=center;verticalAlign=middle;resizable=0;points=[];autosize=1;strokeWidth=1;fillColor=#000000;fontColor=#FFFFFF;" vertex="1" parent="1">
          <mxGeometry x="643" y="1012.5" width="60" height="20" as="geometry" />
        </mxCell>
        <mxCell id="BgDW5pC34_x2A9uitIVd-33" value="&lt;font color=&quot;#000000&quot;&gt;外部服务&lt;/font&gt;" style="text;html=1;align=center;verticalAlign=middle;resizable=0;points=[];autosize=1;fontSize=16;fontColor=#FFFFFF;" vertex="1" parent="1">
          <mxGeometry x="633" y="988.75" width="80" height="20" as="geometry" />
        </mxCell>
        <mxCell id="BgDW5pC34_x2A9uitIVd-34" value="&lt;font color=&quot;#000000&quot;&gt;&lt;span style=&quot;font-size: 12px&quot;&gt;风控&lt;/span&gt;&lt;/font&gt;" style="rounded=0;whiteSpace=wrap;html=1;strokeWidth=1;fillColor=#CCCCCC;fontSize=16;strokeColor=#666666;fontColor=#333333;" vertex="1" parent="1">
          <mxGeometry x="653" y="1045" width="80" height="40" as="geometry" />
        </mxCell>
        <mxCell id="BgDW5pC34_x2A9uitIVd-35" value="&lt;font color=&quot;#000000&quot;&gt;&lt;span style=&quot;font-size: 12px&quot;&gt;推荐&lt;/span&gt;&lt;/font&gt;" style="rounded=0;whiteSpace=wrap;html=1;strokeWidth=1;fillColor=#CCCCCC;fontSize=16;strokeColor=#666666;fontColor=#333333;" vertex="1" parent="1">
          <mxGeometry x="653" y="1095" width="80" height="40" as="geometry" />
        </mxCell>
        <mxCell id="BgDW5pC34_x2A9uitIVd-36" value="&lt;font color=&quot;#000000&quot;&gt;&lt;span style=&quot;font-size: 12px;&quot;&gt;支付中台&lt;/span&gt;&lt;/font&gt;" style="rounded=0;whiteSpace=wrap;html=1;strokeWidth=1;fillColor=#CCCCCC;fontSize=16;fontColor=#FFFFFF;" vertex="1" parent="1">
          <mxGeometry x="743" y="1095" width="77.5" height="40" as="geometry" />
        </mxCell>
        <mxCell id="BgDW5pC34_x2A9uitIVd-37" value="&lt;font color=&quot;#000000&quot;&gt;&lt;span style=&quot;font-size: 12px&quot;&gt;社交关系链&lt;/span&gt;&lt;/font&gt;" style="rounded=0;whiteSpace=wrap;html=1;strokeWidth=1;fillColor=#CCCCCC;fontSize=16;strokeColor=#666666;fontColor=#333333;" vertex="1" parent="1">
          <mxGeometry x="653" y="1145" width="80" height="40" as="geometry" />
        </mxCell>
        <mxCell id="BgDW5pC34_x2A9uitIVd-38" value="&lt;font color=&quot;#000000&quot;&gt;&lt;span style=&quot;font-size: 12px&quot;&gt;分享中台&lt;/span&gt;&lt;/font&gt;" style="rounded=0;whiteSpace=wrap;html=1;strokeWidth=1;fillColor=#CCCCCC;fontSize=16;fontColor=#FFFFFF;" vertex="1" parent="1">
          <mxGeometry x="743" y="1045" width="77.5" height="40" as="geometry" />
        </mxCell>
        <mxCell id="BgDW5pC34_x2A9uitIVd-39" value="" style="endArrow=classic;html=1;fontColor=#FF6666;exitX=0.5;exitY=1;exitDx=0;exitDy=0;strokeWidth=3;" edge="1" parent="1" source="BgDW5pC34_x2A9uitIVd-1">
          <mxGeometry width="50" height="50" relative="1" as="geometry">
            <mxPoint x="80" y="730" as="sourcePoint" />
            <mxPoint x="530" y="960" as="targetPoint" />
            <Array as="points" />
          </mxGeometry>
        </mxCell>
        <mxCell id="BgDW5pC34_x2A9uitIVd-40" value="" style="endArrow=classic;html=1;strokeWidth=3;fontColor=#000000;exitX=0.5;exitY=1;exitDx=0;exitDy=0;" edge="1" parent="1" source="BgDW5pC34_x2A9uitIVd-4" target="BgDW5pC34_x2A9uitIVd-6">
          <mxGeometry width="50" height="50" relative="1" as="geometry">
            <mxPoint x="51.75" y="1160" as="sourcePoint" />
            <mxPoint x="101.75" y="1110" as="targetPoint" />
          </mxGeometry>
        </mxCell>
        <mxCell id="BgDW5pC34_x2A9uitIVd-41" value="" style="endArrow=classic;html=1;strokeWidth=3;fontColor=#000000;exitX=0.5;exitY=1;exitDx=0;exitDy=0;entryX=0.5;entryY=0;entryDx=0;entryDy=0;edgeStyle=orthogonalEdgeStyle;" edge="1" parent="1" source="BgDW5pC34_x2A9uitIVd-8" target="BgDW5pC34_x2A9uitIVd-1">
          <mxGeometry width="50" height="50" relative="1" as="geometry">
            <mxPoint x="960" y="510" as="sourcePoint" />
            <mxPoint x="1010" y="460" as="targetPoint" />
            <Array as="points">
              <mxPoint x="425" y="350" />
              <mxPoint x="530" y="350" />
            </Array>
          </mxGeometry>
        </mxCell>
        <mxCell id="BgDW5pC34_x2A9uitIVd-42" value="" style="outlineConnect=0;fontColor=#232F3E;gradientColor=none;fillColor=#3334B9;strokeColor=none;dashed=0;verticalLabelPosition=bottom;verticalAlign=top;align=center;html=1;fontSize=12;fontStyle=0;aspect=fixed;pointerEvents=1;shape=mxgraph.aws4.elasticache_for_memcached;" vertex="1" parent="1">
          <mxGeometry x="548.5" y="1330" width="45.21" height="40" as="geometry" />
        </mxCell>
        <mxCell id="BgDW5pC34_x2A9uitIVd-43" value="Kafka" style="outlineConnect=0;fontColor=#232F3E;gradientColor=#945DF2;gradientDirection=north;fillColor=#5A30B5;strokeColor=#ffffff;dashed=0;verticalLabelPosition=bottom;verticalAlign=top;align=center;html=1;fontSize=12;fontStyle=0;aspect=fixed;shape=mxgraph.aws4.resourceIcon;resIcon=mxgraph.aws4.managed_streaming_for_kafka;" vertex="1" parent="1">
          <mxGeometry x="371.5" y="1327.5" width="36" height="36" as="geometry" />
        </mxCell>
        <mxCell id="BgDW5pC34_x2A9uitIVd-44" value="" style="rounded=0;whiteSpace=wrap;html=1;" vertex="1" parent="1">
          <mxGeometry x="246" y="471.05" width="137" height="166.95" as="geometry" />
        </mxCell>
        <mxCell id="BgDW5pC34_x2A9uitIVd-45" value="进房服务" style="rounded=0;whiteSpace=wrap;html=1;fontSize=10;fillColor=#080808;fontColor=#ffffff;" vertex="1" parent="1">
          <mxGeometry x="246" y="471.05" width="80" height="20" as="geometry" />
        </mxCell>
        <mxCell id="BgDW5pC34_x2A9uitIVd-46" value="" style="rounded=0;whiteSpace=wrap;html=1;" vertex="1" parent="1">
          <mxGeometry x="669.41" y="470.64" width="138.5" height="167.36" as="geometry" />
        </mxCell>
        <mxCell id="BgDW5pC34_x2A9uitIVd-47" value="播粉互动" style="rounded=0;whiteSpace=wrap;html=1;fontSize=10;fillColor=#080808;fontColor=#ffffff;" vertex="1" parent="1">
          <mxGeometry x="669.41" y="470.64" width="80" height="20" as="geometry" />
        </mxCell>
        <mxCell id="BgDW5pC34_x2A9uitIVd-48" value="" style="rounded=0;whiteSpace=wrap;html=1;" vertex="1" parent="1">
          <mxGeometry x="667.5899999999999" y="659.51" width="140.32" height="170" as="geometry" />
        </mxCell>
        <mxCell id="BgDW5pC34_x2A9uitIVd-49" value="送礼链路" style="rounded=0;whiteSpace=wrap;html=1;fontSize=10;fillColor=#080808;fontColor=#ffffff;" vertex="1" parent="1">
          <mxGeometry x="668.3999999999999" y="659.51" width="80" height="20" as="geometry" />
        </mxCell>
        <mxCell id="BgDW5pC34_x2A9uitIVd-50" value="" style="rounded=0;whiteSpace=wrap;html=1;" vertex="1" parent="1">
          <mxGeometry x="428.74" y="471.05" width="146" height="166.95" as="geometry" />
        </mxCell>
        <mxCell id="BgDW5pC34_x2A9uitIVd-51" value="配置下发" style="rounded=0;whiteSpace=wrap;html=1;fontSize=10;fillColor=#080808;fontColor=#ffffff;" vertex="1" parent="1">
          <mxGeometry x="428.74" y="471.05" width="80" height="20" as="geometry" />
        </mxCell>
        <mxCell id="BgDW5pC34_x2A9uitIVd-52" value="&lt;span style=&quot;font-size: 12px;&quot;&gt;进房&lt;/span&gt;" style="rounded=0;whiteSpace=wrap;html=1;fontSize=10;" vertex="1" parent="1">
          <mxGeometry x="282.88" y="539.91" width="66.73" height="26.35" as="geometry" />
        </mxCell>
        <mxCell id="BgDW5pC34_x2A9uitIVd-53" value="出房" style="rounded=0;whiteSpace=wrap;html=1;fontSize=8;" vertex="1" parent="1">
          <mxGeometry x="282.88" y="584.6899999999999" width="66.73" height="21.6" as="geometry" />
        </mxCell>
        <mxCell id="BgDW5pC34_x2A9uitIVd-54" value="打赏" style="rounded=0;whiteSpace=wrap;html=1;fontSize=8;" vertex="1" parent="1">
          <mxGeometry x="703.16" y="746.98" width="66.73" height="27.01" as="geometry" />
        </mxCell>
        <mxCell id="BgDW5pC34_x2A9uitIVd-55" value="评论" style="rounded=0;whiteSpace=wrap;html=1;fontSize=8;" vertex="1" parent="1">
          <mxGeometry x="693.1899999999999" y="529.52" width="66.73" height="27.01" as="geometry" />
        </mxCell>
        <mxCell id="BgDW5pC34_x2A9uitIVd-56" value="点赞" style="rounded=0;whiteSpace=wrap;html=1;fontSize=8;" vertex="1" parent="1">
          <mxGeometry x="693.1899999999999" y="564.0600000000001" width="66.73" height="27.01" as="geometry" />
        </mxCell>
        <mxCell id="BgDW5pC34_x2A9uitIVd-57" value="进房链路" style="text;html=1;align=center;verticalAlign=middle;resizable=0;points=[];autosize=1;strokeColor=none;fillColor=none;fontSize=10;" vertex="1" parent="1">
          <mxGeometry x="374" y="430" width="70" height="30" as="geometry" />
        </mxCell>
        <mxCell id="BgDW5pC34_x2A9uitIVd-58" value="间内互动" style="text;html=1;align=center;verticalAlign=middle;resizable=0;points=[];autosize=1;strokeColor=none;fillColor=none;fontSize=10;" vertex="1" parent="1">
          <mxGeometry x="699.89" y="430" width="70" height="30" as="geometry" />
        </mxCell>
        <mxCell id="BgDW5pC34_x2A9uitIVd-59" value="&lt;span style=&quot;font-size: 16px ; font-weight: 700&quot;&gt;直播长连接&lt;/span&gt;" style="rounded=0;whiteSpace=wrap;html=1;fillColor=#E6E6E6;" vertex="1" parent="1">
          <mxGeometry x="671.5" y="180" width="138.5" height="50" as="geometry" />
        </mxCell>
        <mxCell id="BgDW5pC34_x2A9uitIVd-60" value="" style="endArrow=classic;html=1;rounded=1;strokeWidth=3;exitX=0.5;exitY=1;exitDx=0;exitDy=0;edgeStyle=orthogonalEdgeStyle;" edge="1" parent="1" source="BgDW5pC34_x2A9uitIVd-59">
          <mxGeometry x="-0.0532" y="-10" width="50" height="50" relative="1" as="geometry">
            <mxPoint x="740" y="340" as="sourcePoint" />
            <mxPoint x="530" y="960" as="targetPoint" />
            <Array as="points">
              <mxPoint x="741" y="350" />
              <mxPoint x="880" y="350" />
              <mxPoint x="880" y="930" />
              <mxPoint x="530" y="930" />
            </Array>
            <mxPoint as="offset" />
          </mxGeometry>
        </mxCell>
        <mxCell id="BgDW5pC34_x2A9uitIVd-61" value="" style="edgeStyle=orthogonalEdgeStyle;rounded=0;orthogonalLoop=1;jettySize=auto;html=1;fontSize=16;fontColor=#FFFFFF;exitX=0.5;exitY=1;exitDx=0;exitDy=0;exitPerimeter=0;strokeWidth=3;" edge="1" parent="1" source="BgDW5pC34_x2A9uitIVd-19" target="BgDW5pC34_x2A9uitIVd-59">
          <mxGeometry relative="1" as="geometry">
            <mxPoint x="540" y="122" as="sourcePoint" />
            <mxPoint x="435" y="190" as="targetPoint" />
          </mxGeometry>
        </mxCell>
        <mxCell id="BgDW5pC34_x2A9uitIVd-62" value="无 IO 配置下发" style="rounded=0;whiteSpace=wrap;html=1;fontSize=8;" vertex="1" parent="1">
          <mxGeometry x="455.12" y="528.5" width="92.35" height="27.01" as="geometry" />
        </mxCell>
        <mxCell id="BgDW5pC34_x2A9uitIVd-63" value="有 IO 配置下发" style="rounded=0;whiteSpace=wrap;html=1;fontSize=8;" vertex="1" parent="1">
          <mxGeometry x="456.01" y="559.85" width="92.35" height="27.01" as="geometry" />
        </mxCell>
        <mxCell id="BgDW5pC34_x2A9uitIVd-64" value="延迟配置下发" style="rounded=0;whiteSpace=wrap;html=1;fontSize=8;" vertex="1" parent="1">
          <mxGeometry x="456.01" y="592.13" width="92.35" height="27.01" as="geometry" />
        </mxCell>
        <mxCell id="BgDW5pC34_x2A9uitIVd-65" value="live-core 集群" style="text;html=1;strokeColor=none;fillColor=none;align=center;verticalAlign=middle;whiteSpace=wrap;rounded=0;" vertex="1" parent="1">
          <mxGeometry x="291.5" y="495.5" width="80" height="30" as="geometry" />
        </mxCell>
        <mxCell id="BgDW5pC34_x2A9uitIVd-66" value="live-config 集群" style="text;html=1;strokeColor=none;fillColor=none;align=center;verticalAlign=middle;whiteSpace=wrap;rounded=0;" vertex="1" parent="1">
          <mxGeometry x="473" y="495.5" width="87" height="30" as="geometry" />
        </mxCell>
        <mxCell id="BgDW5pC34_x2A9uitIVd-67" value="" style="rounded=0;whiteSpace=wrap;html=1;" vertex="1" parent="1">
          <mxGeometry x="245.99999999999994" y="660.24" width="140.32" height="170" as="geometry" />
        </mxCell>
        <mxCell id="BgDW5pC34_x2A9uitIVd-68" value="榜单集群" style="rounded=0;whiteSpace=wrap;html=1;fontSize=10;fillColor=#080808;fontColor=#ffffff;" vertex="1" parent="1">
          <mxGeometry x="246.8099999999999" y="660.24" width="80" height="20" as="geometry" />
        </mxCell>
        <mxCell id="BgDW5pC34_x2A9uitIVd-69" value="榜单下发" style="rounded=0;whiteSpace=wrap;html=1;fontSize=8;" vertex="1" parent="1">
          <mxGeometry x="282.79" y="743.23" width="66.73" height="27.01" as="geometry" />
        </mxCell>
        <mxCell id="BgDW5pC34_x2A9uitIVd-70" value="" style="rounded=0;whiteSpace=wrap;html=1;" vertex="1" parent="1">
          <mxGeometry x="434.41999999999996" y="660.24" width="140.32" height="170" as="geometry" />
        </mxCell>
        <mxCell id="BgDW5pC34_x2A9uitIVd-71" value="礼物集群" style="rounded=0;whiteSpace=wrap;html=1;fontSize=10;fillColor=#080808;fontColor=#ffffff;" vertex="1" parent="1">
          <mxGeometry x="435.2299999999999" y="660.24" width="80" height="20" as="geometry" />
        </mxCell>
        <mxCell id="BgDW5pC34_x2A9uitIVd-72" value="礼物 Tab" style="rounded=0;whiteSpace=wrap;html=1;fontSize=8;" vertex="1" parent="1">
          <mxGeometry x="469.21000000000004" y="731" width="66.73" height="27.01" as="geometry" />
        </mxCell>
        <mxCell id="BgDW5pC34_x2A9uitIVd-73" value="live-watching-list 集群" style="text;html=1;strokeColor=none;fillColor=none;align=center;verticalAlign=middle;whiteSpace=wrap;rounded=0;" vertex="1" parent="1">
          <mxGeometry x="254" y="686" width="139" height="30" as="geometry" />
        </mxCell>
        <mxCell id="BgDW5pC34_x2A9uitIVd-74" value="live-gift 集群" style="text;html=1;strokeColor=none;fillColor=none;align=center;verticalAlign=middle;whiteSpace=wrap;rounded=0;" vertex="1" parent="1">
          <mxGeometry x="467" y="686" width="87" height="30" as="geometry" />
        </mxCell>
        <mxCell id="BgDW5pC34_x2A9uitIVd-75" value="礼物面板" style="rounded=0;whiteSpace=wrap;html=1;fontSize=8;" vertex="1" parent="1">
          <mxGeometry x="471.00000000000006" y="773.99" width="66.73" height="27.01" as="geometry" />
        </mxCell>
        <mxCell id="BgDW5pC34_x2A9uitIVd-76" value="audience-interactive 集群" style="text;html=1;strokeColor=none;fillColor=none;align=center;verticalAlign=middle;whiteSpace=wrap;rounded=0;" vertex="1" parent="1">
          <mxGeometry x="668.4" y="500.08000000000004" width="140" height="29.44" as="geometry" />
        </mxCell>
        <mxCell id="BgDW5pC34_x2A9uitIVd-77" value="分享" style="rounded=0;whiteSpace=wrap;html=1;fontSize=8;" vertex="1" parent="1">
          <mxGeometry x="693.1899999999999" y="597.37" width="66.73" height="27.01" as="geometry" />
        </mxCell>
        <mxCell id="BgDW5pC34_x2A9uitIVd-78" value="live-gift-send 集群" style="text;html=1;strokeColor=none;fillColor=none;align=center;verticalAlign=middle;whiteSpace=wrap;rounded=0;" vertex="1" parent="1">
          <mxGeometry x="683.06" y="686" width="106.94" height="30" as="geometry" />
        </mxCell>
        <mxCell id="BgDW5pC34_x2A9uitIVd-79" value="&lt;span style=&quot;font-size: 12px&quot;&gt;&lt;font color=&quot;#000000&quot;&gt;领域B&lt;br&gt;&lt;/font&gt;&lt;/span&gt;&lt;span style=&quot;color: rgb(0, 0, 0); font-size: 12px;&quot;&gt;消费&lt;/span&gt;&lt;span style=&quot;font-size: 12px&quot;&gt;&lt;font color=&quot;#000000&quot;&gt;进房消息&lt;/font&gt;&lt;/span&gt;" style="rounded=0;whiteSpace=wrap;html=1;strokeWidth=1;fillColor=#FFFFFF;fontSize=16;fontColor=#FFFFFF;" vertex="1" parent="1">
          <mxGeometry x="416.5" y="1094" width="90.5" height="40" as="geometry" />
        </mxCell>
        <mxCell id="BgDW5pC34_x2A9uitIVd-80" value="&lt;font color=&quot;#000000&quot;&gt;&lt;span style=&quot;font-size: 12px;&quot;&gt;……&lt;/span&gt;&lt;/font&gt;" style="rounded=0;whiteSpace=wrap;html=1;strokeWidth=1;fillColor=#FFFFFF;fontSize=16;fontColor=#FFFFFF;" vertex="1" parent="1">
          <mxGeometry x="416.5" y="1145" width="90.5" height="40" as="geometry" />
        </mxCell>
        <mxCell id="BgDW5pC34_x2A9uitIVd-81" value="&lt;font color=&quot;#000000&quot;&gt;&lt;span style=&quot;font-size: 12px&quot;&gt;音视频&lt;/span&gt;&lt;/font&gt;" style="rounded=0;whiteSpace=wrap;html=1;strokeWidth=1;fillColor=#CCCCCC;fontSize=16;strokeColor=#666666;fontColor=#333333;" vertex="1" parent="1">
          <mxGeometry x="740.5" y="1145" width="80" height="40" as="geometry" />
        </mxCell>
        <mxCell id="BgDW5pC34_x2A9uitIVd-82" value="" style="rounded=0;whiteSpace=wrap;html=1;fillColor=#dae8fc;strokeColor=#000000;" vertex="1" parent="1">
          <mxGeometry x="105" y="1630" width="390" height="310" as="geometry" />
        </mxCell>
        <mxCell id="BgDW5pC34_x2A9uitIVd-83" value="" style="rounded=0;whiteSpace=wrap;html=1;fillColor=#e1d5e7;strokeColor=#9673a6;" vertex="1" parent="1">
          <mxGeometry x="585" y="1630" width="120" height="310" as="geometry" />
        </mxCell>
        <mxCell id="BgDW5pC34_x2A9uitIVd-84" value="" style="rounded=0;whiteSpace=wrap;html=1;fillColor=#d5e8d4;strokeColor=#82b366;" vertex="1" parent="1">
          <mxGeometry x="105" y="1940" width="600" height="150" as="geometry" />
        </mxCell>
        <mxCell id="BgDW5pC34_x2A9uitIVd-85" value="" style="rounded=0;whiteSpace=wrap;html=1;fillColor=#f5f5f5;strokeColor=#666666;fontColor=#333333;" vertex="1" parent="1">
          <mxGeometry x="105" y="2090" width="600" height="85" as="geometry" />
        </mxCell>
        <mxCell id="BgDW5pC34_x2A9uitIVd-86" value="CPU" style="rounded=0;whiteSpace=wrap;html=1;fontSize=16;fillColor=#eeeeee;strokeColor=#36393d;" vertex="1" parent="1">
          <mxGeometry x="235" y="2112.5" width="90" height="45" as="geometry" />
        </mxCell>
        <mxCell id="BgDW5pC34_x2A9uitIVd-87" value="内存" style="rounded=0;whiteSpace=wrap;html=1;fontSize=16;fillColor=#eeeeee;strokeColor=#36393d;" vertex="1" parent="1">
          <mxGeometry x="349" y="2112.5" width="90" height="45" as="geometry" />
        </mxCell>
        <mxCell id="BgDW5pC34_x2A9uitIVd-88" value="带宽" style="rounded=0;whiteSpace=wrap;html=1;fontSize=16;fillColor=#eeeeee;strokeColor=#36393d;" vertex="1" parent="1">
          <mxGeometry x="455" y="2112.5" width="90" height="45" as="geometry" />
        </mxCell>
        <mxCell id="BgDW5pC34_x2A9uitIVd-89" value="磁盘" style="rounded=0;whiteSpace=wrap;html=1;fontSize=16;fillColor=#eeeeee;strokeColor=#36393d;" vertex="1" parent="1">
          <mxGeometry x="565" y="2112.5" width="90" height="45" as="geometry" />
        </mxCell>
        <mxCell id="BgDW5pC34_x2A9uitIVd-90" value="物理资源" style="text;html=1;align=center;verticalAlign=middle;resizable=0;points=[];autosize=1;strokeColor=none;fillColor=none;fontSize=16;fontColor=#330000;" vertex="1" parent="1">
          <mxGeometry x="105" y="2120" width="90" height="30" as="geometry" />
        </mxCell>
        <mxCell id="BgDW5pC34_x2A9uitIVd-91" value="操作系统/容器" style="rounded=0;whiteSpace=wrap;html=1;fillColor=none;" vertex="1" parent="1">
          <mxGeometry x="195" y="2040" width="510" height="50" as="geometry" />
        </mxCell>
        <mxCell id="BgDW5pC34_x2A9uitIVd-92" value="JVM 虚拟机" style="rounded=0;whiteSpace=wrap;html=1;fillColor=none;" vertex="1" parent="1">
          <mxGeometry x="195" y="1990" width="510" height="50" as="geometry" />
        </mxCell>
        <mxCell id="BgDW5pC34_x2A9uitIVd-93" value="Tomcat 容器" style="rounded=0;whiteSpace=wrap;html=1;fillColor=none;" vertex="1" parent="1">
          <mxGeometry x="195" y="1940" width="510" height="50" as="geometry" />
        </mxCell>
        <mxCell id="BgDW5pC34_x2A9uitIVd-94" value="系统软件" style="text;html=1;align=center;verticalAlign=middle;resizable=0;points=[];autosize=1;strokeColor=none;fillColor=none;fontSize=16;fontColor=#330000;fontStyle=1" vertex="1" parent="1">
          <mxGeometry x="105" y="2000" width="90" height="30" as="geometry" />
        </mxCell>
        <mxCell id="BgDW5pC34_x2A9uitIVd-95" value="Kafka Client" style="rounded=0;whiteSpace=wrap;html=1;fillColor=none;" vertex="1" parent="1">
          <mxGeometry x="585" y="1820" width="120" height="30" as="geometry" />
        </mxCell>
        <mxCell id="BgDW5pC34_x2A9uitIVd-96" value="Ktrace" style="rounded=0;whiteSpace=wrap;html=1;fillColor=none;" vertex="1" parent="1">
          <mxGeometry x="585" y="1910" width="120" height="30" as="geometry" />
        </mxCell>
        <mxCell id="BgDW5pC34_x2A9uitIVd-97" value="Memcached Client" style="rounded=0;whiteSpace=wrap;html=1;fillColor=none;" vertex="1" parent="1">
          <mxGeometry x="585" y="1790" width="120" height="30" as="geometry" />
        </mxCell>
        <mxCell id="BgDW5pC34_x2A9uitIVd-98" value="序列化工具" style="rounded=0;whiteSpace=wrap;html=1;fillColor=none;" vertex="1" parent="1">
          <mxGeometry x="585" y="1880" width="120" height="30" as="geometry" />
        </mxCell>
        <mxCell id="BgDW5pC34_x2A9uitIVd-99" value="Redis Client" style="rounded=0;whiteSpace=wrap;html=1;fillColor=none;" vertex="1" parent="1">
          <mxGeometry x="585" y="1760" width="120" height="30" as="geometry" />
        </mxCell>
        <mxCell id="BgDW5pC34_x2A9uitIVd-100" value="Perf 工具类" style="rounded=0;whiteSpace=wrap;html=1;fillColor=none;" vertex="1" parent="1">
          <mxGeometry x="585" y="1850" width="120" height="30" as="geometry" />
        </mxCell>
        <mxCell id="BgDW5pC34_x2A9uitIVd-101" value="中间件类库" style="text;html=1;align=center;verticalAlign=middle;resizable=0;points=[];autosize=1;strokeColor=none;fillColor=none;fontSize=16;fontColor=#330000;fontStyle=1" vertex="1" parent="1">
          <mxGeometry x="595" y="1660" width="100" height="30" as="geometry" />
        </mxCell>
        <mxCell id="BgDW5pC34_x2A9uitIVd-102" value="" style="shape=flexArrow;endArrow=classic;html=1;rounded=0;fontSize=16;fontColor=#330000;exitX=1;exitY=0.5;exitDx=0;exitDy=0;entryX=0;entryY=0.5;entryDx=0;entryDy=0;width=18;endSize=7.886666666666667;" edge="1" parent="1">
          <mxGeometry width="50" height="50" relative="1" as="geometry">
            <mxPoint x="501" y="1775" as="sourcePoint" />
            <mxPoint x="581" y="1775" as="targetPoint" />
          </mxGeometry>
        </mxCell>
        <mxCell id="BgDW5pC34_x2A9uitIVd-103" value="&lt;font style=&quot;font-size: 12px;&quot;&gt;依赖&lt;/font&gt;" style="edgeLabel;html=1;align=center;verticalAlign=middle;resizable=0;points=[];fontSize=16;fontColor=#330000;labelBackgroundColor=none;" vertex="1" connectable="0" parent="BgDW5pC34_x2A9uitIVd-102">
          <mxGeometry x="-0.0917" relative="1" as="geometry">
            <mxPoint y="-1" as="offset" />
          </mxGeometry>
        </mxCell>
        <mxCell id="BgDW5pC34_x2A9uitIVd-104" value="业务逻辑" style="text;html=1;align=center;verticalAlign=middle;resizable=0;points=[];autosize=1;strokeColor=none;fillColor=none;fontSize=16;fontColor=#330000;fontStyle=1" vertex="1" parent="1">
          <mxGeometry x="105" y="1770" width="90" height="30" as="geometry" />
        </mxCell>
        <mxCell id="BgDW5pC34_x2A9uitIVd-105" value="" style="shape=curlyBracket;whiteSpace=wrap;html=1;rounded=1;flipH=1;labelPosition=right;verticalLabelPosition=middle;align=left;verticalAlign=middle;labelBackgroundColor=none;fontSize=12;fontColor=#330000;fillColor=none;" vertex="1" parent="1">
          <mxGeometry x="715" y="1640" width="20" height="290" as="geometry" />
        </mxCell>
        <mxCell id="BgDW5pC34_x2A9uitIVd-106" value="基于火焰图&lt;br&gt;分析性能瓶颈&lt;br&gt;优化性能" style="text;html=1;align=center;verticalAlign=middle;resizable=0;points=[];autosize=1;strokeColor=none;fillColor=none;fontSize=12;fontColor=#330000;" vertex="1" parent="1">
          <mxGeometry x="735" y="1750" width="100" height="60" as="geometry" />
        </mxCell>
        <mxCell id="BgDW5pC34_x2A9uitIVd-107" value="" style="shape=curlyBracket;whiteSpace=wrap;html=1;rounded=1;flipH=1;labelPosition=right;verticalLabelPosition=middle;align=left;verticalAlign=middle;labelBackgroundColor=none;fontSize=12;fontColor=#330000;fillColor=none;" vertex="1" parent="1">
          <mxGeometry x="715" y="1970" width="20" height="100" as="geometry" />
        </mxCell>
        <mxCell id="BgDW5pC34_x2A9uitIVd-108" value="&lt;br&gt;参数配置调优、&lt;br&gt;软件版本升级" style="text;html=1;align=center;verticalAlign=middle;resizable=0;points=[];autosize=1;strokeColor=none;fillColor=none;fontSize=12;fontColor=#330000;" vertex="1" parent="1">
          <mxGeometry x="732" y="2000" width="110" height="60" as="geometry" />
        </mxCell>
        <mxCell id="BgDW5pC34_x2A9uitIVd-109" value="特定&lt;br&gt;业务逻辑" style="rounded=0;whiteSpace=wrap;html=1;fillColor=#dae8fc;strokeColor=#33001A;" vertex="1" parent="1">
          <mxGeometry x="195" y="1870" width="80" height="70" as="geometry" />
        </mxCell>
        <mxCell id="BgDW5pC34_x2A9uitIVd-110" value="其他拦截器" style="rounded=0;whiteSpace=wrap;html=1;fillColor=none;" vertex="1" parent="1">
          <mxGeometry x="275" y="1840" width="220" height="30" as="geometry" />
        </mxCell>
        <mxCell id="BgDW5pC34_x2A9uitIVd-111" value="反爬" style="rounded=0;whiteSpace=wrap;html=1;fillColor=none;" vertex="1" parent="1">
          <mxGeometry x="275" y="1810" width="220" height="30" as="geometry" />
        </mxCell>
        <mxCell id="BgDW5pC34_x2A9uitIVd-112" value="社交封禁拦截" style="rounded=0;whiteSpace=wrap;html=1;fillColor=none;" vertex="1" parent="1">
          <mxGeometry x="275" y="1780" width="220" height="30" as="geometry" />
        </mxCell>
        <mxCell id="BgDW5pC34_x2A9uitIVd-113" value="通用拦截器&lt;br&gt;（Interceptor）" style="rounded=0;whiteSpace=wrap;html=1;fillColor=none;" vertex="1" parent="1">
          <mxGeometry x="195" y="1750" width="80" height="120" as="geometry" />
        </mxCell>
        <mxCell id="BgDW5pC34_x2A9uitIVd-114" value="Token 校验" style="rounded=0;whiteSpace=wrap;html=1;fillColor=none;" vertex="1" parent="1">
          <mxGeometry x="275" y="1750" width="220" height="30" as="geometry" />
        </mxCell>
        <mxCell id="BgDW5pC34_x2A9uitIVd-115" value="其他过滤器" style="rounded=0;whiteSpace=wrap;html=1;fillColor=none;" vertex="1" parent="1">
          <mxGeometry x="275" y="1720" width="220" height="30" as="geometry" />
        </mxCell>
        <mxCell id="BgDW5pC34_x2A9uitIVd-116" value="日志上报" style="rounded=0;whiteSpace=wrap;html=1;fillColor=none;" vertex="1" parent="1">
          <mxGeometry x="275" y="1690" width="220" height="30" as="geometry" />
        </mxCell>
        <mxCell id="BgDW5pC34_x2A9uitIVd-117" value="验签" style="rounded=0;whiteSpace=wrap;html=1;fillColor=none;" vertex="1" parent="1">
          <mxGeometry x="275" y="1660" width="220" height="30" as="geometry" />
        </mxCell>
        <mxCell id="BgDW5pC34_x2A9uitIVd-118" value="请求解析" style="rounded=0;whiteSpace=wrap;html=1;fillColor=none;" vertex="1" parent="1">
          <mxGeometry x="275" y="1630" width="220" height="30" as="geometry" />
        </mxCell>
        <mxCell id="BgDW5pC34_x2A9uitIVd-119" value="通用过滤器&lt;br&gt;（Filter）" style="rounded=0;whiteSpace=wrap;html=1;fillColor=none;" vertex="1" parent="1">
          <mxGeometry x="195" y="1630" width="80" height="120" as="geometry" />
        </mxCell>
        <mxCell id="BgDW5pC34_x2A9uitIVd-120" value="参数校验、逻辑计算" style="rounded=0;whiteSpace=wrap;html=1;fillColor=none;" vertex="1" parent="1">
          <mxGeometry x="275" y="1870" width="220" height="40" as="geometry" />
        </mxCell>
        <mxCell id="BgDW5pC34_x2A9uitIVd-121" value="结果组装" style="rounded=0;whiteSpace=wrap;html=1;fillColor=none;" vertex="1" parent="1">
          <mxGeometry x="275" y="1910" width="220" height="30" as="geometry" />
        </mxCell>
        <mxCell id="BgDW5pC34_x2A9uitIVd-122" value="" style="endArrow=none;html=1;rounded=0;entryX=0;entryY=1;entryDx=0;entryDy=0;" edge="1" parent="1" target="BgDW5pC34_x2A9uitIVd-91">
          <mxGeometry width="50" height="50" relative="1" as="geometry">
            <mxPoint x="195" y="2170" as="sourcePoint" />
            <mxPoint x="95" y="2120" as="targetPoint" />
          </mxGeometry>
        </mxCell>
        <mxCell id="BgDW5pC34_x2A9uitIVd-123" value="" style="rounded=0;whiteSpace=wrap;html=1;strokeWidth=4;" vertex="1" parent="1">
          <mxGeometry x="-160" y="3020" width="1220" height="520" as="geometry" />
        </mxCell>
        <mxCell id="BgDW5pC34_x2A9uitIVd-124" value="" style="rounded=1;whiteSpace=wrap;html=1;fontSize=16;fillColor=#f5f5f5;strokeColor=#666666;fontColor=#333333;" vertex="1" parent="1">
          <mxGeometry x="434.48" y="3030" width="221.04" height="70" as="geometry" />
        </mxCell>
        <mxCell id="BgDW5pC34_x2A9uitIVd-125" value="" style="edgeStyle=orthogonalEdgeStyle;rounded=0;orthogonalLoop=1;jettySize=auto;html=1;" edge="1" parent="1" source="BgDW5pC34_x2A9uitIVd-126" target="BgDW5pC34_x2A9uitIVd-186">
          <mxGeometry relative="1" as="geometry" />
        </mxCell>
        <mxCell id="BgDW5pC34_x2A9uitIVd-126" value="" style="rounded=1;whiteSpace=wrap;html=1;fontSize=16;fillColor=#f5f5f5;strokeColor=#666666;fontColor=#333333;" vertex="1" parent="1">
          <mxGeometry x="256.98" y="3140.98" width="570" height="359.02" as="geometry" />
        </mxCell>
        <mxCell id="BgDW5pC34_x2A9uitIVd-127" value="" style="edgeStyle=orthogonalEdgeStyle;rounded=0;orthogonalLoop=1;jettySize=auto;html=1;fontSize=16;" edge="1" parent="1" source="BgDW5pC34_x2A9uitIVd-128" target="BgDW5pC34_x2A9uitIVd-172">
          <mxGeometry relative="1" as="geometry" />
        </mxCell>
        <mxCell id="BgDW5pC34_x2A9uitIVd-128" value="" style="rounded=0;whiteSpace=wrap;html=1;fontSize=16;" vertex="1" parent="1">
          <mxGeometry x="320" y="3180.9799999999996" width="130" height="290" as="geometry" />
        </mxCell>
        <mxCell id="BgDW5pC34_x2A9uitIVd-129" value="" style="rounded=0;whiteSpace=wrap;html=1;strokeWidth=4;" vertex="1" parent="1">
          <mxGeometry x="-160" y="2490" width="1000" height="460" as="geometry" />
        </mxCell>
        <mxCell id="BgDW5pC34_x2A9uitIVd-130" value="&lt;font style=&quot;font-size: 16px&quot;&gt;直播长链接&lt;/font&gt;" style="rounded=0;whiteSpace=wrap;html=1;strokeWidth=4;" vertex="1" parent="1">
          <mxGeometry x="870" y="2490" width="190" height="460" as="geometry" />
        </mxCell>
        <mxCell id="BgDW5pC34_x2A9uitIVd-131" value="" style="rounded=0;whiteSpace=wrap;html=1;fontSize=16;" vertex="1" parent="1">
          <mxGeometry x="-130" y="2519" width="950" height="100" as="geometry" />
        </mxCell>
        <mxCell id="BgDW5pC34_x2A9uitIVd-132" value="" style="rounded=0;whiteSpace=wrap;html=1;fontSize=16;" vertex="1" parent="1">
          <mxGeometry x="-120" y="2719" width="200" height="200" as="geometry" />
        </mxCell>
        <mxCell id="BgDW5pC34_x2A9uitIVd-133" value="" style="endArrow=none;html=1;exitX=0;exitY=0.25;exitDx=0;exitDy=0;entryX=1;entryY=0.25;entryDx=0;entryDy=0;fontSize=16;" edge="1" parent="1" source="BgDW5pC34_x2A9uitIVd-132" target="BgDW5pC34_x2A9uitIVd-132">
          <mxGeometry width="50" height="50" relative="1" as="geometry">
            <mxPoint x="740" y="3070" as="sourcePoint" />
            <mxPoint x="790" y="3020" as="targetPoint" />
          </mxGeometry>
        </mxCell>
        <mxCell id="BgDW5pC34_x2A9uitIVd-134" value="" style="rounded=0;whiteSpace=wrap;html=1;fontSize=16;" vertex="1" parent="1">
          <mxGeometry x="120" y="2719" width="200" height="200" as="geometry" />
        </mxCell>
        <mxCell id="BgDW5pC34_x2A9uitIVd-135" value="" style="endArrow=none;html=1;exitX=0;exitY=0.25;exitDx=0;exitDy=0;entryX=1;entryY=0.25;entryDx=0;entryDy=0;fontSize=16;" edge="1" parent="1" source="BgDW5pC34_x2A9uitIVd-134" target="BgDW5pC34_x2A9uitIVd-134">
          <mxGeometry width="50" height="50" relative="1" as="geometry">
            <mxPoint x="991" y="3070" as="sourcePoint" />
            <mxPoint x="1041" y="3020" as="targetPoint" />
          </mxGeometry>
        </mxCell>
        <mxCell id="BgDW5pC34_x2A9uitIVd-136" value="" style="rounded=0;whiteSpace=wrap;html=1;fontSize=16;" vertex="1" parent="1">
          <mxGeometry x="360" y="2719" width="200" height="200" as="geometry" />
        </mxCell>
        <mxCell id="BgDW5pC34_x2A9uitIVd-137" value="" style="endArrow=none;html=1;exitX=0;exitY=0.25;exitDx=0;exitDy=0;entryX=1;entryY=0.25;entryDx=0;entryDy=0;fontSize=16;" edge="1" parent="1" source="BgDW5pC34_x2A9uitIVd-136" target="BgDW5pC34_x2A9uitIVd-136">
          <mxGeometry width="50" height="50" relative="1" as="geometry">
            <mxPoint x="1271" y="3070" as="sourcePoint" />
            <mxPoint x="1321" y="3020" as="targetPoint" />
          </mxGeometry>
        </mxCell>
        <mxCell id="BgDW5pC34_x2A9uitIVd-138" value="" style="rounded=0;whiteSpace=wrap;html=1;fontSize=16;" vertex="1" parent="1">
          <mxGeometry x="600" y="2719" width="200" height="200" as="geometry" />
        </mxCell>
        <mxCell id="BgDW5pC34_x2A9uitIVd-139" value="" style="endArrow=none;html=1;exitX=0;exitY=0.25;exitDx=0;exitDy=0;entryX=1;entryY=0.25;entryDx=0;entryDy=0;fontSize=16;" edge="1" parent="1" source="BgDW5pC34_x2A9uitIVd-138" target="BgDW5pC34_x2A9uitIVd-138">
          <mxGeometry width="50" height="50" relative="1" as="geometry">
            <mxPoint x="1471" y="3070" as="sourcePoint" />
            <mxPoint x="1521" y="3020" as="targetPoint" />
          </mxGeometry>
        </mxCell>
        <mxCell id="BgDW5pC34_x2A9uitIVd-140" value="" style="rounded=0;orthogonalLoop=1;jettySize=auto;html=1;fontSize=16;entryX=0;entryY=0.5;entryDx=0;entryDy=0;" edge="1" parent="1" source="BgDW5pC34_x2A9uitIVd-142" target="BgDW5pC34_x2A9uitIVd-128">
          <mxGeometry relative="1" as="geometry" />
        </mxCell>
        <mxCell id="BgDW5pC34_x2A9uitIVd-141" value="写入" style="edgeLabel;html=1;align=center;verticalAlign=middle;resizable=0;points=[];" vertex="1" connectable="0" parent="BgDW5pC34_x2A9uitIVd-140">
          <mxGeometry x="0.0457" relative="1" as="geometry">
            <mxPoint x="-39" as="offset" />
          </mxGeometry>
        </mxCell>
        <mxCell id="BgDW5pC34_x2A9uitIVd-142" value="Consumer" style="rounded=1;whiteSpace=wrap;html=1;fontSize=16;fillColor=#f5f5f5;strokeColor=#666666;fontColor=#333333;" vertex="1" parent="1">
          <mxGeometry x="80" y="3140" width="90" height="370" as="geometry" />
        </mxCell>
        <mxCell id="BgDW5pC34_x2A9uitIVd-143" value="&lt;font style=&quot;font-size: 24px&quot;&gt;Nginx&lt;/font&gt;" style="text;html=1;strokeColor=none;fillColor=none;align=center;verticalAlign=middle;whiteSpace=wrap;rounded=0;fontSize=28;" vertex="1" parent="1">
          <mxGeometry x="-250" y="2550" width="40" height="20" as="geometry" />
        </mxCell>
        <mxCell id="BgDW5pC34_x2A9uitIVd-144" value="" style="endArrow=classic;html=1;exitX=0.25;exitY=1;exitDx=0;exitDy=0;entryX=0.5;entryY=0;entryDx=0;entryDy=0;fontSize=16;" edge="1" parent="1" source="BgDW5pC34_x2A9uitIVd-131" target="BgDW5pC34_x2A9uitIVd-132">
          <mxGeometry width="50" height="50" relative="1" as="geometry">
            <mxPoint x="110" y="2790" as="sourcePoint" />
            <mxPoint x="160" y="2740" as="targetPoint" />
          </mxGeometry>
        </mxCell>
        <mxCell id="BgDW5pC34_x2A9uitIVd-145" value="" style="endArrow=classic;html=1;exitX=0.25;exitY=1;exitDx=0;exitDy=0;entryX=0.5;entryY=0;entryDx=0;entryDy=0;fontSize=16;" edge="1" parent="1" source="BgDW5pC34_x2A9uitIVd-131" target="BgDW5pC34_x2A9uitIVd-134">
          <mxGeometry width="50" height="50" relative="1" as="geometry">
            <mxPoint x="110" y="2790" as="sourcePoint" />
            <mxPoint x="160" y="2740" as="targetPoint" />
          </mxGeometry>
        </mxCell>
        <mxCell id="BgDW5pC34_x2A9uitIVd-146" value="" style="endArrow=classic;html=1;exitX=0.75;exitY=1;exitDx=0;exitDy=0;entryX=0.5;entryY=0;entryDx=0;entryDy=0;fontSize=16;" edge="1" parent="1" source="BgDW5pC34_x2A9uitIVd-131" target="BgDW5pC34_x2A9uitIVd-136">
          <mxGeometry width="50" height="50" relative="1" as="geometry">
            <mxPoint x="430" y="2740" as="sourcePoint" />
            <mxPoint x="480" y="2690" as="targetPoint" />
          </mxGeometry>
        </mxCell>
        <mxCell id="BgDW5pC34_x2A9uitIVd-147" value="" style="endArrow=classic;html=1;exitX=0.75;exitY=1;exitDx=0;exitDy=0;entryX=0.545;entryY=0.005;entryDx=0;entryDy=0;entryPerimeter=0;fontSize=16;" edge="1" parent="1" source="BgDW5pC34_x2A9uitIVd-131" target="BgDW5pC34_x2A9uitIVd-138">
          <mxGeometry width="50" height="50" relative="1" as="geometry">
            <mxPoint x="430" y="2740" as="sourcePoint" />
            <mxPoint x="480" y="2690" as="targetPoint" />
          </mxGeometry>
        </mxCell>
        <mxCell id="BgDW5pC34_x2A9uitIVd-148" value="&lt;font style=&quot;font-size: 24px&quot;&gt;API 集群&lt;br&gt;&lt;/font&gt;" style="text;html=1;strokeColor=none;fillColor=none;align=center;verticalAlign=middle;whiteSpace=wrap;rounded=0;fontSize=28;" vertex="1" parent="1">
          <mxGeometry x="-290" y="2800" width="100" height="20" as="geometry" />
        </mxCell>
        <mxCell id="BgDW5pC34_x2A9uitIVd-149" value="&lt;font style=&quot;font-size: 24px&quot;&gt;后台计算任务&lt;/font&gt;" style="text;html=1;strokeColor=none;fillColor=none;align=center;verticalAlign=middle;whiteSpace=wrap;rounded=0;fontSize=28;" vertex="1" parent="1">
          <mxGeometry x="-330" y="3235" width="150" height="20" as="geometry" />
        </mxCell>
        <mxCell id="BgDW5pC34_x2A9uitIVd-150" value="下拉榜单" style="text;html=1;strokeColor=none;fillColor=none;align=center;verticalAlign=middle;whiteSpace=wrap;rounded=0;fontSize=16;" vertex="1" parent="1">
          <mxGeometry x="90" y="2530" width="70" height="20" as="geometry" />
        </mxCell>
        <mxCell id="BgDW5pC34_x2A9uitIVd-151" value="/topUsers" style="text;html=1;strokeColor=none;fillColor=none;align=center;verticalAlign=middle;whiteSpace=wrap;rounded=0;fontSize=16;" vertex="1" parent="1">
          <mxGeometry x="-40" y="2580" width="40" height="20" as="geometry" />
        </mxCell>
        <mxCell id="BgDW5pC34_x2A9uitIVd-152" value="/topUsers/byAuthor" style="text;html=1;strokeColor=none;fillColor=none;align=center;verticalAlign=middle;whiteSpace=wrap;rounded=0;fontSize=16;" vertex="1" parent="1">
          <mxGeometry x="210" y="2580" width="40" height="20" as="geometry" />
        </mxCell>
        <mxCell id="BgDW5pC34_x2A9uitIVd-153" value="/users/v3" style="text;html=1;strokeColor=none;fillColor=none;align=center;verticalAlign=middle;whiteSpace=wrap;rounded=0;fontSize=16;" vertex="1" parent="1">
          <mxGeometry x="550" y="2580" width="70" height="20" as="geometry" />
        </mxCell>
        <mxCell id="BgDW5pC34_x2A9uitIVd-154" value="麦序" style="text;html=1;strokeColor=none;fillColor=none;align=center;verticalAlign=middle;whiteSpace=wrap;rounded=0;fontSize=16;" vertex="1" parent="1">
          <mxGeometry x="550" y="2530" width="70" height="20" as="geometry" />
        </mxCell>
        <mxCell id="BgDW5pC34_x2A9uitIVd-155" value="" style="endArrow=classic;html=1;entryX=0.25;entryY=0;entryDx=0;entryDy=0;fontSize=16;" edge="1" parent="1" target="BgDW5pC34_x2A9uitIVd-129">
          <mxGeometry width="50" height="50" relative="1" as="geometry">
            <mxPoint x="90" y="2400" as="sourcePoint" />
            <mxPoint x="160" y="2480" as="targetPoint" />
          </mxGeometry>
        </mxCell>
        <mxCell id="BgDW5pC34_x2A9uitIVd-156" value="拉取" style="text;html=1;align=center;verticalAlign=middle;resizable=0;points=[];fontSize=16;" vertex="1" connectable="0" parent="BgDW5pC34_x2A9uitIVd-155">
          <mxGeometry x="-0.235" y="-1" relative="1" as="geometry">
            <mxPoint y="1" as="offset" />
          </mxGeometry>
        </mxCell>
        <mxCell id="BgDW5pC34_x2A9uitIVd-157" value="" style="endArrow=classic;html=1;entryX=0.744;entryY=0;entryDx=0;entryDy=0;entryPerimeter=0;fontSize=16;" edge="1" parent="1" target="BgDW5pC34_x2A9uitIVd-129">
          <mxGeometry width="50" height="50" relative="1" as="geometry">
            <mxPoint x="584" y="2400" as="sourcePoint" />
            <mxPoint x="520" y="2560" as="targetPoint" />
          </mxGeometry>
        </mxCell>
        <mxCell id="BgDW5pC34_x2A9uitIVd-158" value="拉取" style="text;html=1;align=center;verticalAlign=middle;resizable=0;points=[];fontSize=16;" vertex="1" connectable="0" parent="BgDW5pC34_x2A9uitIVd-157">
          <mxGeometry x="-0.0888" y="2" relative="1" as="geometry">
            <mxPoint y="-1" as="offset" />
          </mxGeometry>
        </mxCell>
        <mxCell id="BgDW5pC34_x2A9uitIVd-159" value="API" style="text;html=1;strokeColor=none;fillColor=none;align=center;verticalAlign=middle;whiteSpace=wrap;rounded=0;fontSize=16;" vertex="1" parent="1">
          <mxGeometry x="-80" y="2730" width="110" height="20" as="geometry" />
        </mxCell>
        <mxCell id="BgDW5pC34_x2A9uitIVd-160" value="API" style="text;html=1;strokeColor=none;fillColor=none;align=center;verticalAlign=middle;whiteSpace=wrap;rounded=0;fontSize=16;" vertex="1" parent="1">
          <mxGeometry x="170" y="2730" width="110" height="20" as="geometry" />
        </mxCell>
        <mxCell id="BgDW5pC34_x2A9uitIVd-161" value="API" style="text;html=1;strokeColor=none;fillColor=none;align=center;verticalAlign=middle;whiteSpace=wrap;rounded=0;fontSize=16;" vertex="1" parent="1">
          <mxGeometry x="405" y="2730" width="110" height="20" as="geometry" />
        </mxCell>
        <mxCell id="BgDW5pC34_x2A9uitIVd-162" value="API" style="text;html=1;strokeColor=none;fillColor=none;align=center;verticalAlign=middle;whiteSpace=wrap;rounded=0;fontSize=16;" vertex="1" parent="1">
          <mxGeometry x="645" y="2730" width="110" height="20" as="geometry" />
        </mxCell>
        <mxCell id="BgDW5pC34_x2A9uitIVd-163" value="分榜单逻辑" style="text;html=1;strokeColor=none;fillColor=none;align=center;verticalAlign=middle;whiteSpace=wrap;rounded=0;fontSize=16;" vertex="1" parent="1">
          <mxGeometry x="-75" y="2810" width="105" height="20" as="geometry" />
        </mxCell>
        <mxCell id="BgDW5pC34_x2A9uitIVd-164" value="localCache" style="text;html=1;strokeColor=none;fillColor=none;align=center;verticalAlign=middle;whiteSpace=wrap;rounded=0;fontSize=16;" vertex="1" parent="1">
          <mxGeometry x="-75" y="2855" width="105" height="20" as="geometry" />
        </mxCell>
        <mxCell id="BgDW5pC34_x2A9uitIVd-165" value="分榜单逻辑" style="text;html=1;strokeColor=none;fillColor=none;align=center;verticalAlign=middle;whiteSpace=wrap;rounded=0;fontSize=16;" vertex="1" parent="1">
          <mxGeometry x="167.5" y="2809" width="105" height="20" as="geometry" />
        </mxCell>
        <mxCell id="BgDW5pC34_x2A9uitIVd-166" value="localCache" style="text;html=1;strokeColor=none;fillColor=none;align=center;verticalAlign=middle;whiteSpace=wrap;rounded=0;fontSize=16;" vertex="1" parent="1">
          <mxGeometry x="172.5" y="2855" width="105" height="20" as="geometry" />
        </mxCell>
        <mxCell id="BgDW5pC34_x2A9uitIVd-167" value="localCache" style="text;html=1;strokeColor=none;fillColor=none;align=center;verticalAlign=middle;whiteSpace=wrap;rounded=0;fontSize=16;" vertex="1" parent="1">
          <mxGeometry x="410" y="2840" width="105" height="20" as="geometry" />
        </mxCell>
        <mxCell id="BgDW5pC34_x2A9uitIVd-168" value="localCache" style="text;html=1;strokeColor=none;fillColor=none;align=center;verticalAlign=middle;whiteSpace=wrap;rounded=0;fontSize=16;" vertex="1" parent="1">
          <mxGeometry x="650" y="2840" width="105" height="20" as="geometry" />
        </mxCell>
        <mxCell id="BgDW5pC34_x2A9uitIVd-169" value="" style="endArrow=classic;html=1;fontSize=16;exitX=0.5;exitY=0;exitDx=0;exitDy=0;" edge="1" parent="1" source="BgDW5pC34_x2A9uitIVd-130">
          <mxGeometry width="50" height="50" relative="1" as="geometry">
            <mxPoint x="940" y="2830" as="sourcePoint" />
            <mxPoint x="965" y="2400" as="targetPoint" />
          </mxGeometry>
        </mxCell>
        <mxCell id="BgDW5pC34_x2A9uitIVd-170" value="推送" style="text;html=1;align=center;verticalAlign=middle;resizable=0;points=[];fontSize=16;" vertex="1" connectable="0" parent="BgDW5pC34_x2A9uitIVd-169">
          <mxGeometry x="-0.025" y="-3" relative="1" as="geometry">
            <mxPoint y="1" as="offset" />
          </mxGeometry>
        </mxCell>
        <mxCell id="BgDW5pC34_x2A9uitIVd-171" value="" style="edgeStyle=orthogonalEdgeStyle;rounded=0;orthogonalLoop=1;jettySize=auto;html=1;fontSize=16;" edge="1" parent="1" source="BgDW5pC34_x2A9uitIVd-172" target="BgDW5pC34_x2A9uitIVd-173">
          <mxGeometry relative="1" as="geometry" />
        </mxCell>
        <mxCell id="BgDW5pC34_x2A9uitIVd-172" value="" style="rounded=0;whiteSpace=wrap;html=1;fontSize=16;" vertex="1" parent="1">
          <mxGeometry x="510.22" y="3180.9799999999996" width="100" height="290" as="geometry" />
        </mxCell>
        <mxCell id="BgDW5pC34_x2A9uitIVd-173" value="userId&lt;br style=&quot;font-size: 16px;&quot;&gt;WithSortCost&lt;br style=&quot;font-size: 16px;&quot;&gt;列表" style="rounded=0;whiteSpace=wrap;html=1;fontSize=16;" vertex="1" parent="1">
          <mxGeometry x="672.5" y="3180.9799999999996" width="100" height="290" as="geometry" />
        </mxCell>
        <mxCell id="BgDW5pC34_x2A9uitIVd-174" value="风控" style="text;html=1;strokeColor=none;fillColor=none;align=center;verticalAlign=middle;whiteSpace=wrap;rounded=0;fontSize=16;" vertex="1" parent="1">
          <mxGeometry x="540.22" y="3250.9799999999996" width="40" height="20" as="geometry" />
        </mxCell>
        <mxCell id="BgDW5pC34_x2A9uitIVd-175" value="拉黑" style="text;html=1;strokeColor=none;fillColor=none;align=center;verticalAlign=middle;whiteSpace=wrap;rounded=0;fontSize=16;" vertex="1" parent="1">
          <mxGeometry x="540.22" y="3315.9799999999996" width="40" height="20" as="geometry" />
        </mxCell>
        <mxCell id="BgDW5pC34_x2A9uitIVd-176" value="踢人" style="text;html=1;strokeColor=none;fillColor=none;align=center;verticalAlign=middle;whiteSpace=wrap;rounded=0;fontSize=16;" vertex="1" parent="1">
          <mxGeometry x="540.22" y="3370.9799999999996" width="40" height="20" as="geometry" />
        </mxCell>
        <mxCell id="BgDW5pC34_x2A9uitIVd-177" value="1、获取候选列表" style="text;html=1;strokeColor=none;fillColor=none;align=center;verticalAlign=middle;whiteSpace=wrap;rounded=0;fontSize=16;" vertex="1" parent="1">
          <mxGeometry x="312.5" y="3150.9799999999996" width="145" height="20" as="geometry" />
        </mxCell>
        <mxCell id="BgDW5pC34_x2A9uitIVd-178" value="2、过滤" style="text;html=1;strokeColor=none;fillColor=none;align=center;verticalAlign=middle;whiteSpace=wrap;rounded=0;fontSize=16;" vertex="1" parent="1">
          <mxGeometry x="487.72" y="3150.9799999999996" width="145" height="20" as="geometry" />
        </mxCell>
        <mxCell id="BgDW5pC34_x2A9uitIVd-179" value="3、合并" style="text;html=1;strokeColor=none;fillColor=none;align=center;verticalAlign=middle;whiteSpace=wrap;rounded=0;fontSize=16;" vertex="1" parent="1">
          <mxGeometry x="650" y="3150.9799999999996" width="145" height="20" as="geometry" />
        </mxCell>
        <mxCell id="BgDW5pC34_x2A9uitIVd-180" style="edgeStyle=orthogonalEdgeStyle;rounded=0;orthogonalLoop=1;jettySize=auto;html=1;exitX=0.5;exitY=1;exitDx=0;exitDy=0;fontSize=16;" edge="1" parent="1">
          <mxGeometry relative="1" as="geometry">
            <mxPoint x="420" y="3540" as="sourcePoint" />
            <mxPoint x="420" y="3540" as="targetPoint" />
          </mxGeometry>
        </mxCell>
        <mxCell id="BgDW5pC34_x2A9uitIVd-181" value="4、存储" style="text;html=1;strokeColor=none;fillColor=none;align=center;verticalAlign=middle;whiteSpace=wrap;rounded=0;fontSize=16;" vertex="1" parent="1">
          <mxGeometry x="510.52" y="3110" width="145" height="20" as="geometry" />
        </mxCell>
        <mxCell id="BgDW5pC34_x2A9uitIVd-182" value="&lt;span&gt;api服务&lt;/span&gt;" style="rounded=0;whiteSpace=wrap;html=1;strokeWidth=1;fillColor=#000000;fontFamily=Verdana;align=center;fontColor=#FFFFFF;fontStyle=1" vertex="1" parent="1">
          <mxGeometry x="-160" y="2490" width="102" height="25" as="geometry" />
        </mxCell>
        <mxCell id="BgDW5pC34_x2A9uitIVd-183" value="&lt;span&gt;榜单计算服务&lt;/span&gt;" style="rounded=0;whiteSpace=wrap;html=1;strokeWidth=1;fillColor=#000000;fontFamily=Verdana;align=center;fontColor=#FFFFFF;fontStyle=1" vertex="1" parent="1">
          <mxGeometry x="-160" y="3020" width="102" height="25" as="geometry" />
        </mxCell>
        <mxCell id="BgDW5pC34_x2A9uitIVd-184" value="长链接服务" style="rounded=0;whiteSpace=wrap;html=1;strokeWidth=1;fillColor=#000000;fontFamily=Verdana;align=center;fontColor=#FFFFFF;fontStyle=1" vertex="1" parent="1">
          <mxGeometry x="870" y="2490" width="102" height="25" as="geometry" />
        </mxCell>
        <mxCell id="BgDW5pC34_x2A9uitIVd-185" value="" style="outlineConnect=0;fontColor=#232F3E;gradientColor=none;fillColor=#3334B9;strokeColor=none;dashed=0;verticalLabelPosition=bottom;verticalAlign=top;align=center;html=1;fontSize=12;fontStyle=0;aspect=fixed;pointerEvents=1;shape=mxgraph.aws4.elasticache_for_memcached;" vertex="1" parent="1">
          <mxGeometry x="522.1999999999999" y="3040" width="39.57" height="35" as="geometry" />
        </mxCell>
        <mxCell id="BgDW5pC34_x2A9uitIVd-186" value="&lt;span style=&quot;font-family: arial; font-size: 13px;&quot;&gt;liveStreamWatchingList&lt;/span&gt;" style="text;html=1;strokeColor=none;fillColor=none;align=center;verticalAlign=middle;whiteSpace=wrap;rounded=0;strokeWidth=4;" vertex="1" parent="1">
          <mxGeometry x="511.98" y="3070" width="60" height="30" as="geometry" />
        </mxCell>
        <mxCell id="BgDW5pC34_x2A9uitIVd-187" value="&lt;span style=&quot;font-family: arial; font-size: 13px;&quot;&gt;离线挂榜土豪&lt;/span&gt;" style="text;html=1;strokeColor=none;fillColor=none;align=center;verticalAlign=middle;whiteSpace=wrap;rounded=0;strokeWidth=4;" vertex="1" parent="1">
          <mxGeometry x="338.75" y="3240.9799999999996" width="85" height="30" as="geometry" />
        </mxCell>
        <mxCell id="BgDW5pC34_x2A9uitIVd-188" value="&lt;span style=&quot;font-family: arial; font-size: 13px;&quot;&gt;在线土豪&lt;/span&gt;" style="text;html=1;strokeColor=none;fillColor=none;align=center;verticalAlign=middle;whiteSpace=wrap;rounded=0;strokeWidth=4;" vertex="1" parent="1">
          <mxGeometry x="338.75" y="3333.4799999999996" width="85" height="30" as="geometry" />
        </mxCell>
        <mxCell id="BgDW5pC34_x2A9uitIVd-189" value="&lt;span style=&quot;font-family: arial; font-size: 13px;&quot;&gt;在线观众&lt;/span&gt;" style="text;html=1;strokeColor=none;fillColor=none;align=center;verticalAlign=middle;whiteSpace=wrap;rounded=0;strokeWidth=4;" vertex="1" parent="1">
          <mxGeometry x="342.5" y="3420.9799999999996" width="85" height="30" as="geometry" />
        </mxCell>
        <mxCell id="BgDW5pC34_x2A9uitIVd-190" value="" style="endArrow=classic;html=1;rounded=0;exitX=0.5;exitY=1;exitDx=0;exitDy=0;" edge="1" parent="1" source="BgDW5pC34_x2A9uitIVd-129">
          <mxGeometry width="50" height="50" relative="1" as="geometry">
            <mxPoint x="360" y="3180" as="sourcePoint" />
            <mxPoint x="550" y="2990" as="targetPoint" />
          </mxGeometry>
        </mxCell>
        <mxCell id="BgDW5pC34_x2A9uitIVd-191" value="" style="endArrow=classic;html=1;rounded=0;exitX=0.5;exitY=1;exitDx=0;exitDy=0;entryX=0.5;entryY=0;entryDx=0;entryDy=0;" edge="1" parent="1" source="BgDW5pC34_x2A9uitIVd-130" target="BgDW5pC34_x2A9uitIVd-124">
          <mxGeometry width="50" height="50" relative="1" as="geometry">
            <mxPoint x="360" y="3180" as="sourcePoint" />
            <mxPoint x="508" y="3040" as="targetPoint" />
            <Array as="points">
              <mxPoint x="545" y="2990" />
            </Array>
          </mxGeometry>
        </mxCell>
        <mxCell id="BgDW5pC34_x2A9uitIVd-192" value="" style="outlineConnect=0;fillColor=#B85450;strokeColor=#b85450;dashed=0;verticalLabelPosition=bottom;verticalAlign=top;align=center;html=1;fontSize=12;fontStyle=0;aspect=fixed;pointerEvents=1;shape=mxgraph.aws4.elasticache_for_redis;" vertex="1" parent="1">
          <mxGeometry x="358.64" y="3200.9799999999996" width="45.22" height="40" as="geometry" />
        </mxCell>
        <mxCell id="BgDW5pC34_x2A9uitIVd-193" value="" style="outlineConnect=0;fontColor=#232F3E;gradientColor=none;fillColor=#B85450;strokeColor=none;dashed=0;verticalLabelPosition=bottom;verticalAlign=top;align=center;html=1;fontSize=12;fontStyle=0;aspect=fixed;pointerEvents=1;shape=mxgraph.aws4.elasticache_for_redis;" vertex="1" parent="1">
          <mxGeometry x="358.64" y="3295.9799999999996" width="45.22" height="40" as="geometry" />
        </mxCell>
        <mxCell id="BgDW5pC34_x2A9uitIVd-194" value="" style="outlineConnect=0;fontColor=#232F3E;gradientColor=none;fillColor=#B85450;strokeColor=none;dashed=0;verticalLabelPosition=bottom;verticalAlign=top;align=center;html=1;fontSize=12;fontStyle=0;aspect=fixed;pointerEvents=1;shape=mxgraph.aws4.elasticache_for_redis;" vertex="1" parent="1">
          <mxGeometry x="359.78" y="3380.9799999999996" width="45.22" height="40" as="geometry" />
        </mxCell>
        <mxCell id="BgDW5pC34_x2A9uitIVd-195" value="Kafka" style="outlineConnect=0;fontColor=#232F3E;gradientColor=#945DF2;gradientDirection=north;fillColor=#5A30B5;strokeColor=#ffffff;dashed=0;verticalLabelPosition=bottom;verticalAlign=top;align=center;html=1;fontSize=12;fontStyle=0;aspect=fixed;shape=mxgraph.aws4.resourceIcon;resIcon=mxgraph.aws4.managed_streaming_for_kafka;" vertex="1" parent="1">
          <mxGeometry x="7" y="3170.9799999999996" width="36" height="36" as="geometry" />
        </mxCell>
        <mxCell id="BgDW5pC34_x2A9uitIVd-196" value="" style="verticalLabelPosition=bottom;html=1;verticalAlign=top;align=center;strokeColor=none;fillColor=#00BEF2;shape=mxgraph.azure.mobile;pointerEvents=1;fontSize=16;fontColor=#FFFFFF;" vertex="1" parent="1">
          <mxGeometry x="70" y="2350" width="35" height="50" as="geometry" />
        </mxCell>
        <mxCell id="BgDW5pC34_x2A9uitIVd-197" value="" style="verticalLabelPosition=bottom;html=1;verticalAlign=top;align=center;strokeColor=none;fillColor=#00BEF2;shape=mxgraph.azure.mobile;pointerEvents=1;fontSize=16;fontColor=#FFFFFF;" vertex="1" parent="1">
          <mxGeometry x="565" y="2350" width="35" height="50" as="geometry" />
        </mxCell>
        <mxCell id="BgDW5pC34_x2A9uitIVd-198" value="" style="verticalLabelPosition=bottom;html=1;verticalAlign=top;align=center;strokeColor=none;fillColor=#00BEF2;shape=mxgraph.azure.mobile;pointerEvents=1;fontSize=16;fontColor=#FFFFFF;" vertex="1" parent="1">
          <mxGeometry x="947.5" y="2350" width="35" height="50" as="geometry" />
        </mxCell>
        <mxCell id="BgDW5pC34_x2A9uitIVd-199" value="&lt;span style=&quot;color: rgb(51, 51, 51); font-size: 16px;&quot;&gt;送礼消息&lt;/span&gt;" style="text;html=1;strokeColor=none;fillColor=none;align=center;verticalAlign=middle;whiteSpace=wrap;rounded=0;strokeWidth=4;" vertex="1" parent="1">
          <mxGeometry x="-15" y="3225.9799999999996" width="85" height="30" as="geometry" />
        </mxCell>
        <mxCell id="BgDW5pC34_x2A9uitIVd-200" value="Kafka" style="outlineConnect=0;fontColor=#232F3E;gradientColor=#945DF2;gradientDirection=north;fillColor=#5A30B5;strokeColor=#ffffff;dashed=0;verticalLabelPosition=bottom;verticalAlign=top;align=center;html=1;fontSize=12;fontStyle=0;aspect=fixed;shape=mxgraph.aws4.resourceIcon;resIcon=mxgraph.aws4.managed_streaming_for_kafka;" vertex="1" parent="1">
          <mxGeometry x="7" y="3280.9799999999996" width="36" height="36" as="geometry" />
        </mxCell>
        <mxCell id="BgDW5pC34_x2A9uitIVd-201" value="&lt;span style=&quot;color: rgb(51, 51, 51); font-size: 16px;&quot;&gt;看播消息&lt;/span&gt;" style="text;html=1;strokeColor=none;fillColor=none;align=center;verticalAlign=middle;whiteSpace=wrap;rounded=0;strokeWidth=4;" vertex="1" parent="1">
          <mxGeometry x="-17.5" y="3341.96" width="85" height="30" as="geometry" />
        </mxCell>
        <mxCell id="BgDW5pC34_x2A9uitIVd-202" value="Kafka" style="outlineConnect=0;fontColor=#232F3E;gradientColor=#945DF2;gradientDirection=north;fillColor=#5A30B5;strokeColor=#ffffff;dashed=0;verticalLabelPosition=bottom;verticalAlign=top;align=center;html=1;fontSize=12;fontStyle=0;aspect=fixed;shape=mxgraph.aws4.resourceIcon;resIcon=mxgraph.aws4.managed_streaming_for_kafka;" vertex="1" parent="1">
          <mxGeometry x="7" y="3390.9799999999996" width="36" height="36" as="geometry" />
        </mxCell>
        <mxCell id="BgDW5pC34_x2A9uitIVd-203" value="&lt;span style=&quot;color: rgb(51, 51, 51); font-size: 16px;&quot;&gt;心跳消息&lt;/span&gt;" style="text;html=1;strokeColor=none;fillColor=none;align=center;verticalAlign=middle;whiteSpace=wrap;rounded=0;strokeWidth=4;" vertex="1" parent="1">
          <mxGeometry x="-17.5" y="3449.9799999999996" width="85" height="24.02" as="geometry" />
        </mxCell>
        <mxCell id="BgDW5pC34_x2A9uitIVd-204" value="" style="rounded=0;orthogonalLoop=1;jettySize=auto;html=1;fontSize=16;entryX=0;entryY=0.5;entryDx=0;entryDy=0;" edge="1" parent="1" source="BgDW5pC34_x2A9uitIVd-195" target="BgDW5pC34_x2A9uitIVd-142">
          <mxGeometry relative="1" as="geometry">
            <mxPoint x="460" y="3335.9799999999996" as="sourcePoint" />
            <mxPoint x="520.22" y="3335.9799999999996" as="targetPoint" />
          </mxGeometry>
        </mxCell>
        <mxCell id="BgDW5pC34_x2A9uitIVd-205" value="" style="rounded=0;orthogonalLoop=1;jettySize=auto;html=1;fontSize=16;entryX=0;entryY=0.5;entryDx=0;entryDy=0;" edge="1" parent="1" source="BgDW5pC34_x2A9uitIVd-200" target="BgDW5pC34_x2A9uitIVd-142">
          <mxGeometry relative="1" as="geometry">
            <mxPoint x="42.27834142037932" y="3216.9799999999996" as="sourcePoint" />
            <mxPoint x="90" y="3335" as="targetPoint" />
          </mxGeometry>
        </mxCell>
        <mxCell id="BgDW5pC34_x2A9uitIVd-206" value="" style="rounded=0;orthogonalLoop=1;jettySize=auto;html=1;fontSize=16;entryX=0;entryY=0.5;entryDx=0;entryDy=0;" edge="1" parent="1" source="BgDW5pC34_x2A9uitIVd-202" target="BgDW5pC34_x2A9uitIVd-142">
          <mxGeometry relative="1" as="geometry">
            <mxPoint x="52.27834142037932" y="3226.9799999999996" as="sourcePoint" />
            <mxPoint x="100" y="3345" as="targetPoint" />
          </mxGeometry>
        </mxCell>
        <mxCell id="BgDW5pC34_x2A9uitIVd-207" value="" style="rounded=0;whiteSpace=wrap;html=1;strokeColor=#000000;fillColor=#FFFFFF;fontColor=#000000;align=left;strokeWidth=3;" vertex="1" parent="1">
          <mxGeometry x="1308" y="223.24" width="590" height="840" as="geometry" />
        </mxCell>
        <mxCell id="BgDW5pC34_x2A9uitIVd-208" value="" style="rounded=0;whiteSpace=wrap;html=1;strokeColor=#000000;fillColor=#FFFFFF;fontColor=#000000;align=left;strokeWidth=3;" vertex="1" parent="1">
          <mxGeometry x="2008" y="821.5799999999999" width="201" height="241.66" as="geometry" />
        </mxCell>
        <mxCell id="BgDW5pC34_x2A9uitIVd-209" value="" style="rounded=0;whiteSpace=wrap;html=1;strokeColor=#000000;fillColor=#FFFFFF;fontColor=#000000;align=left;strokeWidth=3;" vertex="1" parent="1">
          <mxGeometry x="2003.76" y="603.8" width="205.25" height="188.44" as="geometry" />
        </mxCell>
        <mxCell id="BgDW5pC34_x2A9uitIVd-210" value="" style="rounded=1;whiteSpace=wrap;html=1;fontSize=18;fillColor=#f5f5f5;strokeColor=#666666;fontColor=#333333;" vertex="1" parent="1">
          <mxGeometry x="1453" y="722.5799999999999" width="210" height="310.66" as="geometry" />
        </mxCell>
        <mxCell id="BgDW5pC34_x2A9uitIVd-211" value="" style="rounded=1;whiteSpace=wrap;html=1;fontSize=18;fillColor=#f5f5f5;strokeColor=#666666;fontColor=#333333;" vertex="1" parent="1">
          <mxGeometry x="1453" y="341.5799999999999" width="210" height="351.66" as="geometry" />
        </mxCell>
        <mxCell id="BgDW5pC34_x2A9uitIVd-212" value="" style="edgeStyle=none;rounded=0;orthogonalLoop=1;jettySize=auto;html=1;strokeWidth=2;fontColor=#FFFFFF;" edge="1" parent="1" source="BgDW5pC34_x2A9uitIVd-213" target="BgDW5pC34_x2A9uitIVd-215">
          <mxGeometry relative="1" as="geometry" />
        </mxCell>
        <mxCell id="BgDW5pC34_x2A9uitIVd-213" value="&lt;span style=&quot;font-size: 14px;&quot;&gt;反爬验证&lt;/span&gt;" style="rounded=1;whiteSpace=wrap;html=1;fontColor=#000000;align=center;" vertex="1" parent="1">
          <mxGeometry x="1493" y="363.2399999999998" width="130" height="60" as="geometry" />
        </mxCell>
        <mxCell id="BgDW5pC34_x2A9uitIVd-214" value="" style="edgeStyle=none;rounded=0;orthogonalLoop=1;jettySize=auto;html=1;strokeWidth=2;fontColor=#FFFFFF;" edge="1" parent="1" source="BgDW5pC34_x2A9uitIVd-215" target="BgDW5pC34_x2A9uitIVd-217">
          <mxGeometry relative="1" as="geometry" />
        </mxCell>
        <mxCell id="BgDW5pC34_x2A9uitIVd-215" value="&lt;span style=&quot;font-size: 14px;&quot;&gt;社交封禁验证&lt;/span&gt;" style="rounded=1;whiteSpace=wrap;html=1;align=center;" vertex="1" parent="1">
          <mxGeometry x="1493" y="445.2399999999998" width="130" height="60" as="geometry" />
        </mxCell>
        <mxCell id="BgDW5pC34_x2A9uitIVd-216" value="" style="edgeStyle=none;rounded=0;orthogonalLoop=1;jettySize=auto;html=1;strokeWidth=2;fontColor=#FFFFFF;" edge="1" parent="1" source="BgDW5pC34_x2A9uitIVd-217" target="BgDW5pC34_x2A9uitIVd-220">
          <mxGeometry relative="1" as="geometry" />
        </mxCell>
        <mxCell id="BgDW5pC34_x2A9uitIVd-217" value="&lt;span style=&quot;font-size: 14px;&quot;&gt;WebServerLog&lt;br&gt;日志上报&lt;/span&gt;" style="rounded=1;whiteSpace=wrap;html=1;align=center;fillColor=#f8cecc;strokeColor=#b85450;" vertex="1" parent="1">
          <mxGeometry x="1493" y="527.9899999999998" width="130" height="60" as="geometry" />
        </mxCell>
        <mxCell id="BgDW5pC34_x2A9uitIVd-218" value="" style="edgeStyle=none;rounded=0;orthogonalLoop=1;jettySize=auto;html=1;strokeWidth=2;fontColor=#FFFFFF;" edge="1" parent="1" source="BgDW5pC34_x2A9uitIVd-220" target="BgDW5pC34_x2A9uitIVd-222">
          <mxGeometry relative="1" as="geometry">
            <mxPoint x="1558" y="692.3999999999999" as="targetPoint" />
          </mxGeometry>
        </mxCell>
        <mxCell id="BgDW5pC34_x2A9uitIVd-219" style="edgeStyle=none;rounded=0;orthogonalLoop=1;jettySize=auto;html=1;entryX=0;entryY=0.5;entryDx=0;entryDy=0;strokeWidth=1;fontColor=#FFFFFF;exitX=1;exitY=0.5;exitDx=0;exitDy=0;" edge="1" parent="1" source="BgDW5pC34_x2A9uitIVd-215">
          <mxGeometry relative="1" as="geometry">
            <mxPoint x="1628" y="393.24" as="sourcePoint" />
            <mxPoint x="2054.26" y="682.1399999999996" as="targetPoint" />
          </mxGeometry>
        </mxCell>
        <mxCell id="BgDW5pC34_x2A9uitIVd-220" value="&lt;span style=&quot;font-size: 14px;&quot;&gt;其他通用逻辑&lt;/span&gt;" style="rounded=1;whiteSpace=wrap;html=1;align=center;" vertex="1" parent="1">
          <mxGeometry x="1493" y="611.3999999999999" width="130" height="60" as="geometry" />
        </mxCell>
        <mxCell id="BgDW5pC34_x2A9uitIVd-221" value="" style="edgeStyle=none;rounded=0;orthogonalLoop=1;jettySize=auto;html=1;strokeWidth=2;fontColor=#FFFFFF;fontSize=14;" edge="1" parent="1" source="BgDW5pC34_x2A9uitIVd-222" target="BgDW5pC34_x2A9uitIVd-225">
          <mxGeometry relative="1" as="geometry" />
        </mxCell>
        <mxCell id="BgDW5pC34_x2A9uitIVd-222" value="&lt;span style=&quot;font-size: 14px;&quot;&gt;校验直播状态&lt;/span&gt;" style="rounded=1;whiteSpace=wrap;html=1;align=center;fontSize=14;" vertex="1" parent="1">
          <mxGeometry x="1493" y="761.5799999999999" width="130" height="60" as="geometry" />
        </mxCell>
        <mxCell id="BgDW5pC34_x2A9uitIVd-223" value="" style="edgeStyle=none;rounded=0;orthogonalLoop=1;jettySize=auto;html=1;strokeWidth=2;fontColor=#FFFFFF;fontSize=14;" edge="1" parent="1" source="BgDW5pC34_x2A9uitIVd-225" target="BgDW5pC34_x2A9uitIVd-226">
          <mxGeometry relative="1" as="geometry" />
        </mxCell>
        <mxCell id="BgDW5pC34_x2A9uitIVd-224" value="" style="edgeStyle=none;rounded=0;orthogonalLoop=1;jettySize=auto;html=1;strokeWidth=1;fontColor=#FFFFFF;fontSize=14;" edge="1" parent="1" source="BgDW5pC34_x2A9uitIVd-225" target="BgDW5pC34_x2A9uitIVd-237">
          <mxGeometry relative="1" as="geometry" />
        </mxCell>
        <mxCell id="BgDW5pC34_x2A9uitIVd-225" value="&lt;span style=&quot;font-size: 14px;&quot;&gt;localCache&lt;/span&gt;&lt;br style=&quot;font-size: 14px;&quot;&gt;&lt;span style=&quot;font-size: 14px;&quot;&gt;获取麦序数据&lt;/span&gt;" style="rounded=1;whiteSpace=wrap;html=1;align=center;fontSize=14;" vertex="1" parent="1">
          <mxGeometry x="1493" y="857.8199999999999" width="130" height="60" as="geometry" />
        </mxCell>
        <mxCell id="BgDW5pC34_x2A9uitIVd-226" value="&lt;span style=&quot;font-size: 14px;&quot;&gt;裁剪麦序&lt;/span&gt;&lt;br style=&quot;font-size: 14px;&quot;&gt;&lt;span style=&quot;font-size: 14px;&quot;&gt;保留3个用户&lt;/span&gt;" style="rounded=1;whiteSpace=wrap;html=1;align=center;fillColor=#f8cecc;strokeColor=#b85450;fontSize=14;" vertex="1" parent="1">
          <mxGeometry x="1493" y="950.5799999999999" width="130" height="60" as="geometry" />
        </mxCell>
        <mxCell id="BgDW5pC34_x2A9uitIVd-227" value="" style="edgeStyle=none;rounded=0;orthogonalLoop=1;jettySize=auto;html=1;strokeWidth=2;fontColor=#FFFFFF;" edge="1" parent="1" source="BgDW5pC34_x2A9uitIVd-228" target="BgDW5pC34_x2A9uitIVd-213">
          <mxGeometry relative="1" as="geometry" />
        </mxCell>
        <mxCell id="BgDW5pC34_x2A9uitIVd-228" value="开始" style="ellipse;whiteSpace=wrap;html=1;strokeColor=#000000;fontColor=#000000;align=center;" vertex="1" parent="1">
          <mxGeometry x="1523" y="287.81999999999994" width="70" height="46.67" as="geometry" />
        </mxCell>
        <mxCell id="BgDW5pC34_x2A9uitIVd-229" value="" style="rounded=1;whiteSpace=wrap;html=1;strokeColor=#82b366;fillColor=#d5e8d4;" vertex="1" parent="1">
          <mxGeometry x="2096.13" y="252.24" width="30" height="20" as="geometry" />
        </mxCell>
        <mxCell id="BgDW5pC34_x2A9uitIVd-230" value="反爬系统" style="text;html=1;strokeColor=none;fillColor=none;align=center;verticalAlign=middle;whiteSpace=wrap;rounded=0;" vertex="1" parent="1">
          <mxGeometry x="2131.13" y="223.24" width="55" height="20" as="geometry" />
        </mxCell>
        <mxCell id="BgDW5pC34_x2A9uitIVd-231" value="" style="rounded=1;whiteSpace=wrap;html=1;strokeColor=#d79b00;fillColor=#ffe6cc;" vertex="1" parent="1">
          <mxGeometry x="2096.13" y="282.24" width="30" height="20" as="geometry" />
        </mxCell>
        <mxCell id="BgDW5pC34_x2A9uitIVd-232" value="直播系统" style="text;html=1;strokeColor=none;fillColor=none;align=center;verticalAlign=middle;whiteSpace=wrap;rounded=0;" vertex="1" parent="1">
          <mxGeometry x="2131.13" y="282.24" width="55" height="20" as="geometry" />
        </mxCell>
        <mxCell id="BgDW5pC34_x2A9uitIVd-233" value="" style="rounded=1;whiteSpace=wrap;html=1;fillColor=#dae8fc;strokeColor=#6c8ebf;" vertex="1" parent="1">
          <mxGeometry x="2096.13" y="222.24" width="30" height="20" as="geometry" />
        </mxCell>
        <mxCell id="BgDW5pC34_x2A9uitIVd-234" value="&lt;span style=&quot;color: rgba(0, 0, 0, 0); font-family: monospace; font-size: 0px; text-align: start;&quot;&gt;%3CmxGraphModel%3E%3Croot%3E%3CmxCell%20id%3D%220%22%2F%3E%3CmxCell%20id%3D%221%22%20parent%3D%220%22%2F%3E%3CmxCell%20id%3D%222%22%20value%3D%22%E5%8F%8D%E7%88%AC%E7%B3%BB%E7%BB%9F%22%20style%3D%22text%3Bhtml%3D1%3BstrokeColor%3Dnone%3BfillColor%3Dnone%3Balign%3Dcenter%3BverticalAlign%3Dmiddle%3BwhiteSpace%3Dwrap%3Brounded%3D0%3B%22%20vertex%3D%221%22%20parent%3D%221%22%3E%3CmxGeometry%20x%3D%22603.13%22%20y%3D%221129%22%20width%3D%2255%22%20height%3D%2220%22%20as%3D%22geometry%22%2F%3E%3C%2FmxCell%3E%3C%2Froot%3E%3C%2FmxGraphModel%3E&lt;/span&gt;" style="text;html=1;strokeColor=none;fillColor=none;align=center;verticalAlign=middle;whiteSpace=wrap;rounded=0;" vertex="1" parent="1">
          <mxGeometry x="2131.13" y="222.24" width="55" height="20" as="geometry" />
        </mxCell>
        <mxCell id="BgDW5pC34_x2A9uitIVd-235" value="Text" style="text;html=1;align=center;verticalAlign=middle;resizable=0;points=[];autosize=1;fontColor=#FFFFFF;" vertex="1" parent="1">
          <mxGeometry x="1713.5" y="251.57999999999993" width="40" height="20" as="geometry" />
        </mxCell>
        <mxCell id="BgDW5pC34_x2A9uitIVd-236" value="" style="edgeStyle=orthogonalEdgeStyle;rounded=0;orthogonalLoop=1;jettySize=auto;html=1;" edge="1" parent="1" source="BgDW5pC34_x2A9uitIVd-237" target="BgDW5pC34_x2A9uitIVd-259">
          <mxGeometry relative="1" as="geometry" />
        </mxCell>
        <mxCell id="BgDW5pC34_x2A9uitIVd-237" value="&lt;span style=&quot;font-size: 14px;&quot;&gt;未命中时&lt;/span&gt;&lt;br style=&quot;font-size: 14px;&quot;&gt;&lt;span style=&quot;font-size: 14px;&quot;&gt;获取前100用户&lt;/span&gt;" style="rounded=1;whiteSpace=wrap;html=1;strokeColor=#000000;fillColor=#E6E6E6;fontColor=#000000;align=center;fontSize=14;" vertex="1" parent="1">
          <mxGeometry x="1728" y="870.5799999999999" width="120" height="40" as="geometry" />
        </mxCell>
        <mxCell id="BgDW5pC34_x2A9uitIVd-238" value="&lt;font color=&quot;#000000&quot;&gt;1&lt;/font&gt;" style="text;html=1;align=center;verticalAlign=middle;resizable=0;points=[];autosize=1;fontColor=#FFFFFF;" vertex="1" parent="1">
          <mxGeometry x="1568" y="338.14999999999986" width="20" height="20" as="geometry" />
        </mxCell>
        <mxCell id="BgDW5pC34_x2A9uitIVd-239" value="&lt;font color=&quot;#000000&quot;&gt;2&lt;/font&gt;" style="text;html=1;align=center;verticalAlign=middle;resizable=0;points=[];autosize=1;fontColor=#FFFFFF;" vertex="1" parent="1">
          <mxGeometry x="1568" y="423.2399999999998" width="20" height="20" as="geometry" />
        </mxCell>
        <mxCell id="BgDW5pC34_x2A9uitIVd-240" value="&lt;font color=&quot;#000000&quot;&gt;3&lt;/font&gt;" style="text;html=1;align=center;verticalAlign=middle;resizable=0;points=[];autosize=1;fontColor=#FFFFFF;" vertex="1" parent="1">
          <mxGeometry x="1569" y="505.2399999999998" width="20" height="20" as="geometry" />
        </mxCell>
        <mxCell id="BgDW5pC34_x2A9uitIVd-241" value="&lt;font color=&quot;#000000&quot;&gt;4&lt;/font&gt;" style="text;html=1;align=center;verticalAlign=middle;resizable=0;points=[];autosize=1;fontColor=#FFFFFF;" vertex="1" parent="1">
          <mxGeometry x="1569" y="587.9899999999998" width="20" height="20" as="geometry" />
        </mxCell>
        <mxCell id="BgDW5pC34_x2A9uitIVd-242" value="&lt;font color=&quot;#000000&quot;&gt;5&lt;/font&gt;" style="text;html=1;align=center;verticalAlign=middle;resizable=0;points=[];autosize=1;fontColor=#FFFFFF;" vertex="1" parent="1">
          <mxGeometry x="1568" y="741.5799999999999" width="20" height="20" as="geometry" />
        </mxCell>
        <mxCell id="BgDW5pC34_x2A9uitIVd-243" value="&lt;font color=&quot;#000000&quot; style=&quot;font-size: 14px;&quot;&gt;6&lt;/font&gt;" style="text;html=1;align=center;verticalAlign=middle;resizable=0;points=[];autosize=1;fontColor=#FFFFFF;fontSize=14;" vertex="1" parent="1">
          <mxGeometry x="1564" y="832.8199999999999" width="30" height="30" as="geometry" />
        </mxCell>
        <mxCell id="BgDW5pC34_x2A9uitIVd-244" value="&lt;span&gt;麦序榜单系统&lt;/span&gt;" style="rounded=0;whiteSpace=wrap;html=1;strokeWidth=1;fillColor=#000000;fontFamily=Verdana;align=center;fontColor=#FFFFFF;fontStyle=1" vertex="1" parent="1">
          <mxGeometry x="1308" y="223.24" width="102" height="25" as="geometry" />
        </mxCell>
        <mxCell id="BgDW5pC34_x2A9uitIVd-245" value="&lt;span&gt;社交关系链系统&lt;/span&gt;" style="rounded=0;whiteSpace=wrap;html=1;strokeWidth=1;fillColor=#000000;fontFamily=Verdana;align=center;fontColor=#FFFFFF;fontStyle=1" vertex="1" parent="1">
          <mxGeometry x="2003.76" y="605.3" width="102" height="25" as="geometry" />
        </mxCell>
        <mxCell id="BgDW5pC34_x2A9uitIVd-246" value="&lt;span&gt;直播系统&lt;/span&gt;" style="rounded=0;whiteSpace=wrap;html=1;strokeWidth=1;fillColor=#000000;fontFamily=Verdana;align=center;fontColor=#FFFFFF;fontStyle=1" vertex="1" parent="1">
          <mxGeometry x="2008" y="821.5799999999999" width="100" height="25" as="geometry" />
        </mxCell>
        <mxCell id="BgDW5pC34_x2A9uitIVd-247" style="edgeStyle=orthogonalEdgeStyle;rounded=0;orthogonalLoop=1;jettySize=auto;html=1;exitX=0.5;exitY=1;exitDx=0;exitDy=0;fontSize=16;" edge="1" parent="1">
          <mxGeometry relative="1" as="geometry">
            <mxPoint x="1393" y="641.5800000000002" as="sourcePoint" />
            <mxPoint x="1393" y="641.5800000000002" as="targetPoint" />
          </mxGeometry>
        </mxCell>
        <mxCell id="BgDW5pC34_x2A9uitIVd-248" value="" style="shape=curlyBracket;whiteSpace=wrap;html=1;rounded=1;labelPosition=left;verticalLabelPosition=middle;align=right;verticalAlign=middle;fontSize=14;" vertex="1" parent="1">
          <mxGeometry x="1423" y="438.58000000000015" width="20" height="183" as="geometry" />
        </mxCell>
        <mxCell id="BgDW5pC34_x2A9uitIVd-249" value="通用 &lt;br&gt;Filter / Interceptor" style="text;html=1;align=center;verticalAlign=middle;resizable=0;points=[];autosize=1;strokeColor=none;fillColor=none;fontSize=14;rotation=0;" vertex="1" parent="1">
          <mxGeometry x="1300" y="505.21000000000026" width="130" height="50" as="geometry" />
        </mxCell>
        <mxCell id="BgDW5pC34_x2A9uitIVd-250" value="" style="shape=curlyBracket;whiteSpace=wrap;html=1;rounded=1;labelPosition=left;verticalLabelPosition=middle;align=right;verticalAlign=middle;fontSize=14;" vertex="1" parent="1">
          <mxGeometry x="1420" y="758.28" width="20" height="259.08" as="geometry" />
        </mxCell>
        <mxCell id="BgDW5pC34_x2A9uitIVd-251" value="具体业务逻辑实" style="text;html=1;align=center;verticalAlign=middle;resizable=0;points=[];autosize=1;strokeColor=none;fillColor=none;fontSize=14;rotation=0;" vertex="1" parent="1">
          <mxGeometry x="1300" y="872.8200000000002" width="120" height="30" as="geometry" />
        </mxCell>
        <mxCell id="BgDW5pC34_x2A9uitIVd-252" value="" style="rounded=0;whiteSpace=wrap;html=1;strokeColor=#000000;fillColor=#FFFFFF;fontColor=#000000;align=left;strokeWidth=3;" vertex="1" parent="1">
          <mxGeometry x="2000.88" y="330.3700000000001" width="205.25" height="245.09" as="geometry" />
        </mxCell>
        <mxCell id="BgDW5pC34_x2A9uitIVd-253" value="&lt;span&gt;反爬系统&lt;/span&gt;" style="rounded=0;whiteSpace=wrap;html=1;strokeWidth=1;fillColor=#000000;fontFamily=Verdana;align=center;fontColor=#FFFFFF;fontStyle=1" vertex="1" parent="1">
          <mxGeometry x="2000.88" y="331.8700000000001" width="102" height="25" as="geometry" />
        </mxCell>
        <mxCell id="BgDW5pC34_x2A9uitIVd-254" value="&lt;b style=&quot;font-family: arial; font-size: 13px;&quot;&gt;Grpc&lt;/b&gt;&lt;br style=&quot;font-family: arial; font-size: 13px;&quot;&gt;&lt;span style=&quot;font-family: arial; font-size: 13px;&quot;&gt;anticrawlRealTime&lt;/span&gt;&lt;br style=&quot;font-family: arial; font-size: 13px;&quot;&gt;&lt;span style=&quot;font-family: arial; font-size: 13px;&quot;&gt;AntispamService&lt;/span&gt;" style="rounded=1;whiteSpace=wrap;html=1;strokeColor=#6c8ebf;fillColor=#dae8fc;align=center;" vertex="1" parent="1">
          <mxGeometry x="2051.38" y="504.3799999999999" width="120" height="51.66" as="geometry" />
        </mxCell>
        <mxCell id="BgDW5pC34_x2A9uitIVd-255" style="edgeStyle=none;rounded=0;orthogonalLoop=1;jettySize=auto;html=1;strokeWidth=1;fontColor=#FFFFFF;entryX=0;entryY=0.5;entryDx=0;entryDy=0;exitX=1;exitY=0.5;exitDx=0;exitDy=0;" edge="1" parent="1" source="BgDW5pC34_x2A9uitIVd-213" target="BgDW5pC34_x2A9uitIVd-254">
          <mxGeometry relative="1" as="geometry">
            <mxPoint x="2253.25" y="918.8199999999999" as="targetPoint" />
          </mxGeometry>
        </mxCell>
        <mxCell id="BgDW5pC34_x2A9uitIVd-256" style="edgeStyle=none;rounded=0;orthogonalLoop=1;jettySize=auto;html=1;entryX=0;entryY=0.5;entryDx=0;entryDy=0;strokeWidth=1;fontColor=#FFFFFF;exitX=1;exitY=0.5;exitDx=0;exitDy=0;" edge="1" parent="1" source="BgDW5pC34_x2A9uitIVd-213">
          <mxGeometry relative="1" as="geometry">
            <mxPoint x="2051.38" y="408.71000000000026" as="targetPoint" />
          </mxGeometry>
        </mxCell>
        <mxCell id="BgDW5pC34_x2A9uitIVd-257" style="edgeStyle=none;rounded=0;orthogonalLoop=1;jettySize=auto;html=1;strokeWidth=1;fontColor=#FFFFFF;entryX=0;entryY=0.5;entryDx=0;entryDy=0;exitX=1;exitY=0.5;exitDx=0;exitDy=0;" edge="1" parent="1" source="BgDW5pC34_x2A9uitIVd-213">
          <mxGeometry relative="1" as="geometry">
            <mxPoint x="1623" y="802.3999999999999" as="sourcePoint" />
            <mxPoint x="2051.38" y="464.95000000000005" as="targetPoint" />
          </mxGeometry>
        </mxCell>
        <mxCell id="BgDW5pC34_x2A9uitIVd-258" style="edgeStyle=none;rounded=0;orthogonalLoop=1;jettySize=auto;html=1;entryX=0;entryY=0.5;entryDx=0;entryDy=0;strokeWidth=1;fontColor=#FFFFFF;exitX=1;exitY=0.5;exitDx=0;exitDy=0;" edge="1" parent="1" source="BgDW5pC34_x2A9uitIVd-237">
          <mxGeometry relative="1" as="geometry">
            <mxPoint x="1808" y="913.6800000000001" as="sourcePoint" />
            <mxPoint x="2042.27" y="956.8199999999999" as="targetPoint" />
          </mxGeometry>
        </mxCell>
        <mxCell id="BgDW5pC34_x2A9uitIVd-259" value="&lt;font style=&quot;font-size: 14px;&quot;&gt;组装用户信息&lt;/font&gt;" style="rounded=1;whiteSpace=wrap;html=1;strokeColor=#000000;fillColor=#E6E6E6;fontColor=#000000;align=center;" vertex="1" parent="1">
          <mxGeometry x="1728" y="951.5799999999999" width="120" height="40" as="geometry" />
        </mxCell>
        <mxCell id="BgDW5pC34_x2A9uitIVd-260" style="edgeStyle=none;rounded=0;orthogonalLoop=1;jettySize=auto;html=1;entryX=1;entryY=0.5;entryDx=0;entryDy=0;strokeWidth=1;fontColor=#FFFFFF;exitX=0;exitY=0.5;exitDx=0;exitDy=0;fontSize=14;" edge="1" parent="1" source="BgDW5pC34_x2A9uitIVd-259" target="BgDW5pC34_x2A9uitIVd-225">
          <mxGeometry relative="1" as="geometry">
            <mxPoint x="1633" y="485.24" as="sourcePoint" />
            <mxPoint x="2266.13" y="653.1399999999996" as="targetPoint" />
          </mxGeometry>
        </mxCell>
        <mxCell id="BgDW5pC34_x2A9uitIVd-261" value="社交系统" style="text;html=1;strokeColor=none;fillColor=none;align=center;verticalAlign=middle;whiteSpace=wrap;rounded=0;" vertex="1" parent="1">
          <mxGeometry x="2131.13" y="252.24" width="55" height="20" as="geometry" />
        </mxCell>
        <mxCell id="BgDW5pC34_x2A9uitIVd-262" style="edgeStyle=none;rounded=0;orthogonalLoop=1;jettySize=auto;html=1;entryX=0.167;entryY=-0.096;entryDx=0;entryDy=0;strokeWidth=1;fontColor=#FFFFFF;exitX=1;exitY=0.5;exitDx=0;exitDy=0;entryPerimeter=0;" edge="1" parent="1" source="BgDW5pC34_x2A9uitIVd-259" target="BgDW5pC34_x2A9uitIVd-275">
          <mxGeometry relative="1" as="geometry">
            <mxPoint x="1633" y="485.24" as="sourcePoint" />
            <mxPoint x="2054.26" y="741.5800000000002" as="targetPoint" />
          </mxGeometry>
        </mxCell>
        <mxCell id="BgDW5pC34_x2A9uitIVd-263" style="edgeStyle=none;rounded=0;orthogonalLoop=1;jettySize=auto;html=1;entryX=0;entryY=0.5;entryDx=0;entryDy=0;strokeWidth=1;fontColor=#FFFFFF;exitX=1;exitY=0.5;exitDx=0;exitDy=0;" edge="1" parent="1" source="BgDW5pC34_x2A9uitIVd-222">
          <mxGeometry relative="1" as="geometry">
            <mxPoint x="1633" y="485.24" as="sourcePoint" />
            <mxPoint x="2042.52" y="897.8199999999999" as="targetPoint" />
          </mxGeometry>
        </mxCell>
        <mxCell id="BgDW5pC34_x2A9uitIVd-264" style="edgeStyle=none;rounded=0;orthogonalLoop=1;jettySize=auto;html=1;strokeWidth=1;fontColor=#FFFFFF;exitX=1;exitY=0.5;exitDx=0;exitDy=0;" edge="1" parent="1" source="BgDW5pC34_x2A9uitIVd-259" target="BgDW5pC34_x2A9uitIVd-281">
          <mxGeometry relative="1" as="geometry">
            <mxPoint x="1643" y="495.24" as="sourcePoint" />
            <mxPoint x="2042.27" y="1019.5800000000002" as="targetPoint" />
          </mxGeometry>
        </mxCell>
        <mxCell id="BgDW5pC34_x2A9uitIVd-265" value="&lt;font color=&quot;#000000&quot; style=&quot;font-size: 14px;&quot;&gt;7&lt;/font&gt;" style="text;html=1;align=center;verticalAlign=middle;resizable=0;points=[];autosize=1;fontColor=#FFFFFF;fontSize=14;" vertex="1" parent="1">
          <mxGeometry x="1563" y="916.5799999999999" width="30" height="30" as="geometry" />
        </mxCell>
        <mxCell id="BgDW5pC34_x2A9uitIVd-266" value="&lt;font color=&quot;#000000&quot; style=&quot;font-size: 14px;&quot;&gt;6.1&lt;/font&gt;" style="text;html=1;align=center;verticalAlign=middle;resizable=0;points=[];autosize=1;fontColor=#FFFFFF;fontSize=14;" vertex="1" parent="1">
          <mxGeometry x="1678.5" y="862.8199999999999" width="40" height="30" as="geometry" />
        </mxCell>
        <mxCell id="BgDW5pC34_x2A9uitIVd-267" value="&lt;font color=&quot;#000000&quot; style=&quot;font-size: 14px;&quot;&gt;6.2&lt;/font&gt;" style="text;html=1;align=center;verticalAlign=middle;resizable=0;points=[];autosize=1;fontColor=#FFFFFF;fontSize=14;" vertex="1" parent="1">
          <mxGeometry x="1748" y="921.5799999999999" width="40" height="30" as="geometry" />
        </mxCell>
        <mxCell id="BgDW5pC34_x2A9uitIVd-268" value="" style="outlineConnect=0;fontColor=#232F3E;gradientColor=none;fillColor=#3334B9;strokeColor=none;dashed=0;verticalLabelPosition=bottom;verticalAlign=top;align=center;html=1;fontSize=12;fontStyle=0;aspect=fixed;pointerEvents=1;shape=mxgraph.aws4.elasticache_for_memcached;" vertex="1" parent="1">
          <mxGeometry x="2091.6" y="364.24" width="39.57" height="35" as="geometry" />
        </mxCell>
        <mxCell id="BgDW5pC34_x2A9uitIVd-269" value="&lt;span style=&quot;font-size: 13px; font-family: arial;&quot;&gt;antiCrawl&lt;/span&gt;&lt;span style=&quot;font-size: 13px; font-family: arial;&quot;&gt;Threshold&lt;/span&gt;" style="text;html=1;strokeColor=none;fillColor=none;align=center;verticalAlign=middle;whiteSpace=wrap;rounded=0;" vertex="1" parent="1">
          <mxGeometry x="2031.17" y="393.24" width="160.43" height="30" as="geometry" />
        </mxCell>
        <mxCell id="BgDW5pC34_x2A9uitIVd-270" value="" style="outlineConnect=0;fontColor=#232F3E;gradientColor=none;fillColor=#3334B9;strokeColor=none;dashed=0;verticalLabelPosition=bottom;verticalAlign=top;align=center;html=1;fontSize=12;fontStyle=0;aspect=fixed;pointerEvents=1;shape=mxgraph.aws4.elasticache_for_memcached;" vertex="1" parent="1">
          <mxGeometry x="2091.6" y="433.24" width="39.57" height="35" as="geometry" />
        </mxCell>
        <mxCell id="BgDW5pC34_x2A9uitIVd-271" value="&lt;div style=&quot;&quot;&gt;&lt;span style=&quot;background-color: initial;&quot;&gt;antiCrawl&lt;/span&gt;&lt;/div&gt;" style="text;html=1;strokeColor=none;fillColor=none;align=center;verticalAlign=middle;whiteSpace=wrap;rounded=0;" vertex="1" parent="1">
          <mxGeometry x="2030.92" y="460.24" width="160.43" height="30" as="geometry" />
        </mxCell>
        <mxCell id="BgDW5pC34_x2A9uitIVd-272" value="" style="outlineConnect=0;fillColor=#82B366;strokeColor=#82b366;dashed=0;verticalLabelPosition=bottom;verticalAlign=top;align=center;html=1;fontSize=12;fontStyle=0;aspect=fixed;pointerEvents=1;shape=mxgraph.aws4.elasticache_for_memcached;" vertex="1" parent="1">
          <mxGeometry x="2091.3500000000004" y="637.24" width="39.57" height="35" as="geometry" />
        </mxCell>
        <mxCell id="BgDW5pC34_x2A9uitIVd-273" value="&lt;span style=&quot;font-family: arial; font-size: 13px;&quot;&gt;userBitCacheNew&lt;/span&gt;" style="text;html=1;strokeColor=none;fillColor=none;align=center;verticalAlign=middle;whiteSpace=wrap;rounded=0;" vertex="1" parent="1">
          <mxGeometry x="2030.92" y="667.24" width="160.43" height="30" as="geometry" />
        </mxCell>
        <mxCell id="BgDW5pC34_x2A9uitIVd-274" value="" style="outlineConnect=0;fillColor=#82B366;strokeColor=#82b366;dashed=0;verticalLabelPosition=bottom;verticalAlign=top;align=center;html=1;fontSize=12;fontStyle=0;aspect=fixed;pointerEvents=1;shape=mxgraph.aws4.elasticache_for_memcached;" vertex="1" parent="1">
          <mxGeometry x="2091.3500000000004" y="711.6799999999998" width="39.57" height="35" as="geometry" />
        </mxCell>
        <mxCell id="BgDW5pC34_x2A9uitIVd-275" value="&lt;span style=&quot;font-family: arial; font-size: 13px;&quot;&gt;userCacheNew&lt;/span&gt;" style="text;html=1;strokeColor=none;fillColor=none;align=center;verticalAlign=middle;whiteSpace=wrap;rounded=0;" vertex="1" parent="1">
          <mxGeometry x="2030.92" y="743.3399999999999" width="160.43" height="30" as="geometry" />
        </mxCell>
        <mxCell id="BgDW5pC34_x2A9uitIVd-276" value="" style="outlineConnect=0;fillColor=#D79B00;strokeColor=#d79b00;dashed=0;verticalLabelPosition=bottom;verticalAlign=top;align=center;html=1;fontSize=12;fontStyle=0;aspect=fixed;pointerEvents=1;shape=mxgraph.aws4.elasticache_for_memcached;" vertex="1" parent="1">
          <mxGeometry x="2086.6000000000004" y="853.8699999999999" width="39.57" height="35" as="geometry" />
        </mxCell>
        <mxCell id="BgDW5pC34_x2A9uitIVd-277" value="&lt;span style=&quot;font-family: arial; font-size: 13px;&quot;&gt;liveCurrentLiving&lt;/span&gt;" style="text;html=1;strokeColor=none;fillColor=none;align=center;verticalAlign=middle;whiteSpace=wrap;rounded=0;" vertex="1" parent="1">
          <mxGeometry x="2026.17" y="882.8699999999999" width="160.43" height="30" as="geometry" />
        </mxCell>
        <mxCell id="BgDW5pC34_x2A9uitIVd-278" value="" style="outlineConnect=0;fillColor=#D79B00;strokeColor=#d79b00;dashed=0;verticalLabelPosition=bottom;verticalAlign=top;align=center;html=1;fontSize=12;fontStyle=0;aspect=fixed;pointerEvents=1;shape=mxgraph.aws4.elasticache_for_memcached;" vertex="1" parent="1">
          <mxGeometry x="2086.6000000000004" y="923.31" width="39.57" height="35" as="geometry" />
        </mxCell>
        <mxCell id="BgDW5pC34_x2A9uitIVd-279" value="&lt;span style=&quot;font-family: arial; font-size: 13px;&quot;&gt;liveStreamWatchingList&lt;/span&gt;" style="text;html=1;strokeColor=none;fillColor=none;align=center;verticalAlign=middle;whiteSpace=wrap;rounded=0;" vertex="1" parent="1">
          <mxGeometry x="2026.17" y="953.9699999999998" width="160.43" height="30" as="geometry" />
        </mxCell>
        <mxCell id="BgDW5pC34_x2A9uitIVd-280" value="" style="outlineConnect=0;fillColor=#D79B00;strokeColor=#d79b00;dashed=0;verticalLabelPosition=bottom;verticalAlign=top;align=center;html=1;fontSize=12;fontStyle=0;aspect=fixed;pointerEvents=1;shape=mxgraph.aws4.elasticache_for_memcached;" vertex="1" parent="1">
          <mxGeometry x="2086.6000000000004" y="989.9199999999998" width="39.57" height="35" as="geometry" />
        </mxCell>
        <mxCell id="BgDW5pC34_x2A9uitIVd-281" value="&lt;span style=&quot;font-family: arial; font-size: 13px;&quot;&gt;liveUserRoleInfo&lt;/span&gt;" style="text;html=1;strokeColor=none;fillColor=none;align=center;verticalAlign=middle;whiteSpace=wrap;rounded=0;" vertex="1" parent="1">
          <mxGeometry x="2026.17" y="1021.5799999999997" width="160.43" height="30" as="geometry" />
        </mxCell>
        <mxCell id="BgDW5pC34_x2A9uitIVd-282" style="edgeStyle=orthogonalEdgeStyle;rounded=0;orthogonalLoop=1;jettySize=auto;html=1;exitX=0.5;exitY=1;exitDx=0;exitDy=0;" edge="1" parent="1" source="BgDW5pC34_x2A9uitIVd-244" target="BgDW5pC34_x2A9uitIVd-244">
          <mxGeometry relative="1" as="geometry" />
        </mxCell>
        <mxCell id="BgDW5pC34_x2A9uitIVd-283" value="&lt;b style=&quot;font-size: 16px;&quot;&gt;&lt;font color=&quot;#ff0000&quot;&gt;说明：红色方块表示优化的部分&lt;/font&gt;&lt;/b&gt;" style="text;html=1;strokeColor=none;fillColor=none;align=left;verticalAlign=middle;whiteSpace=wrap;rounded=0;fontSize=16;" vertex="1" parent="1">
          <mxGeometry x="1653" y="226.57999999999993" width="260" height="30" as="geometry" />
        </mxCell>
        <mxCell id="BgDW5pC34_x2A9uitIVd-284" value="" style="endArrow=classic;html=1;rounded=0;fontSize=12;entryX=1;entryY=0.5;entryDx=0;entryDy=0;dashed=1;" edge="1" parent="1" target="BgDW5pC34_x2A9uitIVd-217">
          <mxGeometry width="50" height="50" relative="1" as="geometry">
            <mxPoint x="1728" y="593.24" as="sourcePoint" />
            <mxPoint x="1613.37" y="547.5800000000002" as="targetPoint" />
          </mxGeometry>
        </mxCell>
        <mxCell id="BgDW5pC34_x2A9uitIVd-285" value="" style="endArrow=classic;html=1;rounded=0;fontSize=12;entryX=1;entryY=0.5;entryDx=0;entryDy=0;dashed=1;" edge="1" parent="1" target="BgDW5pC34_x2A9uitIVd-226">
          <mxGeometry width="50" height="50" relative="1" as="geometry">
            <mxPoint x="1733" y="1013.9133333333336" as="sourcePoint" />
            <mxPoint x="1633" y="867.8199999999999" as="targetPoint" />
          </mxGeometry>
        </mxCell>
        <mxCell id="BgDW5pC34_x2A9uitIVd-286" value="去除读请求日志上报" style="text;html=1;align=center;verticalAlign=middle;resizable=0;points=[];autosize=1;strokeColor=none;fillColor=none;fontColor=#FF0000;" vertex="1" parent="1">
          <mxGeometry x="1703" y="591.5799999999999" width="130" height="30" as="geometry" />
        </mxCell>
        <mxCell id="BgDW5pC34_x2A9uitIVd-287" value="&lt;div&gt;裁剪动作提前至&lt;/div&gt;&lt;div&gt;组装用户信息前&lt;/div&gt;" style="text;html=1;align=center;verticalAlign=middle;resizable=0;points=[];autosize=1;strokeColor=none;fillColor=none;fontColor=#FF0000;" vertex="1" parent="1">
          <mxGeometry x="1728" y="1003.24" width="110" height="40" as="geometry" />
        </mxCell>
        <mxCell id="BgDW5pC34_x2A9uitIVd-288" value="" style="rounded=0;whiteSpace=wrap;html=1;strokeWidth=4;" vertex="1" parent="1">
          <mxGeometry x="1374" y="2075" width="860" height="90" as="geometry" />
        </mxCell>
        <mxCell id="BgDW5pC34_x2A9uitIVd-289" value="" style="rounded=0;whiteSpace=wrap;html=1;strokeWidth=4;" vertex="1" parent="1">
          <mxGeometry x="1374" y="1625" width="860" height="399" as="geometry" />
        </mxCell>
        <mxCell id="BgDW5pC34_x2A9uitIVd-290" value="" style="rounded=0;whiteSpace=wrap;html=1;strokeWidth=4;" vertex="1" parent="1">
          <mxGeometry x="1493.5" y="1455" width="397" height="120" as="geometry" />
        </mxCell>
        <mxCell id="BgDW5pC34_x2A9uitIVd-291" value="" style="rounded=0;whiteSpace=wrap;html=1;strokeWidth=4;" vertex="1" parent="1">
          <mxGeometry x="1146" y="1455" width="170" height="710" as="geometry" />
        </mxCell>
        <mxCell id="BgDW5pC34_x2A9uitIVd-292" value="" style="rounded=0;whiteSpace=wrap;html=1;fontSize=11;fillColor=#f5f5f5;strokeColor=#666666;fontColor=#333333;" vertex="1" parent="1">
          <mxGeometry x="1384" y="1755" width="840" height="115" as="geometry" />
        </mxCell>
        <mxCell id="BgDW5pC34_x2A9uitIVd-293" value="用户标签状态API" style="rounded=1;whiteSpace=wrap;html=1;" vertex="1" parent="1">
          <mxGeometry x="1166" y="1545" width="120" height="40" as="geometry" />
        </mxCell>
        <mxCell id="BgDW5pC34_x2A9uitIVd-294" value="半屏P页API" style="rounded=1;whiteSpace=wrap;html=1;" vertex="1" parent="1">
          <mxGeometry x="1166" y="1635" width="120" height="40" as="geometry" />
        </mxCell>
        <mxCell id="BgDW5pC34_x2A9uitIVd-295" value="榜单API" style="rounded=1;whiteSpace=wrap;html=1;" vertex="1" parent="1">
          <mxGeometry x="1166" y="1735" width="120" height="40" as="geometry" />
        </mxCell>
        <mxCell id="BgDW5pC34_x2A9uitIVd-296" value="评论区Feed RPC" style="rounded=1;whiteSpace=wrap;html=1;" vertex="1" parent="1">
          <mxGeometry x="1166" y="1935" width="120" height="40" as="geometry" />
        </mxCell>
        <mxCell id="BgDW5pC34_x2A9uitIVd-297" value="主播结束页API" style="rounded=1;whiteSpace=wrap;html=1;" vertex="1" parent="1">
          <mxGeometry x="1166" y="1830" width="120" height="40" as="geometry" />
        </mxCell>
        <mxCell id="BgDW5pC34_x2A9uitIVd-298" value="... ..." style="rounded=1;whiteSpace=wrap;html=1;" vertex="1" parent="1">
          <mxGeometry x="1166" y="2045" width="120" height="40" as="geometry" />
        </mxCell>
        <mxCell id="BgDW5pC34_x2A9uitIVd-299" style="edgeStyle=orthogonalEdgeStyle;rounded=0;orthogonalLoop=1;jettySize=auto;html=1;exitX=1;exitY=0.5;exitDx=0;exitDy=0;entryX=0;entryY=0.5;entryDx=0;entryDy=0;" edge="1" parent="1" source="BgDW5pC34_x2A9uitIVd-300" target="BgDW5pC34_x2A9uitIVd-302">
          <mxGeometry relative="1" as="geometry" />
        </mxCell>
        <mxCell id="BgDW5pC34_x2A9uitIVd-300" value="查询直播基础数据" style="rounded=1;whiteSpace=wrap;html=1;" vertex="1" parent="1">
          <mxGeometry x="1408" y="1796.5" width="136" height="60" as="geometry" />
        </mxCell>
        <mxCell id="BgDW5pC34_x2A9uitIVd-301" style="edgeStyle=orthogonalEdgeStyle;rounded=0;orthogonalLoop=1;jettySize=auto;html=1;exitX=1;exitY=0.5;exitDx=0;exitDy=0;entryX=0;entryY=0.5;entryDx=0;entryDy=0;" edge="1" parent="1" source="BgDW5pC34_x2A9uitIVd-302" target="BgDW5pC34_x2A9uitIVd-309">
          <mxGeometry relative="1" as="geometry" />
        </mxCell>
        <mxCell id="BgDW5pC34_x2A9uitIVd-302" value="查询自建数据源" style="rounded=1;whiteSpace=wrap;html=1;" vertex="1" parent="1">
          <mxGeometry x="1624" y="1796.5" width="136" height="60" as="geometry" />
        </mxCell>
        <mxCell id="BgDW5pC34_x2A9uitIVd-303" style="edgeStyle=orthogonalEdgeStyle;rounded=0;orthogonalLoop=1;jettySize=auto;html=1;exitX=1;exitY=0.5;exitDx=0;exitDy=0;entryX=0;entryY=0.5;entryDx=0;entryDy=0;" edge="1" parent="1" source="BgDW5pC34_x2A9uitIVd-309" target="BgDW5pC34_x2A9uitIVd-310">
          <mxGeometry relative="1" as="geometry" />
        </mxCell>
        <mxCell id="BgDW5pC34_x2A9uitIVd-304" style="edgeStyle=none;rounded=0;orthogonalLoop=1;jettySize=auto;html=1;exitX=0.5;exitY=1;exitDx=0;exitDy=0;entryX=0.5;entryY=0;entryDx=0;entryDy=0;endArrow=classic;endFill=1;" edge="1" parent="1" source="BgDW5pC34_x2A9uitIVd-309" target="BgDW5pC34_x2A9uitIVd-316">
          <mxGeometry relative="1" as="geometry" />
        </mxCell>
        <mxCell id="BgDW5pC34_x2A9uitIVd-305" style="edgeStyle=none;rounded=0;orthogonalLoop=1;jettySize=auto;html=1;exitX=0.5;exitY=1;exitDx=0;exitDy=0;entryX=0.5;entryY=0;entryDx=0;entryDy=0;endArrow=classic;endFill=1;" edge="1" parent="1" source="BgDW5pC34_x2A9uitIVd-309" target="BgDW5pC34_x2A9uitIVd-317">
          <mxGeometry relative="1" as="geometry" />
        </mxCell>
        <mxCell id="BgDW5pC34_x2A9uitIVd-306" style="edgeStyle=none;rounded=0;orthogonalLoop=1;jettySize=auto;html=1;entryX=0.5;entryY=0;entryDx=0;entryDy=0;endArrow=classic;endFill=1;" edge="1" parent="1" source="BgDW5pC34_x2A9uitIVd-309" target="BgDW5pC34_x2A9uitIVd-318">
          <mxGeometry relative="1" as="geometry" />
        </mxCell>
        <mxCell id="BgDW5pC34_x2A9uitIVd-307" style="edgeStyle=none;rounded=0;orthogonalLoop=1;jettySize=auto;html=1;exitX=0.5;exitY=1;exitDx=0;exitDy=0;entryX=0.5;entryY=0;entryDx=0;entryDy=0;endArrow=classic;endFill=1;" edge="1" parent="1" source="BgDW5pC34_x2A9uitIVd-309" target="BgDW5pC34_x2A9uitIVd-319">
          <mxGeometry relative="1" as="geometry" />
        </mxCell>
        <mxCell id="BgDW5pC34_x2A9uitIVd-308" style="edgeStyle=none;rounded=0;orthogonalLoop=1;jettySize=auto;html=1;exitX=0.5;exitY=1;exitDx=0;exitDy=0;entryX=0.588;entryY=0.025;entryDx=0;entryDy=0;entryPerimeter=0;endArrow=classic;endFill=1;" edge="1" parent="1" source="BgDW5pC34_x2A9uitIVd-309" target="BgDW5pC34_x2A9uitIVd-320">
          <mxGeometry relative="1" as="geometry" />
        </mxCell>
        <mxCell id="BgDW5pC34_x2A9uitIVd-309" value="遍历各业务插件(17个)" style="rounded=1;whiteSpace=wrap;html=1;" vertex="1" parent="1">
          <mxGeometry x="1844" y="1796.5" width="136" height="60" as="geometry" />
        </mxCell>
        <mxCell id="BgDW5pC34_x2A9uitIVd-310" value="结果数据组装" style="rounded=1;whiteSpace=wrap;html=1;" vertex="1" parent="1">
          <mxGeometry x="2064" y="1796.5" width="136" height="60" as="geometry" />
        </mxCell>
        <mxCell id="BgDW5pC34_x2A9uitIVd-311" value="" style="shape=flexArrow;endArrow=classic;html=1;rounded=0;fillColor=#f5f5f5;strokeColor=#666666;" edge="1" parent="1">
          <mxGeometry width="50" height="50" relative="1" as="geometry">
            <mxPoint x="1316" y="1795" as="sourcePoint" />
            <mxPoint x="1376" y="1795" as="targetPoint" />
          </mxGeometry>
        </mxCell>
        <mxCell id="BgDW5pC34_x2A9uitIVd-312" value="Redis" style="shape=cylinder3;whiteSpace=wrap;html=1;boundedLbl=1;backgroundOutline=1;size=15;fillColor=#CCCCCC;strokeColor=#666666;fontColor=#333333;" vertex="1" parent="1">
          <mxGeometry x="1659.5" y="1644" width="65" height="59" as="geometry" />
        </mxCell>
        <mxCell id="BgDW5pC34_x2A9uitIVd-313" value="管理员" style="rounded=1;whiteSpace=wrap;html=1;" vertex="1" parent="1">
          <mxGeometry x="1538.5" y="1498.5" width="80" height="40" as="geometry" />
        </mxCell>
        <mxCell id="BgDW5pC34_x2A9uitIVd-314" value="粉条" style="rounded=1;whiteSpace=wrap;html=1;" vertex="1" parent="1">
          <mxGeometry x="1648.5" y="1498.5" width="80" height="40" as="geometry" />
        </mxCell>
        <mxCell id="BgDW5pC34_x2A9uitIVd-315" value="锦鲤" style="rounded=1;whiteSpace=wrap;html=1;" vertex="1" parent="1">
          <mxGeometry x="1758.5" y="1498.5" width="80" height="40" as="geometry" />
        </mxCell>
        <mxCell id="BgDW5pC34_x2A9uitIVd-316" value="榜单排名" style="rounded=1;whiteSpace=wrap;html=1;" vertex="1" parent="1">
          <mxGeometry x="1694" y="1935" width="80" height="40" as="geometry" />
        </mxCell>
        <mxCell id="BgDW5pC34_x2A9uitIVd-317" value="活动特权" style="rounded=1;whiteSpace=wrap;html=1;" vertex="1" parent="1">
          <mxGeometry x="1784" y="1936.5" width="80" height="40" as="geometry" />
        </mxCell>
        <mxCell id="BgDW5pC34_x2A9uitIVd-318" value="用户等级" style="rounded=1;whiteSpace=wrap;html=1;" vertex="1" parent="1">
          <mxGeometry x="1874" y="1936.5" width="80" height="40" as="geometry" />
        </mxCell>
        <mxCell id="BgDW5pC34_x2A9uitIVd-319" value="粉丝团" style="rounded=1;whiteSpace=wrap;html=1;" vertex="1" parent="1">
          <mxGeometry x="1964" y="1936.5" width="80" height="40" as="geometry" />
        </mxCell>
        <mxCell id="BgDW5pC34_x2A9uitIVd-320" value="......" style="rounded=1;whiteSpace=wrap;html=1;" vertex="1" parent="1">
          <mxGeometry x="2054" y="1936.5" width="80" height="40" as="geometry" />
        </mxCell>
        <mxCell id="BgDW5pC34_x2A9uitIVd-321" value="&lt;span&gt;上游服务&lt;/span&gt;" style="rounded=0;whiteSpace=wrap;html=1;strokeWidth=1;fillColor=#000000;fontFamily=Verdana;align=center;fontColor=#FFFFFF;fontStyle=1" vertex="1" parent="1">
          <mxGeometry x="1146" y="1455" width="102" height="25" as="geometry" />
        </mxCell>
        <mxCell id="BgDW5pC34_x2A9uitIVd-322" value="间接依赖" style="rounded=0;whiteSpace=wrap;html=1;strokeWidth=1;fillColor=#000000;fontFamily=Verdana;align=center;fontColor=#FFFFFF;fontStyle=1" vertex="1" parent="1">
          <mxGeometry x="1493.5" y="1455" width="102" height="25" as="geometry" />
        </mxCell>
        <mxCell id="BgDW5pC34_x2A9uitIVd-323" value="&lt;span&gt;用户身份标签服务&lt;/span&gt;" style="rounded=0;whiteSpace=wrap;html=1;strokeWidth=1;fillColor=#000000;fontFamily=Verdana;align=center;fontColor=#FFFFFF;fontStyle=1" vertex="1" parent="1">
          <mxGeometry x="1374" y="1625" width="102" height="25" as="geometry" />
        </mxCell>
        <mxCell id="BgDW5pC34_x2A9uitIVd-324" value="调用" style="text;html=1;align=center;verticalAlign=middle;resizable=0;points=[];autosize=1;strokeColor=none;fillColor=none;" vertex="1" parent="1">
          <mxGeometry x="1316" y="1755" width="50" height="30" as="geometry" />
        </mxCell>
        <mxCell id="BgDW5pC34_x2A9uitIVd-325" value="" style="shape=flexArrow;endArrow=classic;html=1;rounded=0;fillColor=#f5f5f5;strokeColor=#666666;exitX=0.5;exitY=1;exitDx=0;exitDy=0;" edge="1" parent="1" source="BgDW5pC34_x2A9uitIVd-290" target="BgDW5pC34_x2A9uitIVd-312">
          <mxGeometry width="50" height="50" relative="1" as="geometry">
            <mxPoint x="1694" y="1585" as="sourcePoint" />
            <mxPoint x="1694" y="1625" as="targetPoint" />
          </mxGeometry>
        </mxCell>
        <mxCell id="BgDW5pC34_x2A9uitIVd-326" value="写入标签信息" style="text;html=1;align=center;verticalAlign=middle;resizable=0;points=[];autosize=1;strokeColor=none;fillColor=none;" vertex="1" parent="1">
          <mxGeometry x="1694" y="1585" width="100" height="30" as="geometry" />
        </mxCell>
        <mxCell id="BgDW5pC34_x2A9uitIVd-327" value="" style="shape=flexArrow;endArrow=classic;html=1;rounded=0;fillColor=#f5f5f5;strokeColor=#666666;entryX=0.5;entryY=1;entryDx=0;entryDy=0;entryPerimeter=0;exitX=0.5;exitY=0;exitDx=0;exitDy=0;" edge="1" parent="1" source="BgDW5pC34_x2A9uitIVd-302" target="BgDW5pC34_x2A9uitIVd-312">
          <mxGeometry width="50" height="50" relative="1" as="geometry">
            <mxPoint x="1714" y="1754" as="sourcePoint" />
            <mxPoint x="1774" y="1754" as="targetPoint" />
          </mxGeometry>
        </mxCell>
        <mxCell id="BgDW5pC34_x2A9uitIVd-328" value="读取标签信息" style="text;html=1;align=center;verticalAlign=middle;resizable=0;points=[];autosize=1;strokeColor=none;fillColor=none;" vertex="1" parent="1">
          <mxGeometry x="1694" y="1725" width="100" height="30" as="geometry" />
        </mxCell>
        <mxCell id="BgDW5pC34_x2A9uitIVd-329" value="" style="shape=flexArrow;endArrow=classic;html=1;rounded=0;fillColor=#f5f5f5;strokeColor=#666666;exitX=0.5;exitY=0;exitDx=0;exitDy=0;entryX=0.627;entryY=-0.056;entryDx=0;entryDy=0;entryPerimeter=0;" edge="1" parent="1" target="BgDW5pC34_x2A9uitIVd-288">
          <mxGeometry width="50" height="50" relative="1" as="geometry">
            <mxPoint x="1913.5" y="1985" as="sourcePoint" />
            <mxPoint x="1913.5" y="2031.5" as="targetPoint" />
          </mxGeometry>
        </mxCell>
        <mxCell id="BgDW5pC34_x2A9uitIVd-330" value="调用" style="text;html=1;align=center;verticalAlign=middle;resizable=0;points=[];autosize=1;strokeColor=none;fillColor=none;" vertex="1" parent="1">
          <mxGeometry x="1844" y="2024" width="50" height="30" as="geometry" />
        </mxCell>
        <mxCell id="BgDW5pC34_x2A9uitIVd-331" value="&lt;span&gt;RPC依赖&lt;/span&gt;" style="rounded=0;whiteSpace=wrap;html=1;strokeWidth=1;fillColor=#000000;fontFamily=Verdana;align=center;fontColor=#FFFFFF;fontStyle=1" vertex="1" parent="1">
          <mxGeometry x="1374" y="2075" width="102" height="25" as="geometry" />
        </mxCell>
        <mxCell id="BgDW5pC34_x2A9uitIVd-332" value="间内VIP RPC" style="rounded=1;whiteSpace=wrap;html=1;" vertex="1" parent="1">
          <mxGeometry x="1529" y="2100" width="80" height="40" as="geometry" />
        </mxCell>
        <mxCell id="BgDW5pC34_x2A9uitIVd-333" value="活动特权 RPC" style="rounded=1;whiteSpace=wrap;html=1;" vertex="1" parent="1">
          <mxGeometry x="1638.5" y="2100" width="80" height="40" as="geometry" />
        </mxCell>
        <mxCell id="BgDW5pC34_x2A9uitIVd-334" value="用户认证 RPC" style="rounded=1;whiteSpace=wrap;html=1;" vertex="1" parent="1">
          <mxGeometry x="1757" y="2100" width="80" height="40" as="geometry" />
        </mxCell>
        <mxCell id="BgDW5pC34_x2A9uitIVd-335" value="管理员" style="rounded=1;whiteSpace=wrap;html=1;" vertex="1" parent="1">
          <mxGeometry x="1879" y="2100" width="80" height="40" as="geometry" />
        </mxCell>
        <mxCell id="BgDW5pC34_x2A9uitIVd-336" value="... ..." style="rounded=1;whiteSpace=wrap;html=1;" vertex="1" parent="1">
          <mxGeometry x="2007" y="2100" width="72" height="40" as="geometry" />
        </mxCell>
        <mxCell id="BgDW5pC34_x2A9uitIVd-337" value="" style="rounded=0;whiteSpace=wrap;html=1;strokeWidth=4;" vertex="1" parent="1">
          <mxGeometry x="2296" y="1455" width="170" height="710" as="geometry" />
        </mxCell>
        <mxCell id="BgDW5pC34_x2A9uitIVd-338" value="&lt;span&gt;中间件依赖&lt;/span&gt;" style="rounded=0;whiteSpace=wrap;html=1;strokeWidth=1;fillColor=#000000;fontFamily=Verdana;align=center;fontColor=#FFFFFF;fontStyle=1" vertex="1" parent="1">
          <mxGeometry x="2296" y="1455" width="102" height="25" as="geometry" />
        </mxCell>
        <mxCell id="BgDW5pC34_x2A9uitIVd-339" value="" style="shape=flexArrow;endArrow=classic;html=1;rounded=0;fillColor=#f5f5f5;strokeColor=#666666;" edge="1" parent="1">
          <mxGeometry width="50" height="50" relative="1" as="geometry">
            <mxPoint x="2234" y="1796.5" as="sourcePoint" />
            <mxPoint x="2294" y="1796.5" as="targetPoint" />
          </mxGeometry>
        </mxCell>
        <mxCell id="BgDW5pC34_x2A9uitIVd-340" value="调用" style="text;html=1;align=center;verticalAlign=middle;resizable=0;points=[];autosize=1;strokeColor=none;fillColor=none;" vertex="1" parent="1">
          <mxGeometry x="2234" y="1755" width="50" height="30" as="geometry" />
        </mxCell>
        <mxCell id="BgDW5pC34_x2A9uitIVd-341" value="" style="outlineConnect=0;fillColor=#D79B00;strokeColor=#d79b00;dashed=0;verticalLabelPosition=bottom;verticalAlign=top;align=center;html=1;fontSize=12;fontStyle=0;aspect=fixed;pointerEvents=1;shape=mxgraph.aws4.elasticache_for_memcached;" vertex="1" parent="1">
          <mxGeometry x="2361.2200000000003" y="1498.5" width="39.57" height="35" as="geometry" />
        </mxCell>
        <mxCell id="BgDW5pC34_x2A9uitIVd-342" value="&lt;span style=&quot;font-family: arial; font-size: 13px;&quot;&gt;liveCurrentLiving&lt;/span&gt;" style="text;html=1;strokeColor=none;fillColor=none;align=center;verticalAlign=middle;whiteSpace=wrap;rounded=0;" vertex="1" parent="1">
          <mxGeometry x="2300.79" y="1527.5" width="160.43" height="30" as="geometry" />
        </mxCell>
        <mxCell id="BgDW5pC34_x2A9uitIVd-343" value="" style="outlineConnect=0;fillColor=#D79B00;strokeColor=#d79b00;dashed=0;verticalLabelPosition=bottom;verticalAlign=top;align=center;html=1;fontSize=12;fontStyle=0;aspect=fixed;pointerEvents=1;shape=mxgraph.aws4.elasticache_for_memcached;" vertex="1" parent="1">
          <mxGeometry x="2361.2200000000003" y="1567.94" width="39.57" height="35" as="geometry" />
        </mxCell>
        <mxCell id="BgDW5pC34_x2A9uitIVd-344" value="&lt;span style=&quot;font-family: arial; font-size: 13px;&quot;&gt;liveStreamWatchingList&lt;/span&gt;" style="text;html=1;strokeColor=none;fillColor=none;align=center;verticalAlign=middle;whiteSpace=wrap;rounded=0;" vertex="1" parent="1">
          <mxGeometry x="2300.79" y="1598.6" width="160.43" height="30" as="geometry" />
        </mxCell>
        <mxCell id="BgDW5pC34_x2A9uitIVd-345" value="" style="outlineConnect=0;fillColor=#D79B00;strokeColor=#d79b00;dashed=0;verticalLabelPosition=bottom;verticalAlign=top;align=center;html=1;fontSize=12;fontStyle=0;aspect=fixed;pointerEvents=1;shape=mxgraph.aws4.elasticache_for_memcached;" vertex="1" parent="1">
          <mxGeometry x="2361.2200000000003" y="1634.5499999999997" width="39.57" height="35" as="geometry" />
        </mxCell>
        <mxCell id="BgDW5pC34_x2A9uitIVd-346" value="&lt;span style=&quot;font-family: arial; font-size: 13px;&quot;&gt;liveUserRoleInfo&lt;/span&gt;" style="text;html=1;strokeColor=none;fillColor=none;align=center;verticalAlign=middle;whiteSpace=wrap;rounded=0;" vertex="1" parent="1">
          <mxGeometry x="2300.79" y="1666.2099999999996" width="160.43" height="30" as="geometry" />
        </mxCell>
        <mxCell id="BgDW5pC34_x2A9uitIVd-347" value="" style="outlineConnect=0;fillColor=#D79B00;strokeColor=#d79b00;dashed=0;verticalLabelPosition=bottom;verticalAlign=top;align=center;html=1;fontSize=12;fontStyle=0;aspect=fixed;pointerEvents=1;shape=mxgraph.aws4.elasticache_for_memcached;" vertex="1" parent="1">
          <mxGeometry x="2361.2200000000003" y="1699.85" width="39.57" height="35" as="geometry" />
        </mxCell>
        <mxCell id="BgDW5pC34_x2A9uitIVd-348" value="&lt;span style=&quot;font-family: arial; font-size: 13px;&quot;&gt;liveStreamStateView&lt;/span&gt;" style="text;html=1;strokeColor=none;fillColor=none;align=center;verticalAlign=middle;whiteSpace=wrap;rounded=0;" vertex="1" parent="1">
          <mxGeometry x="2300.79" y="1728.85" width="160.43" height="30" as="geometry" />
        </mxCell>
        <mxCell id="BgDW5pC34_x2A9uitIVd-349" value="" style="outlineConnect=0;fillColor=#D79B00;strokeColor=#d79b00;dashed=0;verticalLabelPosition=bottom;verticalAlign=top;align=center;html=1;fontSize=12;fontStyle=0;aspect=fixed;pointerEvents=1;shape=mxgraph.aws4.elasticache_for_memcached;" vertex="1" parent="1">
          <mxGeometry x="2361.2200000000003" y="1769.29" width="39.57" height="35" as="geometry" />
        </mxCell>
        <mxCell id="BgDW5pC34_x2A9uitIVd-350" value="&lt;span style=&quot;font-family: arial; font-size: 13px;&quot;&gt;liveStreamCache&lt;/span&gt;" style="text;html=1;strokeColor=none;fillColor=none;align=center;verticalAlign=middle;whiteSpace=wrap;rounded=0;" vertex="1" parent="1">
          <mxGeometry x="2300.79" y="1799.9499999999998" width="160.43" height="30" as="geometry" />
        </mxCell>
        <mxCell id="BgDW5pC34_x2A9uitIVd-351" value="" style="outlineConnect=0;fillColor=#D79B00;strokeColor=#d79b00;dashed=0;verticalLabelPosition=bottom;verticalAlign=top;align=center;html=1;fontSize=12;fontStyle=0;aspect=fixed;pointerEvents=1;shape=mxgraph.aws4.elasticache_for_memcached;" vertex="1" parent="1">
          <mxGeometry x="2361.2200000000003" y="1835.8999999999996" width="39.57" height="35" as="geometry" />
        </mxCell>
        <mxCell id="BgDW5pC34_x2A9uitIVd-352" value="&lt;span style=&quot;font-family: arial; font-size: 13px;&quot;&gt;liveFansGroup&lt;/span&gt;" style="text;html=1;strokeColor=none;fillColor=none;align=center;verticalAlign=middle;whiteSpace=wrap;rounded=0;" vertex="1" parent="1">
          <mxGeometry x="2300.79" y="1867.5599999999995" width="160.43" height="30" as="geometry" />
        </mxCell>
        <mxCell id="BgDW5pC34_x2A9uitIVd-353" value="" style="outlineConnect=0;fontColor=#232F3E;gradientColor=none;fillColor=#3334B9;strokeColor=none;dashed=0;verticalLabelPosition=bottom;verticalAlign=top;align=center;html=1;fontSize=12;fontStyle=0;aspect=fixed;pointerEvents=1;shape=mxgraph.aws4.elasticache_for_redis;" vertex="1" parent="1">
          <mxGeometry x="2358.3900000000003" y="1905" width="45.22" height="40" as="geometry" />
        </mxCell>
        <mxCell id="BgDW5pC34_x2A9uitIVd-354" value="&lt;span style=&quot;font-family: arial; font-size: 13px;&quot;&gt;liveUserTag&lt;/span&gt;" style="text;html=1;strokeColor=none;fillColor=none;align=center;verticalAlign=middle;whiteSpace=wrap;rounded=0;" vertex="1" parent="1">
          <mxGeometry x="2300.79" y="1944.9999999999995" width="160.43" height="30" as="geometry" />
        </mxCell>
        <mxCell id="BgDW5pC34_x2A9uitIVd-355" value="" style="outlineConnect=0;fontColor=#232F3E;gradientColor=none;fillColor=#3334B9;strokeColor=none;dashed=0;verticalLabelPosition=bottom;verticalAlign=top;align=center;html=1;fontSize=12;fontStyle=0;aspect=fixed;pointerEvents=1;shape=mxgraph.aws4.elasticache_for_redis;" vertex="1" parent="1">
          <mxGeometry x="2358.3900000000003" y="1976.5" width="45.22" height="40" as="geometry" />
        </mxCell>
        <mxCell id="BgDW5pC34_x2A9uitIVd-356" value="" style="outlineConnect=0;fontColor=#232F3E;gradientColor=none;fillColor=#3334B9;strokeColor=none;dashed=0;verticalLabelPosition=bottom;verticalAlign=top;align=center;html=1;fontSize=12;fontStyle=0;aspect=fixed;pointerEvents=1;shape=mxgraph.aws4.elasticache_for_redis;" vertex="1" parent="1">
          <mxGeometry x="2358.38" y="2054" width="45.22" height="40" as="geometry" />
        </mxCell>
        <mxCell id="BgDW5pC34_x2A9uitIVd-357" value="&lt;span style=&quot;color: rgb(0, 0, 0); font-family: arial; font-size: 13px; font-style: normal; font-variant-ligatures: normal; font-variant-caps: normal; font-weight: 400; letter-spacing: normal; orphans: 2; text-align: center; text-indent: 0px; text-transform: none; widows: 2; word-spacing: 0px; -webkit-text-stroke-width: 0px; background-color: rgb(248, 249, 250); text-decoration-thickness: initial; text-decoration-style: initial; text-decoration-color: initial; float: none; display: inline !important;&quot;&gt;liveFansGroupFollow&lt;/span&gt;" style="text;whiteSpace=wrap;html=1;fontSize=12;" vertex="1" parent="1">
          <mxGeometry x="2321" y="2016.5" width="120" height="40" as="geometry" />
        </mxCell>
        <mxCell id="BgDW5pC34_x2A9uitIVd-358" value="&lt;span style=&quot;color: rgb(0, 0, 0); font-family: arial; font-size: 13px; font-style: normal; font-variant-ligatures: normal; font-variant-caps: normal; font-weight: 400; letter-spacing: normal; orphans: 2; text-align: center; text-indent: 0px; text-transform: none; widows: 2; word-spacing: 0px; -webkit-text-stroke-width: 0px; background-color: rgb(248, 249, 250); text-decoration-thickness: initial; text-decoration-style: initial; text-decoration-color: initial; float: none; display: inline !important;&quot;&gt;liveSplitRank&lt;/span&gt;" style="text;whiteSpace=wrap;html=1;fontSize=12;" vertex="1" parent="1">
          <mxGeometry x="2341.2200000000003" y="2094" width="120" height="40" as="geometry" />
        </mxCell>
        <mxCell id="BgDW5pC34_x2A9uitIVd-359" value="&lt;div style=&quot;text-align: center;&quot;&gt;&lt;span style=&quot;background-color: initial; font-size: 13px;&quot;&gt;&lt;font face=&quot;arial&quot;&gt;... ....&lt;/font&gt;&lt;/span&gt;&lt;/div&gt;" style="text;whiteSpace=wrap;html=1;fontSize=12;" vertex="1" parent="1">
          <mxGeometry x="2361.2200000000003" y="2115" width="120" height="40" as="geometry" />
        </mxCell>
        <mxCell id="BgDW5pC34_x2A9uitIVd-360" value="" style="rounded=0;whiteSpace=wrap;html=1;strokeWidth=4;" vertex="1" parent="1">
          <mxGeometry x="1343.9" y="3141.96" width="1066.1" height="200" as="geometry" />
        </mxCell>
        <mxCell id="BgDW5pC34_x2A9uitIVd-361" value="" style="rounded=0;whiteSpace=wrap;html=1;strokeWidth=4;" vertex="1" parent="1">
          <mxGeometry x="1343.9" y="2671.96" width="1066.1" height="450" as="geometry" />
        </mxCell>
        <mxCell id="BgDW5pC34_x2A9uitIVd-362" value="" style="rounded=0;whiteSpace=wrap;html=1;fillColor=#f5f5f5;fontColor=#333333;strokeColor=#666666;" vertex="1" parent="1">
          <mxGeometry x="1620" y="2961.96" width="750" height="100" as="geometry" />
        </mxCell>
        <mxCell id="BgDW5pC34_x2A9uitIVd-363" value="" style="rounded=1;whiteSpace=wrap;html=1;" vertex="1" parent="1">
          <mxGeometry x="1354" y="3211.96" width="480" height="108.51" as="geometry" />
        </mxCell>
        <mxCell id="BgDW5pC34_x2A9uitIVd-364" value="" style="rounded=1;whiteSpace=wrap;html=1;" vertex="1" parent="1">
          <mxGeometry x="2054" y="3211.96" width="340" height="108.51" as="geometry" />
        </mxCell>
        <mxCell id="BgDW5pC34_x2A9uitIVd-365" value="" style="rounded=1;whiteSpace=wrap;html=1;" vertex="1" parent="1">
          <mxGeometry x="1844" y="3211.96" width="190" height="108.51" as="geometry" />
        </mxCell>
        <mxCell id="BgDW5pC34_x2A9uitIVd-366" value="" style="rounded=0;whiteSpace=wrap;html=1;fillColor=#f5f5f5;fontColor=#333333;strokeColor=#666666;" vertex="1" parent="1">
          <mxGeometry x="1354" y="2801.96" width="1040" height="120" as="geometry" />
        </mxCell>
        <mxCell id="BgDW5pC34_x2A9uitIVd-367" value="" style="edgeStyle=orthogonalEdgeStyle;rounded=0;orthogonalLoop=1;jettySize=auto;html=1;entryX=0;entryY=0.5;entryDx=0;entryDy=0;" edge="1" parent="1" source="BgDW5pC34_x2A9uitIVd-368" target="BgDW5pC34_x2A9uitIVd-375">
          <mxGeometry relative="1" as="geometry">
            <mxPoint x="1534" y="2861.96" as="targetPoint" />
          </mxGeometry>
        </mxCell>
        <mxCell id="BgDW5pC34_x2A9uitIVd-368" value="开始" style="ellipse;whiteSpace=wrap;html=1;aspect=fixed;" vertex="1" parent="1">
          <mxGeometry x="1494" y="2841.96" width="50" height="50" as="geometry" />
        </mxCell>
        <mxCell id="BgDW5pC34_x2A9uitIVd-369" value="" style="edgeStyle=orthogonalEdgeStyle;rounded=0;orthogonalLoop=1;jettySize=auto;html=1;" edge="1" parent="1" source="BgDW5pC34_x2A9uitIVd-370" target="BgDW5pC34_x2A9uitIVd-372">
          <mxGeometry relative="1" as="geometry" />
        </mxCell>
        <mxCell id="BgDW5pC34_x2A9uitIVd-370" value="各业务插件标签查询" style="rounded=1;whiteSpace=wrap;html=1;" vertex="1" parent="1">
          <mxGeometry x="1885" y="2836.96" width="120" height="60" as="geometry" />
        </mxCell>
        <mxCell id="BgDW5pC34_x2A9uitIVd-371" value="" style="edgeStyle=orthogonalEdgeStyle;rounded=0;orthogonalLoop=1;jettySize=auto;html=1;" edge="1" parent="1" source="BgDW5pC34_x2A9uitIVd-372" target="BgDW5pC34_x2A9uitIVd-373">
          <mxGeometry relative="1" as="geometry" />
        </mxCell>
        <mxCell id="BgDW5pC34_x2A9uitIVd-372" value="组装数据" style="whiteSpace=wrap;html=1;rounded=1;" vertex="1" parent="1">
          <mxGeometry x="2175.9" y="2838.96" width="73.1" height="55" as="geometry" />
        </mxCell>
        <mxCell id="BgDW5pC34_x2A9uitIVd-373" value="结束" style="ellipse;whiteSpace=wrap;html=1;aspect=fixed;" vertex="1" parent="1">
          <mxGeometry x="2305.9" y="2841.46" width="50" height="50" as="geometry" />
        </mxCell>
        <mxCell id="BgDW5pC34_x2A9uitIVd-374" value="" style="edgeStyle=orthogonalEdgeStyle;rounded=0;orthogonalLoop=1;jettySize=auto;html=1;entryX=0;entryY=0.5;entryDx=0;entryDy=0;" edge="1" parent="1" source="BgDW5pC34_x2A9uitIVd-375" target="BgDW5pC34_x2A9uitIVd-370">
          <mxGeometry relative="1" as="geometry">
            <mxPoint x="1789" y="2866.96" as="targetPoint" />
          </mxGeometry>
        </mxCell>
        <mxCell id="BgDW5pC34_x2A9uitIVd-375" value="查询直播通用数据" style="rounded=1;whiteSpace=wrap;html=1;" vertex="1" parent="1">
          <mxGeometry x="1604" y="2836.46" width="120" height="60" as="geometry" />
        </mxCell>
        <mxCell id="BgDW5pC34_x2A9uitIVd-376" value="&lt;b&gt;用户身份标签服务：&lt;/b&gt;" style="text;html=1;strokeColor=none;fillColor=none;align=center;verticalAlign=middle;whiteSpace=wrap;rounded=0;" vertex="1" parent="1">
          <mxGeometry x="1374" y="2846.46" width="110" height="40" as="geometry" />
        </mxCell>
        <mxCell id="BgDW5pC34_x2A9uitIVd-377" value="" style="rounded=0;orthogonalLoop=1;jettySize=auto;html=1;exitX=0.5;exitY=1;exitDx=0;exitDy=0;strokeColor=#FF0000;" edge="1" parent="1" source="BgDW5pC34_x2A9uitIVd-378" target="BgDW5pC34_x2A9uitIVd-420">
          <mxGeometry relative="1" as="geometry">
            <mxPoint x="1493.7830555555556" y="3231.4700000000003" as="targetPoint" />
          </mxGeometry>
        </mxCell>
        <mxCell id="BgDW5pC34_x2A9uitIVd-378" value="用户榜单插件" style="rounded=0;whiteSpace=wrap;html=1;fillColor=#f8cecc;strokeColor=#b85450;" vertex="1" parent="1">
          <mxGeometry x="1730" y="2981.96" width="120" height="60" as="geometry" />
        </mxCell>
        <mxCell id="BgDW5pC34_x2A9uitIVd-379" value="管理员插件" style="rounded=0;whiteSpace=wrap;html=1;fillColor=#f8cecc;strokeColor=#b85450;" vertex="1" parent="1">
          <mxGeometry x="1892.1" y="2981.96" width="120" height="60" as="geometry" />
        </mxCell>
        <mxCell id="BgDW5pC34_x2A9uitIVd-380" value="粉丝团插件" style="rounded=0;whiteSpace=wrap;html=1;fillColor=#f8cecc;strokeColor=#b85450;" vertex="1" parent="1">
          <mxGeometry x="2053.1" y="2981.96" width="120" height="60" as="geometry" />
        </mxCell>
        <mxCell id="BgDW5pC34_x2A9uitIVd-381" value="其他插件" style="rounded=0;whiteSpace=wrap;html=1;" vertex="1" parent="1">
          <mxGeometry x="2207.1" y="2981.96" width="120" height="60" as="geometry" />
        </mxCell>
        <mxCell id="BgDW5pC34_x2A9uitIVd-382" value="&lt;font style=&quot;font-size: 9px;&quot;&gt;榜单基本信息&lt;br&gt;&lt;br&gt;&lt;/font&gt;" style="text;html=1;strokeColor=none;fillColor=none;align=center;verticalAlign=middle;whiteSpace=wrap;rounded=0;" vertex="1" parent="1">
          <mxGeometry x="1380.31" y="3303.33" width="73.73" height="19.43" as="geometry" />
        </mxCell>
        <mxCell id="BgDW5pC34_x2A9uitIVd-383" value="&lt;font style=&quot;font-size: 9px;&quot;&gt;&lt;br&gt;用户基本信息&lt;br&gt;&lt;/font&gt;" style="text;html=1;strokeColor=none;fillColor=none;align=center;verticalAlign=middle;whiteSpace=wrap;rounded=0;" vertex="1" parent="1">
          <mxGeometry x="1454.04" y="3288.44" width="79.48" height="20.07" as="geometry" />
        </mxCell>
        <mxCell id="BgDW5pC34_x2A9uitIVd-384" value="&lt;font style=&quot;font-size: 9px;&quot;&gt;&lt;br&gt;用户角色&lt;br&gt;&lt;/font&gt;" style="text;html=1;strokeColor=none;fillColor=none;align=center;verticalAlign=middle;whiteSpace=wrap;rounded=0;" vertex="1" parent="1">
          <mxGeometry x="1540.29" y="3284.48" width="57.98" height="28" as="geometry" />
        </mxCell>
        <mxCell id="BgDW5pC34_x2A9uitIVd-385" value="主播粉丝数RPC" style="rounded=1;whiteSpace=wrap;html=1;" vertex="1" parent="1">
          <mxGeometry x="1675.5633333333335" y="3246.71" width="73.33333333333336" height="40.000000000000014" as="geometry" />
        </mxCell>
        <mxCell id="BgDW5pC34_x2A9uitIVd-386" value="主播作品数RPC" style="rounded=1;whiteSpace=wrap;html=1;" vertex="1" parent="1">
          <mxGeometry x="1753.3333333333335" y="3246.71" width="73.33333333333336" height="39.000000000000014" as="geometry" />
        </mxCell>
        <mxCell id="BgDW5pC34_x2A9uitIVd-387" value="&lt;font style=&quot;font-size: 9px;&quot;&gt;ACU&lt;br&gt;&lt;br&gt;&lt;/font&gt;" style="text;html=1;strokeColor=none;fillColor=none;align=center;verticalAlign=middle;whiteSpace=wrap;rounded=0;" vertex="1" parent="1">
          <mxGeometry x="1622.0963888888891" y="3299.4700000000003" width="36.66666666666668" height="27.142857142857153" as="geometry" />
        </mxCell>
        <mxCell id="BgDW5pC34_x2A9uitIVd-388" value="&lt;font style=&quot;font-size: 9px;&quot;&gt;管理员信息&lt;br&gt;&lt;/font&gt;" style="text;html=1;strokeColor=none;fillColor=none;align=center;verticalAlign=middle;whiteSpace=wrap;rounded=0;" vertex="1" parent="1">
          <mxGeometry x="1868" y="3291.45" width="73.73" height="19.43" as="geometry" />
        </mxCell>
        <mxCell id="BgDW5pC34_x2A9uitIVd-389" value="&lt;font style=&quot;font-size: 9px;&quot;&gt;当前直播信息&lt;br&gt;&lt;/font&gt;" style="text;html=1;strokeColor=none;fillColor=none;align=center;verticalAlign=middle;whiteSpace=wrap;rounded=0;" vertex="1" parent="1">
          <mxGeometry x="1952.42" y="3292.41" width="79.48" height="20.07" as="geometry" />
        </mxCell>
        <mxCell id="BgDW5pC34_x2A9uitIVd-390" value="&lt;font style=&quot;font-size: 9px;&quot;&gt;主播粉丝团&lt;br&gt;&lt;/font&gt;" style="text;html=1;strokeColor=none;fillColor=none;align=center;verticalAlign=middle;whiteSpace=wrap;rounded=0;" vertex="1" parent="1">
          <mxGeometry x="2059.03" y="3291.13" width="79.48" height="20.07" as="geometry" />
        </mxCell>
        <mxCell id="BgDW5pC34_x2A9uitIVd-391" value="&lt;font style=&quot;font-size: 9px;&quot;&gt;用户加入粉丝团&lt;br&gt;&lt;/font&gt;" style="text;html=1;strokeColor=none;fillColor=none;align=center;verticalAlign=middle;whiteSpace=wrap;rounded=0;" vertex="1" parent="1">
          <mxGeometry x="2138.5099999999998" y="3287.17" width="88.73" height="27.99" as="geometry" />
        </mxCell>
        <mxCell id="BgDW5pC34_x2A9uitIVd-392" value="粉丝团勋章RPC" style="rounded=1;whiteSpace=wrap;html=1;" vertex="1" parent="1">
          <mxGeometry x="2294.2333333333336" y="3245.71" width="73.33333333333336" height="40.000000000000014" as="geometry" />
        </mxCell>
        <mxCell id="BgDW5pC34_x2A9uitIVd-393" value="&lt;font style=&quot;font-size: 9px;&quot;&gt;亲密值&lt;br&gt;&lt;/font&gt;" style="text;html=1;strokeColor=none;fillColor=none;align=center;verticalAlign=middle;whiteSpace=wrap;rounded=0;" vertex="1" parent="1">
          <mxGeometry x="2227.2400000000002" y="3289.67" width="56.92" height="23" as="geometry" />
        </mxCell>
        <mxCell id="BgDW5pC34_x2A9uitIVd-394" value="" style="endArrow=classic;html=1;rounded=0;exitX=0.5;exitY=1;exitDx=0;exitDy=0;" edge="1" parent="1" source="BgDW5pC34_x2A9uitIVd-378" target="BgDW5pC34_x2A9uitIVd-419">
          <mxGeometry width="50" height="50" relative="1" as="geometry">
            <mxPoint x="1960" y="3481.96" as="sourcePoint" />
            <mxPoint x="1420.6472222222224" y="3231.4700000000003" as="targetPoint" />
          </mxGeometry>
        </mxCell>
        <mxCell id="BgDW5pC34_x2A9uitIVd-395" value="" style="rounded=0;orthogonalLoop=1;jettySize=auto;html=1;strokeColor=#FF0000;" edge="1" parent="1" target="BgDW5pC34_x2A9uitIVd-421">
          <mxGeometry relative="1" as="geometry">
            <mxPoint x="1790" y="3041.96" as="sourcePoint" />
            <mxPoint x="1571.5330555555556" y="3231.4700000000003" as="targetPoint" />
          </mxGeometry>
        </mxCell>
        <mxCell id="BgDW5pC34_x2A9uitIVd-396" value="" style="rounded=0;orthogonalLoop=1;jettySize=auto;html=1;exitX=0.5;exitY=1;exitDx=0;exitDy=0;strokeColor=#FF0000;" edge="1" parent="1" source="BgDW5pC34_x2A9uitIVd-378" target="BgDW5pC34_x2A9uitIVd-422">
          <mxGeometry relative="1" as="geometry">
            <mxPoint x="1795" y="3071.96" as="sourcePoint" />
            <mxPoint x="1640.4297222222222" y="3231.4700000000003" as="targetPoint" />
          </mxGeometry>
        </mxCell>
        <mxCell id="BgDW5pC34_x2A9uitIVd-397" value="" style="rounded=0;orthogonalLoop=1;jettySize=auto;html=1;entryX=0.5;entryY=0;entryDx=0;entryDy=0;exitX=0.5;exitY=1;exitDx=0;exitDy=0;strokeColor=#FF0000;" edge="1" parent="1" source="BgDW5pC34_x2A9uitIVd-378" target="BgDW5pC34_x2A9uitIVd-385">
          <mxGeometry relative="1" as="geometry">
            <mxPoint x="1805" y="3081.96" as="sourcePoint" />
            <mxPoint x="1530" y="3192.96" as="targetPoint" />
          </mxGeometry>
        </mxCell>
        <mxCell id="BgDW5pC34_x2A9uitIVd-398" value="" style="rounded=0;orthogonalLoop=1;jettySize=auto;html=1;exitX=0.5;exitY=1;exitDx=0;exitDy=0;strokeColor=#FF0000;" edge="1" parent="1" source="BgDW5pC34_x2A9uitIVd-378" target="BgDW5pC34_x2A9uitIVd-386">
          <mxGeometry relative="1" as="geometry">
            <mxPoint x="1815" y="3091.96" as="sourcePoint" />
            <mxPoint x="1540" y="3202.96" as="targetPoint" />
          </mxGeometry>
        </mxCell>
        <mxCell id="BgDW5pC34_x2A9uitIVd-399" value="" style="rounded=0;orthogonalLoop=1;jettySize=auto;html=1;exitX=0.5;exitY=1;exitDx=0;exitDy=0;strokeColor=#FF0000;" edge="1" parent="1" source="BgDW5pC34_x2A9uitIVd-379" target="BgDW5pC34_x2A9uitIVd-423">
          <mxGeometry relative="1" as="geometry">
            <mxPoint x="1825" y="3101.96" as="sourcePoint" />
            <mxPoint x="1908.337222222222" y="3229.4700000000003" as="targetPoint" />
          </mxGeometry>
        </mxCell>
        <mxCell id="BgDW5pC34_x2A9uitIVd-400" value="" style="rounded=0;orthogonalLoop=1;jettySize=auto;html=1;exitX=0.5;exitY=1;exitDx=0;exitDy=0;" edge="1" parent="1" source="BgDW5pC34_x2A9uitIVd-379" target="BgDW5pC34_x2A9uitIVd-424">
          <mxGeometry relative="1" as="geometry">
            <mxPoint x="1835" y="3111.96" as="sourcePoint" />
            <mxPoint x="1981.4730555555557" y="3229.4700000000003" as="targetPoint" />
          </mxGeometry>
        </mxCell>
        <mxCell id="BgDW5pC34_x2A9uitIVd-401" value="" style="rounded=0;orthogonalLoop=1;jettySize=auto;html=1;exitX=0.5;exitY=1;exitDx=0;exitDy=0;strokeColor=#FF3333;" edge="1" parent="1" source="BgDW5pC34_x2A9uitIVd-380" target="BgDW5pC34_x2A9uitIVd-425">
          <mxGeometry relative="1" as="geometry">
            <mxPoint x="1845" y="3121.96" as="sourcePoint" />
            <mxPoint x="2098.7630555555556" y="3229.4700000000003" as="targetPoint" />
          </mxGeometry>
        </mxCell>
        <mxCell id="BgDW5pC34_x2A9uitIVd-402" value="" style="rounded=0;orthogonalLoop=1;jettySize=auto;html=1;exitX=0.5;exitY=1;exitDx=0;exitDy=0;" edge="1" parent="1" source="BgDW5pC34_x2A9uitIVd-380" target="BgDW5pC34_x2A9uitIVd-426">
          <mxGeometry relative="1" as="geometry">
            <mxPoint x="1855" y="3131.96" as="sourcePoint" />
            <mxPoint x="2176.513055555555" y="3229.4700000000003" as="targetPoint" />
          </mxGeometry>
        </mxCell>
        <mxCell id="BgDW5pC34_x2A9uitIVd-403" value="" style="rounded=0;orthogonalLoop=1;jettySize=auto;html=1;exitX=0.5;exitY=1;exitDx=0;exitDy=0;" edge="1" parent="1" source="BgDW5pC34_x2A9uitIVd-380" target="BgDW5pC34_x2A9uitIVd-427">
          <mxGeometry relative="1" as="geometry">
            <mxPoint x="1865" y="3141.96" as="sourcePoint" />
            <mxPoint x="2256.6497222222224" y="3229.4700000000003" as="targetPoint" />
          </mxGeometry>
        </mxCell>
        <mxCell id="BgDW5pC34_x2A9uitIVd-404" value="" style="rounded=0;orthogonalLoop=1;jettySize=auto;html=1;entryX=0.5;entryY=0;entryDx=0;entryDy=0;exitX=0.5;exitY=1;exitDx=0;exitDy=0;" edge="1" parent="1" source="BgDW5pC34_x2A9uitIVd-380" target="BgDW5pC34_x2A9uitIVd-392">
          <mxGeometry relative="1" as="geometry">
            <mxPoint x="1885" y="3161.96" as="sourcePoint" />
            <mxPoint x="1610" y="3272.96" as="targetPoint" />
          </mxGeometry>
        </mxCell>
        <mxCell id="BgDW5pC34_x2A9uitIVd-405" value="使用localCache&lt;br&gt;减少对memcached调用" style="text;html=1;align=center;verticalAlign=middle;resizable=0;points=[];autosize=1;strokeColor=none;fillColor=none;fontColor=#FF0000;" vertex="1" parent="1">
          <mxGeometry x="2255.9" y="3071.96" width="150" height="40" as="geometry" />
        </mxCell>
        <mxCell id="BgDW5pC34_x2A9uitIVd-406" value="" style="endArrow=classic;html=1;rounded=0;entryX=-0.006;entryY=0.586;entryDx=0;entryDy=0;entryPerimeter=0;dashed=1;strokeColor=#FF0000;" edge="1" parent="1" target="BgDW5pC34_x2A9uitIVd-405">
          <mxGeometry width="50" height="50" relative="1" as="geometry">
            <mxPoint x="2100" y="3111.96" as="sourcePoint" />
            <mxPoint x="2145.9" y="3431.96" as="targetPoint" />
          </mxGeometry>
        </mxCell>
        <mxCell id="BgDW5pC34_x2A9uitIVd-407" value="批量判断是否为管理员&lt;br&gt;多次调用优化为1次" style="text;html=1;align=center;verticalAlign=middle;resizable=0;points=[];autosize=1;strokeColor=none;fillColor=none;fontColor=#FF0000;" vertex="1" parent="1">
          <mxGeometry x="1972.73" y="3061.96" width="140" height="40" as="geometry" />
        </mxCell>
        <mxCell id="BgDW5pC34_x2A9uitIVd-408" value="" style="endArrow=classic;html=1;rounded=0;dashed=1;strokeColor=#FF0000;" edge="1" parent="1" target="BgDW5pC34_x2A9uitIVd-407">
          <mxGeometry width="50" height="50" relative="1" as="geometry">
            <mxPoint x="1930" y="3111.96" as="sourcePoint" />
            <mxPoint x="2299" y="3109.96" as="targetPoint" />
          </mxGeometry>
        </mxCell>
        <mxCell id="BgDW5pC34_x2A9uitIVd-409" value="去除无用的memcached及rpc调用" style="text;html=1;align=center;verticalAlign=middle;resizable=0;points=[];autosize=1;strokeColor=none;fillColor=none;fontColor=#FF0000;" vertex="1" parent="1">
          <mxGeometry x="1365" y="3066.96" width="200" height="30" as="geometry" />
        </mxCell>
        <mxCell id="BgDW5pC34_x2A9uitIVd-410" value="" style="endArrow=classic;html=1;rounded=0;dashed=1;strokeColor=#FF0000;" edge="1" parent="1" target="BgDW5pC34_x2A9uitIVd-409">
          <mxGeometry width="50" height="50" relative="1" as="geometry">
            <mxPoint x="1790" y="3121.96" as="sourcePoint" />
            <mxPoint x="1996" y="3118.96" as="targetPoint" />
          </mxGeometry>
        </mxCell>
        <mxCell id="BgDW5pC34_x2A9uitIVd-411" value="" style="shape=flexArrow;endArrow=classic;html=1;rounded=0;exitX=0.5;exitY=1;exitDx=0;exitDy=0;entryX=0.433;entryY=-0.02;entryDx=0;entryDy=0;entryPerimeter=0;" edge="1" parent="1" source="BgDW5pC34_x2A9uitIVd-370" target="BgDW5pC34_x2A9uitIVd-362">
          <mxGeometry width="50" height="50" relative="1" as="geometry">
            <mxPoint x="1960" y="3221.96" as="sourcePoint" />
            <mxPoint x="1945" y="2951.96" as="targetPoint" />
          </mxGeometry>
        </mxCell>
        <mxCell id="BgDW5pC34_x2A9uitIVd-412" value="说明: 图中红色表示被优化部分" style="text;html=1;strokeColor=none;fillColor=none;align=center;verticalAlign=middle;whiteSpace=wrap;rounded=0;fontSize=14;fontColor=#FF0000;fontStyle=1" vertex="1" parent="1">
          <mxGeometry x="1340" y="2731.96" width="250" height="50" as="geometry" />
        </mxCell>
        <mxCell id="BgDW5pC34_x2A9uitIVd-413" value="" style="endArrow=classic;html=1;rounded=0;strokeColor=#330000;fontSize=14;fontColor=#FF0000;fillColor=none;exitX=0.5;exitY=0;exitDx=0;exitDy=0;entryX=0.5;entryY=0;entryDx=0;entryDy=0;edgeStyle=orthogonalEdgeStyle;curved=1;" edge="1" parent="1" source="BgDW5pC34_x2A9uitIVd-375" target="BgDW5pC34_x2A9uitIVd-370">
          <mxGeometry width="50" height="50" relative="1" as="geometry">
            <mxPoint x="1700" y="2791.96" as="sourcePoint" />
            <mxPoint x="1750" y="2741.96" as="targetPoint" />
            <Array as="points">
              <mxPoint x="1664" y="2781.96" />
              <mxPoint x="1945" y="2781.96" />
            </Array>
          </mxGeometry>
        </mxCell>
        <mxCell id="BgDW5pC34_x2A9uitIVd-414" value="liveStream对象传入各插件&lt;br&gt;避免插件内部重复查询" style="text;html=1;align=center;verticalAlign=middle;resizable=0;points=[];autosize=1;strokeColor=none;fillColor=none;fontColor=#FF0000;" vertex="1" parent="1">
          <mxGeometry x="1725" y="2736.96" width="160" height="40" as="geometry" />
        </mxCell>
        <mxCell id="BgDW5pC34_x2A9uitIVd-415" value="" style="endArrow=classic;html=1;rounded=0;strokeColor=#330000;fontSize=14;fontColor=#FF0000;fillColor=none;curved=1;entryX=0.75;entryY=0;entryDx=0;entryDy=0;exitX=0.492;exitY=1;exitDx=0;exitDy=0;exitPerimeter=0;" edge="1" parent="1" source="BgDW5pC34_x2A9uitIVd-416" target="BgDW5pC34_x2A9uitIVd-370">
          <mxGeometry width="50" height="50" relative="1" as="geometry">
            <mxPoint x="2010" y="2781.96" as="sourcePoint" />
            <mxPoint x="2100" y="2771.96" as="targetPoint" />
          </mxGeometry>
        </mxCell>
        <mxCell id="BgDW5pC34_x2A9uitIVd-416" value="仅主播侧展示的标签&lt;br&gt;过滤观众请求，提前返回" style="text;html=1;align=center;verticalAlign=middle;resizable=0;points=[];autosize=1;strokeColor=none;fillColor=none;fontColor=#FF0000;" vertex="1" parent="1">
          <mxGeometry x="1972.73" y="2736.96" width="160" height="40" as="geometry" />
        </mxCell>
        <mxCell id="BgDW5pC34_x2A9uitIVd-417" value="&lt;span&gt;用户身份标签服务&lt;/span&gt;" style="rounded=0;whiteSpace=wrap;html=1;strokeWidth=1;fillColor=#000000;fontFamily=Verdana;align=center;fontColor=#FFFFFF;fontStyle=1" vertex="1" parent="1">
          <mxGeometry x="1343.9" y="2671.96" width="102" height="25" as="geometry" />
        </mxCell>
        <mxCell id="BgDW5pC34_x2A9uitIVd-418" value="&lt;span&gt;中间件及RPC依赖&lt;/span&gt;" style="rounded=0;whiteSpace=wrap;html=1;strokeWidth=1;fillColor=#000000;fontFamily=Verdana;align=center;fontColor=#FFFFFF;fontStyle=1" vertex="1" parent="1">
          <mxGeometry x="1343.9" y="3141.96" width="102" height="25" as="geometry" />
        </mxCell>
        <mxCell id="BgDW5pC34_x2A9uitIVd-419" value="" style="outlineConnect=0;fillColor=#D79B00;strokeColor=#d79b00;dashed=0;verticalLabelPosition=bottom;verticalAlign=top;align=center;html=1;fontSize=12;fontStyle=0;aspect=fixed;pointerEvents=1;shape=mxgraph.aws4.elasticache_for_memcached;" vertex="1" parent="1">
          <mxGeometry x="1397.3900000000003" y="3248.7200000000003" width="39.57" height="35" as="geometry" />
        </mxCell>
        <mxCell id="BgDW5pC34_x2A9uitIVd-420" value="" style="outlineConnect=0;fillColor=#D79B00;strokeColor=#d79b00;dashed=0;verticalLabelPosition=bottom;verticalAlign=top;align=center;html=1;fontSize=12;fontStyle=0;aspect=fixed;pointerEvents=1;shape=mxgraph.aws4.elasticache_for_memcached;" vertex="1" parent="1">
          <mxGeometry x="1470.0000000000002" y="3248.71" width="39.57" height="35" as="geometry" />
        </mxCell>
        <mxCell id="BgDW5pC34_x2A9uitIVd-421" value="" style="outlineConnect=0;fillColor=#D79B00;strokeColor=#d79b00;dashed=0;verticalLabelPosition=bottom;verticalAlign=top;align=center;html=1;fontSize=12;fontStyle=0;aspect=fixed;pointerEvents=1;shape=mxgraph.aws4.elasticache_for_memcached;" vertex="1" parent="1">
          <mxGeometry x="1540.2900000000004" y="3249.48" width="39.57" height="35" as="geometry" />
        </mxCell>
        <mxCell id="BgDW5pC34_x2A9uitIVd-422" value="" style="outlineConnect=0;fillColor=#D79B00;strokeColor=#d79b00;dashed=0;verticalLabelPosition=bottom;verticalAlign=top;align=center;html=1;fontSize=12;fontStyle=0;aspect=fixed;pointerEvents=1;shape=mxgraph.aws4.elasticache_for_memcached;" vertex="1" parent="1">
          <mxGeometry x="1619.1900000000003" y="3248.71" width="39.57" height="35" as="geometry" />
        </mxCell>
        <mxCell id="BgDW5pC34_x2A9uitIVd-423" value="" style="outlineConnect=0;fillColor=#D79B00;strokeColor=#d79b00;dashed=0;verticalLabelPosition=bottom;verticalAlign=top;align=center;html=1;fontSize=12;fontStyle=0;aspect=fixed;pointerEvents=1;shape=mxgraph.aws4.elasticache_for_memcached;" vertex="1" parent="1">
          <mxGeometry x="1885.0800000000004" y="3246.71" width="39.57" height="35" as="geometry" />
        </mxCell>
        <mxCell id="BgDW5pC34_x2A9uitIVd-424" value="" style="outlineConnect=0;fillColor=#D79B00;strokeColor=#d79b00;dashed=0;verticalLabelPosition=bottom;verticalAlign=top;align=center;html=1;fontSize=12;fontStyle=0;aspect=fixed;pointerEvents=1;shape=mxgraph.aws4.elasticache_for_memcached;" vertex="1" parent="1">
          <mxGeometry x="1960.0000000000005" y="3248.71" width="39.57" height="35" as="geometry" />
        </mxCell>
        <mxCell id="BgDW5pC34_x2A9uitIVd-425" value="" style="outlineConnect=0;fillColor=#D79B00;strokeColor=#d79b00;dashed=0;verticalLabelPosition=bottom;verticalAlign=top;align=center;html=1;fontSize=12;fontStyle=0;aspect=fixed;pointerEvents=1;shape=mxgraph.aws4.elasticache_for_memcached;" vertex="1" parent="1">
          <mxGeometry x="2073.1600000000003" y="3248.71" width="39.57" height="35" as="geometry" />
        </mxCell>
        <mxCell id="BgDW5pC34_x2A9uitIVd-426" value="" style="outlineConnect=0;fontColor=#232F3E;gradientColor=none;fillColor=#3334B9;strokeColor=none;dashed=0;verticalLabelPosition=bottom;verticalAlign=top;align=center;html=1;fontSize=12;fontStyle=0;aspect=fixed;pointerEvents=1;shape=mxgraph.aws4.elasticache_for_redis;" vertex="1" parent="1">
          <mxGeometry x="2150" y="3246.21" width="45.22" height="40" as="geometry" />
        </mxCell>
        <mxCell id="BgDW5pC34_x2A9uitIVd-427" value="" style="outlineConnect=0;fontColor=#232F3E;gradientColor=none;fillColor=#3334B9;strokeColor=none;dashed=0;verticalLabelPosition=bottom;verticalAlign=top;align=center;html=1;fontSize=12;fontStyle=0;aspect=fixed;pointerEvents=1;shape=mxgraph.aws4.elasticache_for_redis;" vertex="1" parent="1">
          <mxGeometry x="2220" y="3249.48" width="45.22" height="40" as="geometry" />
        </mxCell>
        <mxCell id="BgDW5pC34_x2A9uitIVd-428" value="ApiRequestInfoInjectFilter&lt;br&gt;3.2%" style="rounded=0;whiteSpace=wrap;html=1;fillColor=#dae8fc;strokeColor=#6c8ebf;" vertex="1" parent="1">
          <mxGeometry x="3000" y="668.3499999999999" width="140" height="60" as="geometry" />
        </mxCell>
        <mxCell id="BgDW5pC34_x2A9uitIVd-429" value="KafkaLogFilter&lt;br&gt;5.98%" style="rounded=0;whiteSpace=wrap;html=1;fillColor=#dae8fc;strokeColor=#6c8ebf;" vertex="1" parent="1">
          <mxGeometry x="3140" y="668.3499999999999" width="120" height="60" as="geometry" />
        </mxCell>
        <mxCell id="BgDW5pC34_x2A9uitIVd-430" value="SigValidateFilter &lt;br&gt;4.93%" style="rounded=0;whiteSpace=wrap;html=1;fillColor=#dae8fc;strokeColor=#6c8ebf;" vertex="1" parent="1">
          <mxGeometry x="3260" y="668.3499999999999" width="120" height="60" as="geometry" />
        </mxCell>
        <mxCell id="BgDW5pC34_x2A9uitIVd-431" value="servlet分发DispatcherServlet.doDispatch&lt;br&gt;47.61%" style="rounded=0;whiteSpace=wrap;html=1;fillColor=none;" vertex="1" parent="1">
          <mxGeometry x="3500" y="668.3499999999999" width="820" height="60" as="geometry" />
        </mxCell>
        <mxCell id="BgDW5pC34_x2A9uitIVd-432" style="rounded=0;orthogonalLoop=1;jettySize=auto;html=1;exitX=0;exitY=0.5;exitDx=0;exitDy=0;dashed=1;" edge="1" parent="1" source="BgDW5pC34_x2A9uitIVd-433" target="BgDW5pC34_x2A9uitIVd-445">
          <mxGeometry relative="1" as="geometry" />
        </mxCell>
        <mxCell id="BgDW5pC34_x2A9uitIVd-433" value="预处理如拦截器&lt;br&gt;13.51%" style="rounded=0;whiteSpace=wrap;html=1;fillColor=none;" vertex="1" parent="1">
          <mxGeometry x="3500" y="608.3499999999999" width="480" height="60" as="geometry" />
        </mxCell>
        <mxCell id="BgDW5pC34_x2A9uitIVd-434" style="edgeStyle=none;rounded=0;orthogonalLoop=1;jettySize=auto;html=1;exitX=1;exitY=0.5;exitDx=0;exitDy=0;entryX=0.565;entryY=1;entryDx=0;entryDy=0;entryPerimeter=0;dashed=1;" edge="1" parent="1" source="BgDW5pC34_x2A9uitIVd-435" target="BgDW5pC34_x2A9uitIVd-446">
          <mxGeometry relative="1" as="geometry" />
        </mxCell>
        <mxCell id="BgDW5pC34_x2A9uitIVd-435" value="处理&lt;br&gt;32.93%" style="rounded=0;whiteSpace=wrap;html=1;fillColor=none;" vertex="1" parent="1">
          <mxGeometry x="3980" y="608.3499999999999" width="340" height="60" as="geometry" />
        </mxCell>
        <mxCell id="BgDW5pC34_x2A9uitIVd-436" value="返回值处理&lt;br&gt;9.22%" style="rounded=0;whiteSpace=wrap;html=1;fillColor=none;" vertex="1" parent="1">
          <mxGeometry x="3960" y="548.3499999999999" width="150" height="60" as="geometry" />
        </mxCell>
        <mxCell id="BgDW5pC34_x2A9uitIVd-437" value="业务controller&lt;br&gt;23.04%" style="rounded=0;whiteSpace=wrap;html=1;fillColor=#f8cecc;strokeColor=#b85450;" vertex="1" parent="1">
          <mxGeometry x="4110" y="548.3499999999999" width="210" height="60" as="geometry" />
        </mxCell>
        <mxCell id="BgDW5pC34_x2A9uitIVd-438" value="Memcached IO线程&lt;br&gt;15.68%" style="rounded=0;whiteSpace=wrap;html=1;fillColor=#e1d5e7;strokeColor=#9673a6;" vertex="1" parent="1">
          <mxGeometry x="4390" y="728.3499999999999" width="180" height="60" as="geometry" />
        </mxCell>
        <mxCell id="BgDW5pC34_x2A9uitIVd-439" value="GC&lt;br&gt;7.2%" style="rounded=0;whiteSpace=wrap;html=1;fillColor=#e1d5e7;strokeColor=#9673a6;" vertex="1" parent="1">
          <mxGeometry x="4570" y="728.3499999999999" width="130" height="60" as="geometry" />
        </mxCell>
        <mxCell id="BgDW5pC34_x2A9uitIVd-440" value="tomcat容器&lt;br&gt;67.88%" style="rounded=0;whiteSpace=wrap;html=1;fillColor=none;" vertex="1" parent="1">
          <mxGeometry x="3000" y="728.3499999999999" width="1390" height="60" as="geometry" />
        </mxCell>
        <mxCell id="BgDW5pC34_x2A9uitIVd-441" value="kafka IO线程&lt;br&gt;3.08%" style="rounded=0;whiteSpace=wrap;html=1;fillColor=#e1d5e7;strokeColor=#9673a6;" vertex="1" parent="1">
          <mxGeometry x="2880" y="728.3499999999999" width="120" height="60" as="geometry" />
        </mxCell>
        <mxCell id="BgDW5pC34_x2A9uitIVd-442" value="线程池worker&lt;br&gt;3.53%&lt;br&gt;" style="rounded=0;whiteSpace=wrap;html=1;fillColor=none;" vertex="1" parent="1">
          <mxGeometry x="2750" y="728.3499999999999" width="130" height="60" as="geometry" />
        </mxCell>
        <mxCell id="BgDW5pC34_x2A9uitIVd-443" value="其他各类filter&lt;br&gt;4.19%" style="rounded=0;whiteSpace=wrap;html=1;fillColor=#dae8fc;strokeColor=#6c8ebf;" vertex="1" parent="1">
          <mxGeometry x="3370" y="668.3499999999999" width="130" height="60" as="geometry" />
        </mxCell>
        <mxCell id="BgDW5pC34_x2A9uitIVd-444" value="Filter总计&lt;br&gt;18.3%" style="text;html=1;align=center;verticalAlign=middle;resizable=0;points=[];autosize=1;strokeColor=none;fillColor=none;" vertex="1" parent="1">
          <mxGeometry x="3195" y="558.3499999999999" width="70" height="40" as="geometry" />
        </mxCell>
        <mxCell id="BgDW5pC34_x2A9uitIVd-445" value="HandlerExecutionChain.applyPreHandle&amp;nbsp;" style="text;html=1;align=center;verticalAlign=middle;resizable=0;points=[];autosize=1;strokeColor=none;fillColor=none;" vertex="1" parent="1">
          <mxGeometry x="3270" y="518.3499999999999" width="240" height="30" as="geometry" />
        </mxCell>
        <mxCell id="BgDW5pC34_x2A9uitIVd-446" value="&lt;span style=&quot;&quot;&gt;AbstractHandlerMethodAdapter.handle&lt;/span&gt;" style="text;html=1;align=center;verticalAlign=middle;resizable=0;points=[];autosize=1;strokeColor=none;fillColor=none;" vertex="1" parent="1">
          <mxGeometry x="4350" y="558.3499999999999" width="230" height="30" as="geometry" />
        </mxCell>
        <mxCell id="BgDW5pC34_x2A9uitIVd-447" value="" style="strokeWidth=2;html=1;shape=mxgraph.flowchart.annotation_2;align=left;labelPosition=right;pointerEvents=1;rotation=90;" vertex="1" parent="1">
          <mxGeometry x="3210" y="408.34999999999997" width="50" height="450" as="geometry" />
        </mxCell>
        <mxCell id="BgDW5pC34_x2A9uitIVd-448" value="其他逻辑&lt;br&gt;&lt;span style=&quot;&quot;&gt;1.97%&lt;/span&gt;" style="rounded=0;whiteSpace=wrap;html=1;fillColor=#f5f5f5;fontColor=#333333;strokeColor=#666666;" vertex="1" parent="1">
          <mxGeometry x="4320" y="668.3499999999999" width="70" height="60" as="geometry" />
        </mxCell>
        <mxCell id="BgDW5pC34_x2A9uitIVd-449" value="其他逻辑&lt;br&gt;&lt;span style=&quot;&quot;&gt;2.63%&lt;/span&gt;" style="rounded=0;whiteSpace=wrap;html=1;fillColor=#f5f5f5;fontColor=#333333;strokeColor=#666666;" vertex="1" parent="1">
          <mxGeometry x="4700" y="728.3499999999999" width="70" height="60" as="geometry" />
        </mxCell>
        <mxCell id="BgDW5pC34_x2A9uitIVd-450" value="BaseAntiCrawlerInterceptor&lt;br&gt;4.15%" style="rounded=0;whiteSpace=wrap;html=1;fillColor=#dae8fc;strokeColor=#6c8ebf;" vertex="1" parent="1">
          <mxGeometry x="3630" y="548.3499999999999" width="150" height="60" as="geometry" />
        </mxCell>
        <mxCell id="BgDW5pC34_x2A9uitIVd-451" value="KuaishouJacksonConverter" style="text;html=1;align=center;verticalAlign=middle;resizable=0;points=[];autosize=1;strokeColor=none;fillColor=none;" vertex="1" parent="1">
          <mxGeometry x="3950" y="378.34999999999997" width="170" height="30" as="geometry" />
        </mxCell>
        <mxCell id="BgDW5pC34_x2A9uitIVd-452" value="ApiTokenInterceptor&lt;br&gt;6.2%" style="rounded=0;whiteSpace=wrap;html=1;fillColor=#dae8fc;strokeColor=#6c8ebf;" vertex="1" parent="1">
          <mxGeometry x="3500" y="548.3499999999999" width="130" height="60" as="geometry" />
        </mxCell>
        <mxCell id="BgDW5pC34_x2A9uitIVd-453" value="SocialBannedInterceptor&lt;br&gt;1.82%" style="rounded=0;whiteSpace=wrap;html=1;fillColor=#dae8fc;strokeColor=#6c8ebf;" vertex="1" parent="1">
          <mxGeometry x="3780" y="548.3499999999999" width="130" height="60" as="geometry" />
        </mxCell>
        <mxCell id="BgDW5pC34_x2A9uitIVd-454" value="其他拦截器&lt;br&gt;&lt;span style=&quot;&quot;&gt;1.34%&lt;/span&gt;" style="rounded=0;whiteSpace=wrap;html=1;fillColor=#f5f5f5;fontColor=#333333;strokeColor=#666666;" vertex="1" parent="1">
          <mxGeometry x="3910" y="548.3499999999999" width="70" height="60" as="geometry" />
        </mxCell>
        <mxCell id="BgDW5pC34_x2A9uitIVd-455" style="edgeStyle=none;rounded=0;orthogonalLoop=1;jettySize=auto;html=1;exitX=0.5;exitY=0;exitDx=0;exitDy=0;entryX=0.476;entryY=1.067;entryDx=0;entryDy=0;entryPerimeter=0;dashed=1;" edge="1" parent="1" source="BgDW5pC34_x2A9uitIVd-456" target="BgDW5pC34_x2A9uitIVd-451">
          <mxGeometry relative="1" as="geometry" />
        </mxCell>
        <mxCell id="BgDW5pC34_x2A9uitIVd-456" value="反序列化&lt;br&gt;7.75%" style="rounded=0;whiteSpace=wrap;html=1;fillColor=#d5e8d4;strokeColor=#82b366;" vertex="1" parent="1">
          <mxGeometry x="3980" y="488.34999999999997" width="100" height="60" as="geometry" />
        </mxCell>
        <mxCell id="BgDW5pC34_x2A9uitIVd-457" value="" style="strokeWidth=2;html=1;shape=mxgraph.flowchart.annotation_2;align=left;labelPosition=right;pointerEvents=1;rotation=90;" vertex="1" parent="1">
          <mxGeometry x="3715" y="288.34999999999997" width="50" height="450" as="geometry" />
        </mxCell>
        <mxCell id="BgDW5pC34_x2A9uitIVd-458" value="Interceptor总计&lt;br&gt;13.51%" style="text;html=1;align=center;verticalAlign=middle;resizable=0;points=[];autosize=1;strokeColor=none;fillColor=none;" vertex="1" parent="1">
          <mxGeometry x="3690" y="443.34999999999997" width="100" height="40" as="geometry" />
        </mxCell>
        <mxCell id="BgDW5pC34_x2A9uitIVd-459" value="" style="rounded=0;whiteSpace=wrap;html=1;fillColor=#dae8fc;strokeColor=#6c8ebf;" vertex="1" parent="1">
          <mxGeometry x="2750" y="353.34999999999997" width="80" height="20" as="geometry" />
        </mxCell>
        <mxCell id="BgDW5pC34_x2A9uitIVd-460" value="" style="rounded=0;whiteSpace=wrap;html=1;fillColor=#e1d5e7;strokeColor=#9673a6;" vertex="1" parent="1">
          <mxGeometry x="2750" y="433.34999999999997" width="80" height="20" as="geometry" />
        </mxCell>
        <mxCell id="BgDW5pC34_x2A9uitIVd-461" value="" style="rounded=0;whiteSpace=wrap;html=1;fillColor=#f8cecc;strokeColor=#b85450;" vertex="1" parent="1">
          <mxGeometry x="2750" y="393.34999999999997" width="80" height="20" as="geometry" />
        </mxCell>
        <mxCell id="BgDW5pC34_x2A9uitIVd-462" value="表示filter、interceptor的逻辑，占33.81%" style="text;html=1;align=center;verticalAlign=middle;resizable=0;points=[];autosize=1;strokeColor=none;fillColor=none;" vertex="1" parent="1">
          <mxGeometry x="2840" y="348.34999999999997" width="240" height="30" as="geometry" />
        </mxCell>
        <mxCell id="BgDW5pC34_x2A9uitIVd-463" value="表示controller即业务逻辑入口，占23.04%" style="text;html=1;align=center;verticalAlign=middle;resizable=0;points=[];autosize=1;strokeColor=none;fillColor=none;" vertex="1" parent="1">
          <mxGeometry x="2835" y="388.34999999999997" width="250" height="30" as="geometry" />
        </mxCell>
        <mxCell id="BgDW5pC34_x2A9uitIVd-464" value="表示异步逻辑如GC、IO，但受业务逻辑影响占25.96%" style="text;html=1;align=center;verticalAlign=middle;resizable=0;points=[];autosize=1;strokeColor=none;fillColor=none;" vertex="1" parent="1">
          <mxGeometry x="2840" y="428.34999999999997" width="310" height="30" as="geometry" />
        </mxCell>
        <mxCell id="BgDW5pC34_x2A9uitIVd-465" value="" style="rounded=0;whiteSpace=wrap;html=1;fillColor=#d5e8d4;strokeColor=#82b366;" vertex="1" parent="1">
          <mxGeometry x="2750" y="473.34999999999997" width="80" height="20" as="geometry" />
        </mxCell>
        <mxCell id="BgDW5pC34_x2A9uitIVd-466" value="表示同步逻辑如序列化，但受业务逻辑影响占14.97%" style="text;html=1;align=center;verticalAlign=middle;resizable=0;points=[];autosize=1;strokeColor=none;fillColor=none;" vertex="1" parent="1">
          <mxGeometry x="2840" y="468.34999999999997" width="300" height="30" as="geometry" />
        </mxCell>
        <mxCell id="BgDW5pC34_x2A9uitIVd-467" value="MemcachedMultiPoolDataAccessEx.get" style="text;html=1;align=center;verticalAlign=middle;resizable=0;points=[];autosize=1;strokeColor=none;fillColor=none;" vertex="1" parent="1">
          <mxGeometry x="4140" y="388.34999999999997" width="240" height="30" as="geometry" />
        </mxCell>
        <mxCell id="BgDW5pC34_x2A9uitIVd-468" style="edgeStyle=none;rounded=0;orthogonalLoop=1;jettySize=auto;html=1;exitX=0.5;exitY=0;exitDx=0;exitDy=0;entryX=0.542;entryY=1;entryDx=0;entryDy=0;entryPerimeter=0;dashed=1;" edge="1" parent="1" source="BgDW5pC34_x2A9uitIVd-469" target="BgDW5pC34_x2A9uitIVd-467">
          <mxGeometry relative="1" as="geometry" />
        </mxCell>
        <mxCell id="BgDW5pC34_x2A9uitIVd-469" value="Memcached缓存&lt;br&gt;7.22%" style="rounded=0;whiteSpace=wrap;html=1;fillColor=#d5e8d4;strokeColor=#82b366;" vertex="1" parent="1">
          <mxGeometry x="4110" y="488.34999999999997" width="100" height="60" as="geometry" />
        </mxCell>
        <mxCell id="BgDW5pC34_x2A9uitIVd-470" value="&lt;span style=&quot;&quot;&gt;Perf工具类&lt;/span&gt;&lt;br style=&quot;&quot;&gt;&lt;span style=&quot;&quot;&gt;1.22%&lt;/span&gt;" style="rounded=0;whiteSpace=wrap;html=1;fillColor=#d5e8d4;strokeColor=#82b366;" vertex="1" parent="1">
          <mxGeometry x="4210" y="488.34999999999997" width="70" height="60" as="geometry" />
        </mxCell>
      </root>
    </mxGraphModel>
  </diagram>
</mxfile>
